SplineFontDB: 3.0
FontName: aghtex_mathfrak
FullName: aghtex_mathfrak
FamilyName: aghtex_mathfrak
Weight: Book
Copyright: Copyright (C) 2012 KM, 1997, 2009, 2011 American Mathematical Society (<http://www.ams.org>), with Reserved Font Name EUFM10.
Version: 3.3.0.1
ItalicAngle: 0
UnderlinePosition: -100
UnderlineWidth: 50
Ascent: 819
Descent: 205
LayerCount: 2
Layer: 0 1 "+gMyXYgAA"  1
Layer: 1 1 "+Uk2XYgAA"  0
NeedsXUIDChange: 1
FSType: 8
OS2Version: 1
OS2_WeightWidthSlopeOnly: 0
OS2_UseTypoMetrics: 0
CreationTime: 1344259771
ModificationTime: 1383780318
PfmFamily: 17
TTFWeight: 400
TTFWidth: 5
LineGap: 90
VLineGap: 0
OS2TypoAscent: 0
OS2TypoAOffset: 1
OS2TypoDescent: 0
OS2TypoDOffset: 1
OS2TypoLinegap: 90
OS2WinAscent: 0
OS2WinAOffset: 1
OS2WinDescent: 0
OS2WinDOffset: 1
HheadAscent: 0
HheadAOffset: 1
HheadDescent: 0
HheadDOffset: 1
OS2Vendor: 'PfEd'
MarkAttachClasses: 1
DEI: 91125
TtTable: prep
PUSHW_1
 511
SCANCTRL
PUSHB_1
 1
SCANTYPE
SVTCA[y-axis]
MPPEM
PUSHB_1
 8
LT
IF
PUSHB_2
 1
 1
INSTCTRL
EIF
PUSHB_2
 70
 6
CALL
IF
POP
PUSHB_1
 16
EIF
MPPEM
PUSHB_1
 20
GT
IF
POP
PUSHB_1
 128
EIF
SCVTCI
PUSHB_1
 6
CALL
NOT
IF
SVTCA[y-axis]
PUSHB_1
 5
DUP
RCVT
PUSHB_1
 3
CALL
WCVTP
PUSHB_1
 6
DUP
RCVT
PUSHB_3
 5
 57
 2
CALL
PUSHB_1
 3
CALL
WCVTP
SVTCA[x-axis]
PUSHB_1
 7
DUP
RCVT
PUSHB_1
 3
CALL
WCVTP
PUSHB_1
 8
DUP
RCVT
PUSHW_3
 7
 32767
 2
CALL
PUSHB_2
 3
 70
SROUND
CALL
WCVTP
PUSHB_1
 9
DUP
RCVT
PUSHB_3
 8
 73
 2
CALL
PUSHB_2
 3
 70
SROUND
CALL
WCVTP
EIF
PUSHB_1
 20
CALL
EndTTInstrs
TtTable: fpgm
PUSHB_1
 0
FDEF
PUSHB_1
 0
SZP0
MPPEM
PUSHB_1
 46
LT
IF
PUSHB_1
 74
SROUND
EIF
PUSHB_1
 0
SWAP
MIAP[rnd]
RTG
PUSHB_1
 6
CALL
IF
RTDG
EIF
MPPEM
PUSHB_1
 46
LT
IF
RDTG
EIF
DUP
MDRP[rp0,rnd,grey]
PUSHB_1
 1
SZP0
MDAP[no-rnd]
RTG
ENDF
PUSHB_1
 1
FDEF
DUP
MDRP[rp0,min,white]
PUSHB_1
 12
CALL
ENDF
PUSHB_1
 2
FDEF
MPPEM
GT
IF
RCVT
SWAP
EIF
POP
ENDF
PUSHB_1
 3
FDEF
ROUND[Black]
RTG
DUP
PUSHB_1
 64
LT
IF
POP
PUSHB_1
 64
EIF
ENDF
PUSHB_1
 4
FDEF
PUSHB_1
 6
CALL
IF
POP
SWAP
POP
ROFF
IF

StartChar: dnos
Encoding: 0 -1 0
Width: 497
VWidth: 1000
Flags: W
HStem: 671 20G<151 173>
VStem: 68 89<139.582 337> 70 71<519.4 613.05> 344 91<126.062 365.407>
LayerCount: 2
Fore
SplineSet
435 328 m 0,0,1
 435 250 435 250 430 201.5 c 128,-1,2
 425 153 425 153 406 107 c 2,3,-1
 405 106 l 1,4,-1
 214 -40 l 1,5,-1
 211 -38 l 2,6,7
 114 27 114 27 72 78 c 2,8,9
 71 79 l 1,10,-1
 71 81 l 2,11,12
 68 126 68 126 68 166 c 0,13,14
 68 221 68 221 74 335 c 2,15,-1
 74 337 l 1,16,-1
 76 339 l 2,17,18
 142 401 142 401 173 426 c 1,19,20
 143 438 143 438 124 447.5 c 128,-1,21
 105 457 105 457 87.5 478 c 128,-1,22
 70 499 70 499 70 528 c 0,23,24
 70 612 70 612 151 688 c 2,25,-1
 154 691 l 1,26,-1
 173 675 l 1,27,-1
 170 671 l 2,28,29
 141 637 141 637 141 596 c 0,30,31
 141 562 141 562 168.5 533.5 c 128,-1,32
 196 505 196 505 242.5 488 c 128,-1,33
 289 471 289 471 334 460.5 c 128,-1,34
 379 450 379 450 428 444 c 2,35,-1
 432 443 l 1,36,-1
 432 439 l 2,37,38
 435 402 435 402 435 328 c 0,0,1
336 367 m 1,39,-1
 210 413 l 1,40,41
 174 365 174 365 165.5 337 c 128,-1,42
 157 309 157 309 157 254 c 0,43,44
 157 220 157 220 164 137 c 1,45,46
 182 115 182 115 207 98 c 0,47,48
 272 53 272 53 285 53 c 0,49,50
 290 53 290 53 295 61 c 0,51,52
 344 138 344 138 344 267 c 0,53,54
 344 316 344 316 336 367 c 1,39,-1
EndSplineSet
Validated: 19457
EndChar

StartChar: dalt
Encoding: 1 -1 1
Width: 498
VWidth: 1000
Flags: W
HStem: 446 20G<212 243> 544 29<37.0797 45>
VStem: 71 90<142.967 361.984> 83 78<171 362> 342 96<157.875 402.594>
LayerCount: 2
Fore
SplineSet
179 393 m 1,0,1
 161 349 161 349 161 260 c 0,2,3
 161 204 161 204 169 141 c 0,4,5
 171 127 171 127 204.5 100 c 128,-1,6
 238 73 238 73 279 49 c 1,7,8
 342 125 342 125 342 314 c 0,9,10
 342 359 342 359 339 404 c 1,11,12
 231 515 231 515 101 556 c 1,13,14
 74 556 74 556 45 545 c 2,15,-1
 40 544 l 1,16,-1
 29 571 l 1,17,-1
 33 573 l 2,18,19
 88 601 88 601 157 621 c 2,20,-1
 158 621 l 1,21,-1
 159 621 l 2,22,23
 224 607 224 607 302.5 563 c 128,-1,24
 381 519 381 519 434 462 c 2,25,-1
 435 461 l 1,26,-1
 435 459 l 2,27,28
 438 415 438 415 438 372 c 0,29,30
 438 209 438 209 399 100 c 2,31,-1
 398 99 l 1,32,-1
 397 98 l 2,33,34
 328 42 328 42 208 -34 c 2,35,-1
 205 -36 l 1,36,-1
 202 -34 l 2,37,38
 129 21 129 21 74 79 c 2,39,-1
 73 80 l 1,40,-1
 73 82 l 2,41,42
 71 111 71 111 71 168 c 0,43,44
 71 264 71 264 83 361 c 2,45,-1
 83 362 l 1,46,-1
 85 364 l 2,47,48
 128 405 128 405 212 464 c 2,49,-1
 215 466 l 1,50,-1
 243 452 l 1,51,-1
 179 393 l 1,0,1
EndSplineSet
Validated: 19457
EndChar

StartChar: fnos
Encoding: 2 -1 2
Width: 333
VWidth: 1000
Flags: W
HStem: 346 45<42 117 213 314> 596 90<178.543 253.79>
VStem: 111 37<474.598 582.543> 117 96<84.7803 346>
LayerCount: 2
Fore
SplineSet
344 675 m 1,0,-1
 344 647 l 1,1,-1
 268 558 l 1,2,-1
 264 563 l 2,3,4
 236 596 236 596 206 596 c 0,5,6
 181 596 181 596 164.5 582 c 128,-1,7
 148 568 148 568 148 544 c 0,8,9
 148 493 148 493 210 391 c 1,10,-1
 331 391 l 1,11,-1
 314 346 l 1,12,-1
 213 346 l 1,13,14
 213 -37 213 -37 194 -72 c 2,15,-1
 93 -263 l 1,16,-1
 67 -253 l 1,17,-1
 68 -248 l 2,18,19
 117 -99 117 -99 117 38 c 2,20,-1
 117 346 l 1,21,-1
 22 346 l 1,22,-1
 42 390 l 1,23,-1
 119 390 l 1,24,25
 111 476 111 476 111 521 c 0,26,27
 111 577 111 577 149.5 631.5 c 128,-1,28
 188 686 188 686 236 686 c 0,29,30
 267 686 267 686 307 656 c 0,31,-1
 308 656 l 2,32,33
 310 654 310 654 310 653 c 0,34,35
 311 653 311 653 312.5 653 c 128,-1,36
 314 653 314 653 315 655 c 2,37,-1
 316 655 l 1,38,-1
 344 675 l 1,0,-1
EndSplineSet
Validated: 19457
EndChar

StartChar: falt
Encoding: 3 -1 3
Width: 329
VWidth: 1000
Flags: W
HStem: 346 45<43 118 213 316> 580 73<210.789 250>
VStem: 91 64<506.885 561> 118 95<-69.7729 346 391 469.965>
LayerCount: 2
Fore
SplineSet
208 41 m 2,0,1
 206 -32 206 -32 194 -71 c 0,2,-1
 193 -71 l 1,3,-1
 118 -218 l 1,4,-1
 103 -247 l 1,5,-1
 71 -244 l 1,6,-1
 73 -239 l 2,7,8
 79 -219 79 -219 88.5 -180.5 c 128,-1,9
 98 -142 98 -142 104 -113 c 0,10,11
 110 -85 110 -85 110 -84 c 2,12,-1
 110 -83 l 1,13,14
 116 -27 116 -27 116 3 c 0,15,16
 116 61 116 61 117 177 c 0,17,18
 118 288 118 288 118 346 c 1,19,-1
 22 346 l 1,20,-1
 43 390 l 1,21,-1
 118 390 l 1,22,23
 116 410 116 410 105 466 c 0,24,25
 91 532 91 532 91 560 c 2,26,-1
 91 561 l 1,27,-1
 92 563 l 2,28,29
 127 619 127 619 189 684 c 2,30,-1
 192 688 l 1,31,-1
 196 685 l 2,32,33
 241 653 241 653 263 653 c 256,34,35
 285 653 285 653 305 671 c 2,36,-1
 308 674 l 1,37,-1
 322 660 l 1,38,-1
 250 580 l 1,39,-1
 248 580 l 2,40,41
 210 580 210 580 155 592 c 1,42,43
 157 558 157 558 182 494 c 0,44,45
 208 427 208 427 212 391 c 1,46,-1
 331 391 l 1,47,-1
 316 346 l 1,48,-1
 213 346 l 1,49,-1
 208 41 l 2,0,1
EndSplineSet
Validated: 19457
EndChar

StartChar: galt
Encoding: 4 -1 4
Width: 503
VWidth: 1000
Flags: W
HStem: -219 74<166.334 307.687> 450 20G<401.366 450>
VStem: 68 92<125.906 370.969> 335 88<127 344.132> 358 86<-62.8884 87.1869>
LayerCount: 2
Fore
SplineSet
435 -56 m 1,0,-1
 309 -196 l 1,1,2
 274 -219 274 -219 226 -219 c 0,3,4
 122 -219 122 -219 48 -147 c 2,5,-1
 45 -144 l 1,6,-1
 87 -43 l 1,7,-1
 105 -42 l 1,8,-1
 106 -46 l 2,9,10
 116 -92 116 -92 159 -118.5 c 128,-1,11
 202 -145 202 -145 254 -145 c 0,12,13
 299 -145 299 -145 328.5 -123.5 c 128,-1,14
 358 -102 358 -102 358 -56 c 0,15,16
 358 -21 358 -21 337 89 c 1,17,-1
 158 -38 l 1,18,-1
 71 63 l 1,19,-1
 71 65 l 2,20,21
 71 77 71 77 70 100 c 128,-1,22
 69 123 69 123 68.5 141.5 c 128,-1,23
 68 160 68 160 68 176 c 0,24,25
 68 293 68 293 85 369 c 2,26,-1
 86 371 l 1,27,-1
 87 372 l 2,28,29
 187 441 187 441 249 474 c 2,30,-1
 251 476 l 1,31,-1
 254 474 l 2,32,33
 302 444 302 444 365 429 c 1,34,-1
 436 470 l 1,35,-1
 450 461 l 1,36,-1
 449 457 l 2,37,38
 423 393 423 393 423 135 c 1,39,40
 444 1 444 1 444 -18 c 0,41,42
 444 -36 444 -36 436 -55 c 2,43,-1
 435 -56 l 1,0,-1
230 54 m 1,44,-1
 335 127 l 1,45,46
 335 224 335 224 343 348 c 1,47,48
 257 357 257 357 181 384 c 1,49,50
 160 335 160 335 160 245 c 0,51,52
 160 185 160 185 166 124 c 1,53,54
 206 74 206 74 230 54 c 1,44,-1
EndSplineSet
Validated: 19457
EndChar

StartChar: kalt
Encoding: 5 -1 5
Width: 333
VWidth: 1000
Flags: W
HStem: 346 45<39 83 173 265> 673 20G<243 270>
VStem: 77 96<120 346 391 491.305> 77 25<657.238 675>
LayerCount: 2
Fore
SplineSet
239 69 m 1,0,1
 245 72 245 72 309 103 c 2,2,-1
 316 107 l 1,3,-1
 317 73 l 1,4,-1
 174 -26 l 1,5,-1
 77 64 l 1,6,-1
 77 66 l 2,7,8
 80 206 80 206 83 346 c 1,9,-1
 17 346 l 1,10,-1
 39 391 l 1,11,-1
 84 391 l 1,12,13
 77 571 77 571 77 671 c 2,14,-1
 77 675 l 1,15,-1
 102 682 l 1,16,-1
 124 606 l 1,17,18
 207 667 207 667 243 691 c 2,19,-1
 246 693 l 1,20,-1
 270 678 l 1,21,-1
 265 673 l 2,22,23
 182 590 182 590 174 511 c 1,24,25
 260 582 260 582 271 587 c 0,26,27
 273 588 273 588 274 588 c 2,28,-1
 277 588 l 1,29,-1
 278 586 l 2,30,31
 310 537 310 537 320 506 c 2,32,-1
 321 503 l 1,33,-1
 279 440 l 1,34,-1
 275 446 l 2,35,36
 238 501 238 501 217 501 c 0,37,38
 173 501 173 501 172 391 c 1,39,-1
 287 391 l 1,40,-1
 265 346 l 1,41,-1
 173 346 l 1,42,-1
 173 120 l 1,43,-1
 231 73 l 2,44,45
 236 69 236 69 238 69 c 2,46,-1
 239 69 l 1,0,1
EndSplineSet
Validated: 3073
EndChar

StartChar: talt
Encoding: 6 -1 6
Width: 334
VWidth: 1000
Flags: W
HStem: 346 45<42 113 201 298>
VStem: 111 91<106.303 346 391 537>
LayerCount: 2
Fore
SplineSet
354 82 m 1,0,-1
 211 -27 l 1,1,-1
 208 -25 l 2,2,3
 124 48 124 48 114 56 c 1,4,-1
 111 56 l 1,5,-1
 111 61 l 2,6,7
 113 99 113 99 113 346 c 1,8,-1
 21 346 l 1,9,-1
 42 391 l 1,10,-1
 113 391 l 1,11,12
 113 487 113 487 111 534 c 2,13,-1
 111 537 l 1,14,-1
 199 583 l 1,15,-1
 216 577 l 1,16,-1
 215 573 l 2,17,18
 201 491 201 491 201 391 c 1,19,-1
 321 391 l 1,20,-1
 298 346 l 1,21,-1
 201 346 l 1,22,23
 201 152 201 152 202 125 c 1,24,25
 261 74 261 74 275 72 c 1,26,27
 282 73 282 73 340 105 c 2,28,-1
 345 108 l 1,29,-1
 354 82 l 1,0,-1
EndSplineSet
Validated: 19457
EndChar

StartChar: ualt
Encoding: 7 -1 7
Width: 501
VWidth: 1000
Flags: W
VStem: 92 85<118.871 378.773> 331 102<228.688 427> 335 83<105.946 427>
LayerCount: 2
Fore
SplineSet
422 474 m 1,0,-1
 433 464 l 1,1,-1
 433 461 l 2,2,3
 418 343 418 343 418 225 c 0,4,5
 418 196 418 196 418.5 180 c 128,-1,6
 419 164 419 164 422.5 138 c 128,-1,7
 426 112 426 112 434.5 100 c 128,-1,8
 443 88 443 88 455 88 c 256,9,10
 467 88 467 88 506 107 c 2,11,-1
 511 110 l 1,12,-1
 520 86 l 1,13,-1
 517 84 l 2,14,15
 475 50 475 50 398 -23 c 2,16,-1
 396 -25 l 1,17,-1
 383 -20 l 1,18,-1
 382 -18 l 2,19,20
 359 37 359 37 335 72 c 1,21,22
 307 58 307 58 269.5 33 c 128,-1,23
 232 8 232 8 208 -11 c 2,24,-1
 180 -32 l 1,25,-1
 177 -30 l 2,26,27
 157 -14 157 -14 117.5 10.5 c 128,-1,28
 78 35 78 35 53 43 c 2,29,-1
 48 45 l 1,30,-1
 51 50 l 2,31,32
 92 122 92 122 92 264 c 0,33,34
 92 295 92 295 91 312.5 c 128,-1,35
 90 330 90 330 82 353.5 c 128,-1,36
 74 377 74 377 60 390 c 1,37,-1
 23 370 l 1,38,-1
 -0 386 l 1,39,-1
 120 481 l 1,40,-1
 123 477 l 2,41,42
 155 439 155 439 174 425 c 2,43,-1
 176 424 l 1,44,-1
 176 421 l 2,45,46
 176 410 176 410 176.5 388.5 c 128,-1,47
 177 367 177 367 177 356 c 0,48,49
 177 200 177 200 152 107 c 1,50,-1
 245 61 l 1,51,-1
 330 104 l 1,52,53
 335 166 335 166 335 264 c 0,54,55
 335 314 335 314 331 424 c 2,56,-1
 331 427 l 1,57,-1
 422 474 l 1,0,-1
EndSplineSet
Validated: 19457
EndChar

StartChar: quoteleft
Encoding: 18 8216 8
Width: 215
VWidth: 1000
Flags: W
HStem: 401 316
VStem: 40 70<520.82 607.05>
LayerCount: 2
Fore
SplineSet
155 486 m 2,0,1
 172 459 172 459 172 448 c 0,2,3
 172 433 172 433 152.5 417 c 128,-1,4
 133 401 133 401 119 401 c 0,5,6
 94 401 94 401 67 452 c 128,-1,7
 40 503 40 503 40 541 c 0,8,9
 40 565 40 565 59 601 c 128,-1,10
 78 637 78 637 85 646 c 2,11,12
 136 712 l 1,13,-1
 140 717 l 1,14,-1
 160 696 l 1,15,-1
 158 692 l 2,16,17
 110 609 110 609 110 577 c 0,18,19
 110 555 110 555 123 535 c 2,20,-1
 155 486 l 2,0,1
EndSplineSet
Validated: 19457
EndChar

StartChar: quoteright
Encoding: 19 8217 9
Width: 215
VWidth: 1000
Flags: W
HStem: 388 312
VStem: 101 67<490.414 578.569>
LayerCount: 2
Fore
SplineSet
75 388 m 1,0,-1
 51 405 l 1,1,-1
 54 409 l 2,2,3
 94 477 94 477 99 506 c 0,4,5
 101 516 101 516 101 525 c 0,6,7
 101 539 101 539 89 562 c 1,8,-1
 54 618 l 2,9,10
 39 642 39 642 39 654 c 0,11,12
 39 667 39 667 58.5 683.5 c 128,-1,13
 78 700 78 700 92 700 c 0,14,15
 115 700 115 700 141.5 649 c 128,-1,16
 168 598 168 598 168 564 c 0,17,18
 168 541 168 541 157.5 516 c 128,-1,19
 147 491 147 491 136.5 474.5 c 128,-1,20
 126 458 126 458 106 431 c 128,-1,21
 86 404 86 404 78 392 c 2,22,-1
 75 388 l 1,0,-1
EndSplineSet
Validated: 19457
EndChar

StartChar: exclam
Encoding: 33 33 10
Width: 296
VWidth: 1000
Flags: W
HStem: -16 124<100.194 194.217>
VStem: 85 124<-0.806152 92.8062>
LayerCount: 2
Fore
SplineSet
103.5 89.5 m 128,-1,1
 122 108 122 108 148 108 c 0,2,3
 173 108 173 108 191 89.5 c 128,-1,4
 209 71 209 71 209 46 c 128,-1,5
 209 21 209 21 191 2.5 c 128,-1,6
 173 -16 173 -16 148 -16 c 0,7,8
 122 -16 122 -16 103.5 2.5 c 128,-1,9
 85 21 85 21 85 46 c 128,-1,0
 85 71 85 71 103.5 89.5 c 128,-1,1
100 567 m 1,10,-1
 97 625 l 1,11,12
 97 664 97 664 111 679.5 c 128,-1,13
 125 695 125 695 152 695 c 0,14,15
 194 695 194 695 194 644 c 0,16,17
 194 604 194 604 189 556 c 2,18,-1
 153 182 l 1,19,-1
 127 178 l 1,20,-1
 100 567 l 1,10,-1
EndSplineSet
Validated: 19457
EndChar

StartChar: ampersand
Encoding: 38 38 11
Width: 738
VWidth: 1000
Flags: W
HStem: -16 74<535.442 644.239> -13 49<215.203 372.005> 356 48<343 471.525 560 705.906> 658 45<262.514 346.523>
VStem: 44 88<126.399 285.101> 176 71<449.301 612.832> 369 82<523.219 635.56> 507 61<199.388 326.962> 708 31<141.821 189.439>
LayerCount: 2
Fore
SplineSet
341 350 m 1,0,-1
 343 404 l 1,1,-1
 348 404 l 2,2,3
 404 401 404 401 548 401 c 0,4,5
 674 401 674 401 704 404 c 2,6,-1
 709 405 l 1,7,-1
 706 345 l 1,8,-1
 700 346 l 2,9,10
 661 353 661 353 560 353 c 1,11,12
 568 319 568 319 568 295 c 0,13,14
 568 211 568 211 496 115 c 1,15,16
 550 58 550 58 597 58 c 0,17,18
 677 58 677 58 708 190 c 2,19,-1
 709 195 l 1,20,-1
 740 188 l 1,21,-1
 739 183 l 2,22,23
 732 146 732 146 720.5 114 c 128,-1,24
 709 82 709 82 689 51 c 256,25,26
 669 20 669 20 637.5 2 c 128,-1,27
 606 -16 606 -16 566 -16 c 0,28,29
 495 -16 495 -16 433 44 c 1,30,-1
 431 46 l 1,31,32
 356 -13 356 -13 278 -13 c 0,33,34
 164 -13 164 -13 107 43 c 0,35,36
 44 106 44 106 44 195 c 0,37,38
 44 262 44 262 80 305 c 0,39,40
 114 346 114 346 201 399 c 1,41,42
 176 461 176 461 176 520 c 0,43,44
 176 594 176 594 222 648 c 0,45,46
 268 703 268 703 344 703 c 0,47,48
 385 703 385 703 418 676 c 0,49,50
 451 648 451 648 451 606 c 0,51,52
 451 536 451 536 402 491 c 0,53,54
 382 473 382 473 340 447 c 0,55,56
 303 424 303 424 285 414 c 1,57,58
 354 263 354 263 473 139 c 1,59,60
 507 192 507 192 507 266 c 0,61,62
 507 307 507 307 472 341 c 0,63,64
 457 356 457 356 415 356 c 0,65,66
 384 356 384 356 347 351 c 2,67,-1
 341 350 l 1,0,-1
409 69 m 1,68,69
 280 213 280 213 214 368 c 1,70,71
 132 311 132 311 132 218 c 0,72,73
 132 147 132 147 177.5 91.5 c 128,-1,74
 223 36 223 36 293 36 c 0,75,76
 365 36 365 36 409 69 c 1,68,69
272 442 m 1,77,78
 329 479 329 479 349 507 c 128,-1,79
 369 535 369 535 369 582 c 0,80,81
 369 607 369 607 349 632.5 c 128,-1,82
 329 658 329 658 307 658 c 0,83,84
 281 658 281 658 267 641.5 c 128,-1,85
 253 625 253 625 250 606.5 c 128,-1,86
 247 588 247 588 247 559 c 0,87,88
 247 504 247 504 272 442 c 1,77,78
EndSplineSet
Validated: 19457
EndChar

StartChar: quotesingle
Encoding: 39 39 12
Width: 212
VWidth: 1000
Flags: W
HStem: 431 269<83 108>
VStem: 63 76<493.344 691.232>
LayerCount: 2
Fore
SplineSet
65 629 m 2,0,1
 63 653 63 653 63 666 c 0,2,3
 63 683 63 683 75 691.5 c 128,-1,4
 87 700 87 700 104 700 c 0,5,6
 139 700 139 700 139 662 c 0,7,8
 139 648 139 648 135 621 c 2,9,-1
 108 431 l 1,10,-1
 83 431 l 1,11,-1
 65 629 l 2,0,1
EndSplineSet
Validated: 19457
EndChar

StartChar: parenleft
Encoding: 40 40 13
Width: 389
VWidth: 1000
Flags: W
VStem: 108 62<49.7852 505.064>
LayerCount: 2
Fore
SplineSet
306 -159 m 1,0,-1
 306 -192 l 1,1,-1
 301 -192 l 2,2,3
 228 -186 228 -186 185 -118 c 128,-1,4
 142 -50 142 -50 126 37 c 0,5,6
 108 138 108 138 108 280 c 0,7,8
 108 410 108 410 128 511 c 0,9,10
 170 720 170 720 300 743 c 2,11,-1
 306 744 l 1,12,-1
 306 707 l 1,13,-1
 302 706 l 2,14,15
 170 673 170 673 170 274 c 0,16,17
 170 211 170 211 171.5 165 c 128,-1,18
 173 119 173 119 181 56.5 c 128,-1,19
 189 -6 189 -6 202 -47 c 128,-1,20
 215 -88 215 -88 241 -119.5 c 128,-1,21
 267 -151 267 -151 302 -158 c 2,22,-1
 306 -159 l 1,0,-1
EndSplineSet
Validated: 19457
EndChar

StartChar: parenright
Encoding: 41 41 14
Width: 389
VWidth: 1000
Flags: W
VStem: 219 62<4.60938 502.137>
LayerCount: 2
Fore
SplineSet
81 705 m 1,0,-1
 81 742 l 1,1,-1
 87 741 l 2,2,3
 281 701 281 701 281 272 c 0,4,5
 281 220 281 220 279 179 c 128,-1,6
 277 138 277 138 271.5 82 c 128,-1,7
 266 26 266 26 253 -16.5 c 128,-1,8
 240 -59 240 -59 219.5 -99 c 128,-1,9
 199 -139 199 -139 165 -163.5 c 128,-1,10
 131 -188 131 -188 87 -194 c 2,11,-1
 81 -195 l 1,12,-1
 81 -161 l 1,13,-1
 85 -160 l 2,14,15
 160 -141 160 -141 185 -65 c 0,16,17
 202 -14 202 -14 210 52 c 128,-1,18
 218 118 218 118 218.5 154.5 c 128,-1,19
 219 191 219 191 219 276 c 0,20,21
 219 414 219 414 200 510 c 0,22,23
 191 556 191 556 181 588.5 c 128,-1,24
 171 621 171 621 146 656.5 c 128,-1,25
 121 692 121 692 84 704 c 2,26,-1
 81 705 l 1,0,-1
EndSplineSet
Validated: 19457
EndChar

StartChar: asterisk
Encoding: 42 42 15
Width: 278
VWidth: 1000
Flags: W
HStem: 443 254
VStem: 121 31<443.094 541>
LayerCount: 2
Fore
SplineSet
163 443 m 1,0,-1
 111 443 l 1,1,-1
 112 449 l 2,2,3
 119 493 119 493 121 548 c 1,4,5
 81 516 81 516 53 484 c 2,6,-1
 48 478 l 1,7,-1
 21 524 l 1,8,-1
 26 526 l 2,9,10
 61 544 61 544 106 575 c 1,11,12
 70 600 70 600 28 623 c 2,13,-1
 22 626 l 1,14,-1
 57 662 l 1,15,-1
 60 659 l 2,16,17
 93 628 93 628 120 606 c 1,18,19
 119 661 119 661 112 691 c 2,20,-1
 111 697 l 1,21,-1
 163 697 l 1,22,-1
 162 691 l 2,23,24
 156 660 156 660 152 608 c 1,25,26
 184 634 184 634 210 662 c 2,27,-1
 214 667 l 1,28,-1
 247 626 l 1,29,-1
 241 623 l 2,30,31
 200 604 200 604 160 576 c 1,32,33
 211 540 211 540 241 524 c 2,34,-1
 247 522 l 1,35,-1
 213 484 l 1,36,-1
 209 488 l 2,37,38
 185 514 185 514 152 541 c 1,39,40
 154 486 154 486 162 449 c 2,41,-1
 163 443 l 1,0,-1
EndSplineSet
Validated: 19457
EndChar

StartChar: plus
Encoding: 43 43 16
Width: 756
VWidth: 1000
Flags: W
HStem: 231 50<49 351 401 708>
VStem: 351 50<-71 231 281 584>
LayerCount: 2
Fore
SplineSet
401 281 m 1,0,-1
 715 281 l 1,1,-1
 708 231 l 1,2,-1
 401 231 l 1,3,-1
 401 -71 l 1,4,-1
 351 -80 l 1,5,-1
 351 231 l 1,6,-1
 40 231 l 1,7,-1
 49 281 l 1,8,-1
 351 281 l 1,9,-1
 351 584 l 1,10,-1
 401 592 l 1,11,-1
 401 281 l 1,0,-1
EndSplineSet
Validated: 19457
EndChar

StartChar: comma
Encoding: 44 44 17
Width: 278
VWidth: 1000
Flags: W
VStem: 62 129.5<44.5729 117.414> 152 67<-101.826 -10.1955>
LayerCount: 2
Fore
SplineSet
111 -217 m 1,0,-1
 84 -197 l 1,1,-1
 87 -193 l 2,2,3
 152 -107 152 -107 152 -61 c 0,4,5
 152 -37 152 -37 140 -22 c 2,6,-1
 70 61 l 2,7,8
 62 71 62 71 62 90 c 0,9,10
 62 112 62 112 83 127.5 c 128,-1,11
 104 143 104 143 126 143 c 0,12,13
 164 143 164 143 191.5 77.5 c 128,-1,14
 219 12 219 12 219 -27 c 0,15,16
 219 -64 219 -64 194.5 -106.5 c 128,-1,17
 170 -149 170 -149 114 -213 c 2,18,-1
 111 -217 l 1,0,-1
EndSplineSet
Validated: 19457
EndChar

StartChar: minus
Encoding: 45 8722 18
Width: 756
VWidth: 1000
Flags: W
HStem: 231 50<49 708>
LayerCount: 2
Fore
SplineSet
708 231 m 1,0,-1
 40 231 l 1,1,-1
 49 281 l 1,2,-1
 716 281 l 1,3,-1
 708 231 l 1,0,-1
EndSplineSet
Validated: 19457
EndChar

StartChar: period
Encoding: 46 46 19
Width: 278
VWidth: 1000
Flags: W
HStem: -20 144<93.6584 194.342>
VStem: 72 144<1.65845 102.342>
LayerCount: 2
Fore
SplineSet
93 103 m 128,-1,1
 114 124 114 124 144 124 c 128,-1,2
 174 124 174 124 195 103 c 128,-1,3
 216 82 216 82 216 52 c 128,-1,4
 216 22 216 22 195 1 c 128,-1,5
 174 -20 174 -20 144 -20 c 128,-1,6
 114 -20 114 -20 93 1 c 128,-1,7
 72 22 72 22 72 52 c 128,-1,0
 72 82 72 82 93 103 c 128,-1,1
EndSplineSet
Validated: 19457
EndChar

StartChar: slash
Encoding: 47 47 20
Width: 502
VWidth: 1000
Flags: W
LayerCount: 2
Fore
SplineSet
462 719 m 1,0,-1
 468 704 l 1,1,-1
 77 -198 l 1,2,-1
 38 -188 l 1,3,-1
 34 -169 l 1,4,-1
 421 722 l 1,5,-1
 436 725 l 1,6,-1
 462 719 l 1,0,-1
EndSplineSet
Validated: 3073
EndChar

StartChar: zero
Encoding: 48 48 21
Width: 502
VWidth: 1000
Flags: W
HStem: -18 76<199.177 299.994>
VStem: 36 88<148.41 300.534> 376 85<158.259 305.832>
LayerCount: 2
Fore
SplineSet
401.5 407 m 128,-1,1
 461 340 461 340 461 260 c 0,2,3
 461 160 461 160 382.5 71 c 128,-1,4
 304 -18 304 -18 213 -18 c 0,5,6
 129 -18 129 -18 82.5 47 c 128,-1,7
 36 112 36 112 36 198 c 0,8,9
 36 291 36 291 100 368.5 c 128,-1,10
 164 446 164 446 259 497 c 2,11,-1
 260 498 l 1,12,-1
 262 498 l 2,13,0
 342 474 342 474 401.5 407 c 128,-1,1
196 413 m 1,14,15
 124 368 124 368 124 249 c 0,16,17
 124 177 124 177 163.5 117.5 c 128,-1,18
 203 58 203 58 268 58 c 0,19,20
 376 58 376 58 376 212 c 0,21,22
 376 289 376 289 325.5 348 c 128,-1,23
 275 407 275 407 196 413 c 1,14,15
EndSplineSet
Validated: 19457
EndChar

StartChar: one
Encoding: 49 49 22
Width: 502
VWidth: 1000
Flags: W
HStem: -6 55<41 201.905 305.391 464> 428 37<99 186.075>
VStem: 207 94<48.001 389.076>
LayerCount: 2
Fore
SplineSet
301 474 m 1,0,-1
 314 463 l 1,1,-1
 314 460 l 2,2,3
 302 368 302 368 302 229 c 0,4,5
 302 223 302 223 301 190 c 0,6,7
 301 174 301 174 301 161.5 c 128,-1,8
 301 149 301 149 301 139 c 0,9,10
 301 120 301 120 303 95 c 0,11,12
 304 70 304 70 309 58 c 0,13,14
 311 51 311 51 314 49 c 0,15,16
 315 48 315 48 317 48 c 0,17,18
 388 48 388 48 460 51 c 2,19,-1
 465 51 l 1,20,-1
 464 -6 l 1,21,-1
 459 -6 l 2,22,23
 338 1 338 1 252 1 c 0,24,25
 144 1 144 1 46 -6 c 2,26,-1
 41 -6 l 1,27,-1
 41 49 l 1,28,-1
 46 49 l 2,29,30
 94 48 94 48 190 48 c 0,31,32
 199 48 199 48 202 52 c 2,33,-1
 202 53 l 1,34,35
 207 70 207 70 207 260 c 0,36,37
 207 361 207 361 200 390 c 0,38,39
 196 408 196 408 176 415 c 256,40,41
 156 422 156 422 113 427 c 0,42,43
 112 427 112 427 110 427.5 c 128,-1,44
 108 428 108 428 106.5 428 c 128,-1,45
 105 428 105 428 104 428 c 2,46,-1
 99 428 l 1,47,-1
 98 465 l 1,48,-1
 103 465 l 2,49,50
 215 465 215 465 298 474 c 2,51,-1
 301 474 l 1,0,-1
EndSplineSet
Validated: 19457
EndChar

StartChar: two
Encoding: 50 50 23
Width: 502
VWidth: 1000
Flags: W
HStem: -4 82<181.001 191.875 223.34 463> -4 74<181.001 436.621> 410 69<198.41 304>
VStem: 304 86<300.557 386.368>
LayerCount: 2
Fore
SplineSet
476 78 m 1,0,-1
 491 69 l 1,1,-1
 463 -4 l 1,2,-1
 57 -4 l 1,3,-1
 54 19 l 1,4,-1
 156 115 l 2,5,6
 304 255 304 255 304 333 c 0,7,8
 304 364 304 364 281 387 c 128,-1,9
 258 410 258 410 226 410 c 0,10,11
 197 410 197 410 117 363 c 2,12,-1
 112 360 l 1,13,-1
 98 386 l 1,14,-1
 101 389 l 2,15,16
 205 479 205 479 282 479 c 0,17,18
 326 479 326 479 358 447 c 128,-1,19
 390 415 390 415 390 372 c 0,20,21
 390 285 390 285 200 91 c 2,22,-1
 184 74 l 2,23,24
 182 72 182 72 181 72 c 0,25,26
 181 71 181 71 184 71 c 0,27,28
 188 70 188 70 192 70 c 0,29,30
 450 78 450 78 475 78 c 2,31,-1
 476 78 l 1,0,-1
EndSplineSet
Validated: 19457
EndChar

StartChar: three
Encoding: 51 51 24
Width: 502
VWidth: 1000
Flags: W
HStem: -187 43<83.7113 253.234> 165 44<123 221.208> 417 62<184.526 271.429>
VStem: 301 89<293.669 387.043> 333 102<-53.8627 112.688>
LayerCount: 2
Fore
SplineSet
254 208 m 1,0,1
 330 207 330 207 381 164 c 0,2,3
 435 119 435 119 435 42 c 0,4,5
 435 -56 435 -56 358 -122 c 0,6,7
 281 -187 281 -187 181 -187 c 0,8,9
 109 -187 109 -187 36 -145 c 2,10,-1
 31 -143 l 1,11,-1
 52 -107 l 1,12,-1
 56 -110 l 2,13,14
 121 -144 121 -144 169 -144 c 0,15,16
 246 -144 246 -144 289 -94 c 0,17,18
 333 -43 333 -43 333 29 c 0,19,20
 333 95 333 95 296 131 c 0,21,22
 261 166 261 166 159 166 c 0,23,24
 154 166 154 166 144 166 c 0,25,26
 133 165 133 165 128 165 c 2,27,-1
 123 165 l 1,28,-1
 123 209 l 1,29,-1
 128 209 l 2,30,31
 158 211 158 211 186 218.5 c 128,-1,32
 214 226 214 226 242 239 c 0,33,34
 269 252 269 252 285 274 c 256,35,36
 301 296 301 296 301 326 c 0,37,38
 301 365 301 365 275.5 391 c 128,-1,39
 250 417 250 417 209 417 c 0,40,41
 180 417 180 417 131 381 c 2,42,-1
 128 379 l 1,43,-1
 104 395 l 1,44,-1
 109 400 l 2,45,46
 192 479 192 479 265 479 c 0,47,48
 317 479 317 479 353 449 c 0,49,50
 390 419 390 419 390 368 c 0,51,52
 390 268 390 268 254 208 c 1,0,1
EndSplineSet
Validated: 19457
EndChar

StartChar: four
Encoding: 52 52 25
Width: 502
VWidth: 1000
Flags: W
HStem: -6 52<87 301 392 478>
VStem: 294 100<-165 -9.82178> 294 96<-164.953 -6 46 360>
LayerCount: 2
Fore
SplineSet
381 481 m 1,0,-1
 390 476 l 1,1,-1
 390 473 l 2,2,3
 386 307 386 307 386 222 c 0,4,5
 386 138 386 138 389 45 c 1,6,7
 449 47 449 47 482 50 c 2,8,-1
 488 51 l 1,9,-1
 478 -6 l 1,10,-1
 392 -6 l 1,11,12
 392 -129 392 -129 394 -162 c 2,13,-1
 394 -165 l 1,14,-1
 310 -198 l 1,15,-1
 294 -185 l 1,16,-1
 294 -183 l 2,17,18
 301 -114 301 -114 301 -6 c 1,19,-1
 5 -6 l 1,20,-1
 5 24 l 1,21,-1
 296 455 l 1,22,-1
 381 481 l 1,0,-1
87 46 m 1,23,-1
 301 46 l 1,24,25
 301 281 301 281 294 360 c 1,26,-1
 289 360 l 1,27,28
 179 222 179 222 87 46 c 1,23,-1
EndSplineSet
Validated: 3073
EndChar

StartChar: five
Encoding: 53 53 26
Width: 502
VWidth: 1000
Flags: W
HStem: -189 40<61.2328 240.225> -164 36<52.6268 98.2656> 164 56<146.068 278.805> 373 90<128.095 401>
VStem: 76 50<193 370.969> 330 116<-56.3978 108.569>
LayerCount: 2
Fore
SplineSet
428 463 m 1,0,-1
 401 373 l 1,1,-1
 138 373 l 2,2,3
 131 373 131 373 128 371 c 0,4,5
 127 370 127 370 126 368 c 0,6,7
 126 367 126 367 126 366 c 2,8,-1
 126 193 l 1,9,-1
 130 191 l 1,10,11
 193 220 193 220 259 220 c 0,12,13
 339 220 339 220 392.5 171 c 128,-1,14
 446 122 446 122 446 42 c 0,15,16
 446 -37 446 -37 401 -91 c 128,-1,17
 356 -145 356 -145 293 -167 c 128,-1,18
 230 -189 230 -189 156 -189 c 0,19,20
 104 -189 104 -189 45 -164 c 2,21,-1
 40 -162 l 1,22,-1
 56 -128 l 1,23,-1
 61 -129 l 2,24,25
 112 -149 112 -149 156 -149 c 0,26,27
 232 -149 232 -149 281 -100 c 128,-1,28
 330 -51 330 -51 330 23 c 0,29,30
 330 83 330 83 298 123.5 c 128,-1,31
 266 164 266 164 206 164 c 0,32,33
 151 164 151 164 103 111 c 2,34,-1
 100 108 l 1,35,-1
 76 122 l 1,36,-1
 76 463 l 1,37,-1
 428 463 l 1,0,-1
EndSplineSet
Validated: 19457
EndChar

StartChar: six
Encoding: 54 54 27
Width: 502
VWidth: 1000
Flags: W
HStem: -18 49<211.222 333.225> 313 69<217.022 355> 636 69<313.839 452.264>
VStem: 40 94<310 384.963> 387 89<119.938 246.619>
LayerCount: 2
Fore
SplineSet
466 694 m 1,0,-1
 456 631 l 1,1,-1
 445 623 l 1,2,-1
 442 624 l 2,3,4
 414 636 414 636 384 636 c 0,5,6
 303 635 303 635 227 564 c 0,7,8
 137 480 137 480 134 310 c 1,9,-1
 135 310 l 1,10,11
 225 382 225 382 321 382 c 0,12,13
 389 382 389 382 432.5 331 c 128,-1,14
 476 280 476 280 476 211 c 0,15,16
 476 122 476 122 402 52 c 128,-1,17
 328 -18 328 -18 236 -18 c 0,18,19
 185 -18 185 -18 145 5.5 c 128,-1,20
 105 29 105 29 83 67.5 c 128,-1,21
 61 106 61 106 50.5 149 c 128,-1,22
 40 192 40 192 40 238 c 0,23,24
 40 335 40 335 74.5 424 c 128,-1,25
 109 513 109 513 175 579 c 1,26,27
 294 705 294 705 416 705 c 0,28,29
 436 705 436 705 462 695 c 2,30,-1
 466 694 l 1,0,-1
137 273 m 1,31,32
 155 31 155 31 272 31 c 0,33,34
 387 31 387 31 387 172 c 0,35,36
 387 230 387 230 344.5 271.5 c 128,-1,37
 302 313 302 313 246 313 c 0,38,39
 210 313 210 313 188 303.5 c 128,-1,40
 166 294 166 294 137 273 c 1,31,32
EndSplineSet
Validated: 19457
EndChar

StartChar: seven
Encoding: 55 55 28
Width: 502
VWidth: 1000
Flags: W
HStem: 377 96<87 354.938> 377 86<87.0625 388>
LayerCount: 2
Fore
SplineSet
297 463 m 2,0,-1
 503 463 l 1,1,-1
 503 440 l 1,2,-1
 502 439 l 2,3,4
 234 59 234 59 118 -183 c 2,5,-1
 116 -186 l 1,6,-1
 36 -186 l 1,7,-1
 32 -167 l 1,8,-1
 33 -165 l 2,9,10
 159 11 159 11 389 376 c 1,11,-1
 388 377 l 1,12,-1
 51 377 l 1,13,-1
 87 473 l 1,14,-1
 91 473 l 2,15,16
 176 463 176 463 297 463 c 2,0,-1
EndSplineSet
Validated: 19457
EndChar

StartChar: eight
Encoding: 56 56 29
Width: 502
VWidth: 1000
Flags: W
HStem: -15 41<192.477 324.747>
VStem: 35 93<96.1803 244.748> 84 85<500.869 610.453> 344 96<491.12 612.354> 370 96<106.233 239.202>
LayerCount: 2
Fore
SplineSet
220 338 m 1,0,1
 177 315 177 315 152.5 271.5 c 128,-1,2
 128 228 128 228 128 177 c 0,3,4
 128 121 128 121 165 73.5 c 128,-1,5
 202 26 202 26 255 26 c 0,6,7
 370 26 370 26 370 168 c 0,8,9
 370 188 370 188 362.5 207.5 c 128,-1,10
 355 227 355 227 348 239 c 128,-1,11
 341 251 341 251 320.5 268 c 128,-1,12
 300 285 300 285 291.5 291.5 c 128,-1,13
 283 298 283 298 268 307 c 2,14,-1
 220 338 l 1,0,1
425 302 m 0,15,16
 466 258 466 258 466 197 c 0,17,18
 466 106 466 106 393.5 45.5 c 128,-1,19
 321 -15 321 -15 219 -15 c 0,20,21
 140 -15 140 -15 87.5 31.5 c 128,-1,22
 35 78 35 78 35 157 c 0,23,24
 35 195 35 195 48.5 227 c 128,-1,25
 62 259 62 259 89.5 284.5 c 128,-1,26
 117 310 117 310 140 326 c 128,-1,27
 163 342 163 342 196 360 c 1,28,29
 84 437 84 437 84 530 c 0,30,31
 84 598 84 598 130 639 c 128,-1,32
 176 680 176 680 252 711 c 2,33,-1
 253 711 l 1,34,-1
 254 711 l 2,35,36
 440 698 440 698 440 568 c 0,37,38
 440 469 440 469 309 394 c 1,39,40
 401 327 401 327 425 302 c 0,15,16
283 416 m 1,41,42
 311 436 311 436 327.5 470 c 128,-1,43
 344 504 344 504 344 544 c 0,44,45
 344 593 344 593 311 624.5 c 128,-1,46
 278 656 278 656 236 672 c 1,47,48
 169 648 169 648 169 563 c 0,49,50
 169 493 169 493 283 416 c 1,41,42
EndSplineSet
Validated: 19457
EndChar

StartChar: nine
Encoding: 57 57 30
Width: 502
VWidth: 1000
Flags: W
HStem: -187 38<67 188.692> 29 70<181.867 281.628>
VStem: 22 99<170.718 339.64> 364 109<137.484 320.144>
LayerCount: 2
Fore
SplineSet
353 100 m 1,0,1
 266 29 266 29 204 29 c 1,2,3
 116 35 116 35 69 93.5 c 128,-1,4
 22 152 22 152 22 234 c 0,5,6
 22 328 22 328 74 381 c 0,7,8
 113 420 113 420 232 475 c 2,9,-1
 233 475 l 1,10,-1
 234 475 l 2,11,12
 303 469 303 469 333 459 c 0,13,14
 473 409 473 409 473 200 c 0,15,16
 473 31 473 31 357 -86 c 0,17,18
 256 -187 256 -187 72 -187 c 2,19,-1
 67 -187 l 1,20,-1
 67 -149 l 1,21,-1
 72 -149 l 2,22,23
 204 -149 204 -149 275 -77 c 0,24,25
 333 -19 333 -19 354 100 c 1,26,-1
 353 100 l 1,0,1
335 129 m 0,27,28
 364 158 364 158 364 204 c 0,29,30
 364 289 364 289 325.5 354 c 128,-1,31
 287 419 287 419 209 429 c 1,32,33
 167 409 167 409 144 363 c 128,-1,34
 121 317 121 317 121 264 c 0,35,36
 121 202 121 202 155 150.5 c 128,-1,37
 189 99 189 99 246 99 c 0,38,39
 305 99 305 99 335 129 c 0,27,28
EndSplineSet
Validated: 19457
EndChar

StartChar: colon
Encoding: 58 58 31
Width: 216
VWidth: 1000
Flags: W
HStem: -17 124<60.1938 154.217> 336 124<60.1938 154.217>
VStem: 45 124<-1.80615 91.8062 351.194 444.806>
LayerCount: 2
Fore
SplineSet
63.5 88.5 m 128,-1,1
 82 107 82 107 108 107 c 0,2,3
 133 107 133 107 151 88.5 c 128,-1,4
 169 70 169 70 169 45 c 128,-1,5
 169 20 169 20 151 1.5 c 128,-1,6
 133 -17 133 -17 108 -17 c 0,7,8
 82 -17 82 -17 63.5 1.5 c 128,-1,9
 45 20 45 20 45 45 c 128,-1,0
 45 70 45 70 63.5 88.5 c 128,-1,1
63.5 441.5 m 128,-1,11
 82 460 82 460 108 460 c 0,12,13
 133 460 133 460 151 441.5 c 128,-1,14
 169 423 169 423 169 398 c 128,-1,15
 169 373 169 373 151 354.5 c 128,-1,16
 133 336 133 336 108 336 c 0,17,18
 82 336 82 336 63.5 354.5 c 128,-1,19
 45 373 45 373 45 398 c 128,-1,10
 45 423 45 423 63.5 441.5 c 128,-1,11
EndSplineSet
Validated: 19457
EndChar

StartChar: semicolon
Encoding: 59 59 32
Width: 216
VWidth: 1000
Flags: W
HStem: 338 124<58.1938 152.217>
VStem: 43 124<353.194 446.806> 116 68<-95.6539 -13.5859>
LayerCount: 2
Fore
SplineSet
61.5 443.5 m 128,-1,1
 80 462 80 462 106 462 c 0,2,3
 131 462 131 462 149 443.5 c 128,-1,4
 167 425 167 425 167 400 c 128,-1,5
 167 375 167 375 149 356.5 c 128,-1,6
 131 338 131 338 106 338 c 0,7,8
 80 338 80 338 61.5 356.5 c 128,-1,9
 43 375 43 375 43 400 c 128,-1,0
 43 425 43 425 61.5 443.5 c 128,-1,1
90 -197 m 1,10,-1
 67 -178 l 1,11,-1
 70 -174 l 2,12,13
 116 -112 116 -112 116 -64 c 0,14,15
 116 -49 116 -49 104 -29 c 1,16,-1
 70 22 l 2,17,18
 60 37 60 37 60 51 c 0,19,20
 60 79 60 79 70 90 c 2,21,-1
 72 92 l 1,22,-1
 73 92 l 1,23,24
 89 104 89 104 108 104 c 0,25,26
 135 104 135 104 159.5 58 c 128,-1,27
 184 12 184 12 184 -22 c 0,28,29
 184 -51 184 -51 166.5 -86.5 c 128,-1,30
 149 -122 149 -122 143 -130 c 2,31,-1
 93 -193 l 1,32,-1
 90 -197 l 1,10,-1
EndSplineSet
Validated: 19457
EndChar

StartChar: equal
Encoding: 61 61 33
Width: 756
VWidth: 1000
Flags: W
HStem: 127 50<57 720> 324 50<57 720>
LayerCount: 2
Fore
SplineSet
720 324 m 1,0,-1
 48 324 l 1,1,-1
 57 374 l 1,2,-1
 728 374 l 1,3,-1
 720 324 l 1,0,-1
720 127 m 1,4,-1
 48 127 l 1,5,-1
 57 177 l 1,6,-1
 728 177 l 1,7,-1
 720 127 l 1,4,-1
EndSplineSet
Validated: 19457
EndChar

StartChar: question
Encoding: 63 63 34
Width: 362
VWidth: 1000
Flags: W
HStem: -16 124<115.783 209.806> 656 42<136.843 238.106>
VStem: 40 73<516.122 622.376> 93 71<228.534 301.617> 101 124<-0.806152 92.8062> 282 81<489.189 610.909>
LayerCount: 2
Fore
SplineSet
119 89.5 m 128,-1,1
 137 108 137 108 162 108 c 0,2,3
 188 108 188 108 206.5 89.5 c 128,-1,4
 225 71 225 71 225 46 c 128,-1,5
 225 21 225 21 206.5 2.5 c 128,-1,6
 188 -16 188 -16 162 -16 c 0,7,8
 137 -16 137 -16 119 2.5 c 128,-1,9
 101 21 101 21 101 46 c 128,-1,0
 101 71 101 71 119 89.5 c 128,-1,1
191 208 m 1,10,-1
 140 173 l 1,11,-1
 137 175 l 2,12,13
 93 202 93 202 93 250 c 0,14,15
 93 274 93 274 120 308 c 0,16,17
 142 336 142 336 157 350 c 2,18,-1
 210 402 l 2,19,20
 248 439 248 439 265 473 c 128,-1,21
 282 507 282 507 282 545 c 0,22,23
 282 584 282 584 253 620 c 128,-1,24
 224 656 224 656 189 656 c 0,25,26
 160 656 160 656 136.5 637.5 c 128,-1,27
 113 619 113 619 113 589 c 0,28,29
 113 555 113 555 143 532 c 2,30,-1
 149 527 l 1,31,-1
 72 482 l 1,32,-1
 70 484 l 2,33,34
 40 510 40 510 40 557 c 0,35,36
 40 618 40 618 101.5 658 c 128,-1,37
 163 698 163 698 229 698 c 0,38,39
 288 698 288 698 325.5 661 c 128,-1,40
 363 624 363 624 363 565 c 0,41,42
 363 526 363 526 332 473 c 0,43,44
 316 446 316 446 285.5 416 c 128,-1,45
 255 386 255 386 229 364.5 c 128,-1,46
 203 343 203 343 183.5 318 c 128,-1,47
 164 293 164 293 164 274 c 0,48,49
 164 245 164 245 189 226 c 2,50,-1
 191 225 l 1,51,-1
 191 208 l 1,10,-1
EndSplineSet
Validated: 19457
EndChar

StartChar: A
Encoding: 65 65 35
Width: 718
VWidth: 1000
Flags: W
HStem: 628 63<173.369 279.525>
VStem: 17 74<496.335 567.57> 107 79<325.956 398.5> 363 90<381.788 541.145> 496 90<138.535 603>
LayerCount: 2
Fore
SplineSet
234 159 m 1,0,1
 274 154 274 154 313 116 c 2,2,-1
 359 70 l 1,3,4
 379 77 379 77 496 152 c 1,5,-1
 496 474 l 2,6,7
 496 504 496 504 491 601 c 2,8,-1
 491 603 l 1,9,-1
 623 703 l 1,10,-1
 647 686 l 1,11,-1
 642 682 l 2,12,13
 608 653 608 653 601 641 c 0,14,15
 598 637 598 637 595 625.5 c 128,-1,16
 592 614 592 614 590 596 c 128,-1,17
 588 578 588 578 587 560.5 c 128,-1,18
 586 543 586 543 586 529 c 2,19,-1
 586 378 l 2,20,21
 586 285 586 285 591 197 c 0,22,23
 592 176 592 176 596 167 c 0,24,25
 626 88 626 88 642 81 c 0,26,-1
 643 81 l 0,27,28
 655 81 655 81 701 105 c 2,29,-1
 706 108 l 1,30,-1
 715 83 l 1,31,-1
 564 -34 l 1,32,-1
 561 -30 l 2,33,34
 529 21 529 21 499 115 c 1,35,-1
 298 -34 l 1,36,-1
 295 -30 l 2,37,38
 234 72 234 72 153 72 c 0,39,40
 112 72 112 72 51 33 c 2,41,-1
 48 31 l 1,42,-1
 23 48 l 1,43,-1
 141 137 l 1,44,-1
 165 155 l 2,45,46
 189 173 189 173 198.5 181 c 128,-1,47
 208 189 208 189 226.5 203 c 128,-1,48
 245 217 245 217 250 222 c 2,49,-1
 274 243 l 2,50,51
 293 260 293 260 302 270.5 c 128,-1,52
 311 281 311 281 321 294 c 0,53,54
 363 349 363 349 363 452 c 0,55,56
 363 524 363 524 315.5 576 c 128,-1,57
 268 628 268 628 197 628 c 0,58,59
 157 628 157 628 124 602.5 c 128,-1,60
 91 577 91 577 91 538 c 0,61,62
 91 525 91 525 105.5 506 c 128,-1,63
 120 487 120 487 137.5 471 c 128,-1,64
 155 455 155 455 170.5 432 c 128,-1,65
 186 409 186 409 186 388 c 0,66,67
 186 346 186 346 150.5 310 c 128,-1,68
 115 274 115 274 66 250 c 2,69,-1
 64 249 l 1,70,-1
 39 266 l 1,71,-1
 46 270 l 2,72,73
 107 305 107 305 107 346 c 0,74,75
 107 356 107 356 97 370 c 128,-1,76
 87 384 87 384 64 409 c 128,-1,77
 41 434 41 434 29 456 c 128,-1,78
 17 478 17 478 17 506 c 0,79,80
 17 526 17 526 27 546 c 128,-1,81
 37 566 37 566 47 577.5 c 128,-1,82
 57 589 57 589 75 608 c 0,83,84
 101 634 101 634 159.5 662.5 c 128,-1,85
 218 691 218 691 272 691 c 0,86,87
 347 691 347 691 400 640.5 c 128,-1,88
 453 590 453 590 453 516 c 0,89,90
 453 416 453 416 404 317 c 2,91,-1
 404 316 l 1,92,-1
 403 315 l 1,93,-1
 234 159 l 1,0,1
EndSplineSet
Validated: 19457
EndChar

StartChar: B
Encoding: 66 66 36
Width: 884
VWidth: 1000
Flags: W
HStem: -32 74<513.065 612.564> -7 21G<94.6667 111> 623 73<185.74 304.5 547.605 651.5>
VStem: 44 80<501.396 572.993> 129 84<327.041 402.5> 369 94<240.525 330.531 357 521.647> 709 95<121.784 254.579>
LayerCount: 2
Fore
SplineSet
383 5.5 m 128,-1,1
 286 43 286 43 251 43 c 0,2,3
 187 43 187 43 111 -4 c 2,4,-1
 106 -7 l 1,5,-1
 89 23 l 1,6,-1
 217 98 l 2,7,8
 354 178 354 178 362 252 c 0,9,10
 369 323 369 323 369 402 c 0,11,12
 369 510 369 510 320 566.5 c 128,-1,13
 271 623 271 623 216 623 c 0,14,15
 173 623 173 623 148.5 602.5 c 128,-1,16
 124 582 124 582 124 541 c 0,17,18
 124 528 124 528 168.5 472 c 128,-1,19
 213 416 213 416 213 389 c 0,20,21
 213 312 213 312 87 251 c 2,22,-1
 84 249 l 1,23,-1
 61 267 l 1,24,-1
 68 270 l 2,25,26
 91 283 91 283 110 304.5 c 128,-1,27
 129 326 129 326 129 347 c 0,28,29
 129 356 129 356 108.5 381.5 c 128,-1,30
 88 407 88 407 66 442 c 128,-1,31
 44 477 44 477 44 507 c 0,32,33
 44 556 44 556 96 609 c 0,34,35
 183 696 183 696 283 696 c 0,36,37
 326 696 326 696 366 663 c 128,-1,38
 406 630 406 630 428 588 c 1,39,40
 529 691 529 691 629 691 c 0,41,42
 674 691 674 691 697 669 c 0,43,44
 709 657 709 657 716 614.5 c 128,-1,45
 723 572 723 572 734.5 541 c 128,-1,46
 746 510 746 510 771 510 c 1,47,48
 791 513 791 513 813 521 c 2,49,-1
 820 523 l 1,50,-1
 820 491 l 1,51,-1
 794 481 l 2,52,53
 772 473 772 473 762.5 468.5 c 128,-1,54
 753 464 753 464 739.5 457 c 128,-1,55
 726 450 726 450 715 442 c 2,56,-1
 638 388 l 1,57,58
 710 384 710 384 757 340.5 c 128,-1,59
 804 297 804 297 804 224 c 0,60,61
 804 178 804 178 782 121 c 2,62,-1
 781 120 l 1,63,-1
 780 119 l 2,64,65
 677 32 677 32 629 0 c 128,-1,66
 581 -32 581 -32 538 -32 c 0,67,0
 480 -32 480 -32 383 5.5 c 128,-1,1
461 357 m 1,68,-1
 480 364 l 1,69,-1
 523 379 l 2,70,71
 548 388 548 388 571.5 398 c 128,-1,72
 595 408 595 408 608 414.5 c 128,-1,73
 621 421 621 421 630 427 c 2,74,-1
 675 455 l 1,75,76
 651 474 651 474 641 539 c 0,77,78
 634 588 634 588 617 608.5 c 128,-1,79
 600 629 600 629 570 629 c 0,80,81
 487 629 487 629 453 523 c 1,82,83
 463 480 463 480 463 399 c 0,84,85
 463 381 463 381 461 357 c 1,68,-1
425 205 m 2,86,-1
 425 204 l 1,87,-1
 318 121 l 1,88,89
 375 117 375 117 471.5 79.5 c 128,-1,90
 568 42 568 42 602 42 c 0,91,92
 651 42 651 42 680 83 c 128,-1,93
 709 124 709 124 709 175 c 0,94,95
 709 245 709 245 656 290.5 c 128,-1,96
 603 336 603 336 533 336 c 0,97,98
 493 336 493 336 459 322 c 1,99,100
 452 257 452 257 425 205 c 2,86,-1
EndSplineSet
Validated: 19457
EndChar

StartChar: C
Encoding: 67 67 37
Width: 613
VWidth: 1000
Flags: W
HStem: -29 80<321.27 470.33> -21 72<377.435 460> 522 65<538.531 571.68> 672 20G<504 516.059>
VStem: 54 90<226.206 450.021> 269 103<463.051 559> 299 106<318.865 476.717>
LayerCount: 2
Fore
SplineSet
299 591 m 1,0,1
 368 640 368 640 504 691 c 2,2,-1
 509 692 l 1,3,-1
 539 607 l 2,4,5
 543 599 543 599 544.5 596 c 128,-1,6
 546 593 546 593 550.5 590 c 128,-1,7
 555 587 555 587 563 587 c 0,8,9
 585 587 585 587 611 596 c 2,10,-1
 618 598 l 1,11,-1
 618 565 l 1,12,-1
 615 563 l 2,13,14
 541 528 541 528 497 522 c 2,15,-1
 495 522 l 1,16,-1
 493 523 l 2,17,18
 465 539 465 539 414 622 c 1,19,20
 398 616 398 616 387.5 602 c 128,-1,21
 377 588 377 588 374.5 578 c 128,-1,22
 372 568 372 568 372 560 c 0,23,24
 372 533 372 533 385 494 c 0,25,26
 405 432 405 432 405 399 c 0,27,28
 405 347 405 347 377 310.5 c 128,-1,29
 349 274 349 274 311.5 257.5 c 128,-1,30
 274 241 274 241 227 234 c 2,31,-1
 224 234 l 1,32,-1
 205 258 l 1,33,-1
 213 260 l 2,34,35
 253 270 253 270 284 302 c 0,36,37
 299 317 299 317 299 367 c 0,38,39
 299 385 299 385 284 445 c 128,-1,40
 269 505 269 505 269 534 c 0,41,42
 269 546 269 546 271 559 c 1,43,44
 228 556 228 556 197.5 524 c 128,-1,45
 167 492 167 492 155.5 450.5 c 128,-1,46
 144 409 144 409 144 362 c 0,47,48
 144 216 144 216 223 137 c 0,49,50
 308 51 308 51 444 51 c 0,51,52
 489 51 489 51 514 63 c 1,53,-1
 607 114 l 1,54,-1
 607 84 l 1,55,-1
 605 82 l 2,56,57
 557 42 557 42 461 -20 c 2,58,-1
 460 -21 l 1,59,-1
 459 -21 l 2,60,61
 422 -29 422 -29 376 -29 c 0,62,63
 226 -29 226 -29 134 61 c 0,64,65
 54 141 54 141 54 319 c 0,66,67
 54 415 54 415 98 502 c 2,68,-1
 98 503 l 1,69,-1
 99 504 l 2,70,71
 186 571 186 571 265 606 c 2,72,-1
 267 607 l 1,73,-1
 299 591 l 1,0,1
EndSplineSet
Validated: 19457
EndChar

StartChar: D
Encoding: 68 68 38
Width: 832
VWidth: 1000
Flags: W
HStem: -32 85<435.15 526.183> 59 79<137 241.93> 607 88<237.764 490.878>
VStem: 22 31<375 449.095> 208 96<381.5 456.26> 294 100<215.385 289.063> 666 85<249.665 448.564>
LayerCount: 2
Fore
SplineSet
368 565 m 1,0,-1
 393 548 l 1,1,-1
 387 544 l 2,2,3
 360 526 360 526 332 495.5 c 128,-1,4
 304 465 304 465 304 442 c 0,5,6
 304 425 304 425 349 364.5 c 128,-1,7
 394 304 394 304 394 277 c 0,8,9
 394 195 394 195 257 133 c 1,10,11
 308 121 308 121 377 96 c 0,12,13
 495 53 495 53 512.5 53 c 128,-1,14
 530 53 530 53 545 58 c 128,-1,15
 560 63 560 63 568 66.5 c 128,-1,16
 576 70 576 70 589 85.5 c 128,-1,17
 602 101 602 101 604 104 c 2,18,-1
 625 136 l 2,19,20
 666 199 666 199 666 325 c 128,-1,21
 666 451 666 451 598 518 c 0,22,23
 509 607 509 607 346 607 c 0,24,25
 193 607 193 607 119 532 c 0,26,27
 58 471 58 471 53 367 c 2,28,-1
 53 359 l 1,29,-1
 22 375 l 1,30,-1
 22 378 l 2,31,32
 22 511 22 511 108 597 c 0,33,34
 156 645 156 645 228 670 c 128,-1,35
 300 695 300 695 373 695 c 0,36,37
 481 695 481 695 553 675 c 0,38,39
 638 651 638 651 694.5 576 c 128,-1,40
 751 501 751 501 751 410 c 0,41,42
 751 290 751 290 696 145 c 2,43,-1
 695 144 l 1,44,45
 534 -32 534 -32 469 -32 c 0,46,47
 444 -32 444 -32 355 3 c 0,48,49
 215 59 215 59 155 59 c 0,50,51
 102 59 102 59 52 -19 c 2,52,-1
 49 -24 l 1,53,-1
 26 -1 l 1,54,-1
 28 2 l 2,55,56
 66 78 66 78 136 137 c 2,57,-1
 137 138 l 1,58,-1
 139 138 l 2,59,60
 196 138 196 138 245 162 c 128,-1,61
 294 186 294 186 294 229 c 0,62,63
 294 264 294 264 263 300 c 0,64,65
 251 314 251 314 229.5 344.5 c 128,-1,66
 208 375 208 375 208 388 c 0,67,68
 208 481 208 481 366 563 c 2,69,-1
 368 565 l 1,0,-1
EndSplineSet
Validated: 19457
EndChar

StartChar: E
Encoding: 69 69 39
Width: 663
VWidth: 1000
Flags: W
HStem: -29 80<348.08 497.251> -21 72<404.251 487> 522 65<575.643 598.625> 672 20G<531 543.059>
VStem: 81 89<225.759 453.158> 295 104<460.821 559> 327 104<378 464.031>
LayerCount: 2
Fore
SplineSet
325 591 m 1,0,1
 395 640 395 640 531 691 c 2,2,-1
 536 692 l 1,3,-1
 566 607 l 1,4,5
 571 595 571 595 575.5 591 c 128,-1,6
 580 587 580 587 593 587 c 0,7,8
 616 587 616 587 639 595 c 2,9,-1
 646 597 l 1,10,-1
 646 565 l 1,11,-1
 643 563 l 2,12,13
 567 528 567 528 523 522 c 2,14,-1
 521 522 l 1,15,-1
 520 523 l 2,16,17
 493 538 493 538 441 621 c 1,18,19
 427 615 427 615 413.5 598.5 c 128,-1,20
 400 582 400 582 399 566 c 0,21,22
 399 564 399 564 399 561 c 0,23,24
 399 535 399 535 408 508 c 0,25,26
 430 442 430 442 431 378 c 1,27,-1
 529 438 l 1,28,-1
 532 434 l 2,29,30
 564 389 564 389 608 360 c 2,31,-1
 610 359 l 1,32,-1
 610 344 l 1,33,-1
 538 303 l 1,34,-1
 476 347 l 2,35,36
 469 351 469 351 464 351 c 0,37,38
 446 351 446 351 430 338 c 1,39,40
 406 236 406 236 252 213 c 2,41,-1
 249 213 l 1,42,-1
 225 237 l 1,43,-1
 234 239 l 2,44,45
 267 245 267 245 312 275 c 1,46,47
 327 293 327 293 327 344 c 0,48,49
 327 375 327 375 311 438 c 128,-1,50
 295 501 295 501 295 532 c 0,51,52
 295 546 295 546 298 559 c 1,53,54
 255 556 255 556 224 524 c 128,-1,55
 193 492 193 492 181.5 450.5 c 128,-1,56
 170 409 170 409 170 362 c 0,57,58
 170 215 170 215 249 137 c 0,59,60
 335 51 335 51 471 51 c 0,61,62
 531 51 531 51 626 110 c 2,63,-1
 634 115 l 1,64,-1
 634 84 l 1,65,-1
 632 82 l 2,66,67
 578 38 578 38 488 -20 c 2,68,-1
 487 -21 l 1,69,-1
 486 -21 l 2,70,71
 443 -29 443 -29 403 -29 c 0,72,73
 252 -29 252 -29 166 56 c 0,74,75
 81 141 81 141 81 319 c 0,76,77
 81 414 81 414 123 502 c 2,78,-1
 124 503 l 1,79,-1
 125 504 l 2,80,81
 216 573 216 573 291 606 c 2,82,-1
 293 607 l 1,83,-1
 325 591 l 1,0,1
EndSplineSet
Validated: 19457
EndChar

StartChar: F
Encoding: 70 70 40
Width: 611
VWidth: 1000
Flags: W
HStem: -160 45<188 327.668> 157 67<63.8546 156> 455 21G<54 80> 495 90<458.124 532.629> 612 79<162.352 283.344>
VStem: 98 86<-74.9731 91.4338> 105 93<-0.886169 155.285> 230 84<350.947 434.722> 400 90<-15.7034 105.214>
LayerCount: 2
Fore
SplineSet
369 301 m 1,0,-1
 490 417 l 1,1,-1
 494 413 l 2,2,3
 536 370 536 370 549 332 c 2,4,-1
 550 329 l 1,5,-1
 501 262 l 1,6,-1
 497 268 l 2,7,8
 473 309 473 309 448 309 c 0,9,10
 429 309 429 309 384 273 c 1,11,-1
 468 165 l 1,12,13
 490 134 490 134 490 74 c 0,14,15
 490 -21 490 -21 405 -90.5 c 128,-1,16
 320 -160 320 -160 219 -160 c 0,17,18
 157 -160 157 -160 127.5 -114.5 c 128,-1,19
 98 -69 98 -69 98 -8 c 0,20,21
 98 8 98 8 101.5 41 c 128,-1,22
 105 74 105 74 105 92 c 0,23,24
 105 124 105 124 99 138 c 128,-1,25
 93 152 93 152 89 155 c 1,26,27
 84 157 84 157 75 157 c 0,28,29
 50 157 50 157 18 140 c 2,30,-1
 13 136 l 1,31,-1
 5 167 l 1,32,-1
 8 169 l 2,33,34
 89 224 89 224 142 224 c 0,35,36
 170 224 170 224 184 196 c 128,-1,37
 198 168 198 168 198 134 c 0,38,39
 198 113 198 113 191 70.5 c 128,-1,40
 184 28 184 28 184 5 c 0,41,42
 184 -53 184 -53 212 -82 c 0,43,44
 244 -115 244 -115 272 -115 c 0,45,46
 331 -115 331 -115 365.5 -69.5 c 128,-1,47
 400 -24 400 -24 400 37 c 0,48,49
 400 59 400 59 383 94.5 c 128,-1,50
 366 130 366 130 359 140 c 2,51,-1
 311 210 l 1,52,-1
 304 219 l 1,53,-1
 291 238 l 1,54,-1
 273 264 l 2,55,56
 262 280 262 280 258 288 c 128,-1,57
 254 296 254 296 247.5 308 c 128,-1,58
 241 320 241 320 238 329 c 128,-1,59
 235 338 235 338 232.5 348 c 128,-1,60
 230 358 230 358 230 367 c 0,61,62
 230 416 230 416 274 462 c 128,-1,63
 318 508 318 508 374 543 c 1,64,65
 258 612 258 612 197 612 c 0,66,67
 111 612 111 612 80 462 c 2,68,-1
 78 455 l 1,69,-1
 54 472 l 1,70,-1
 54 474 l 2,71,72
 63 566 63 566 114.5 628.5 c 128,-1,73
 166 691 166 691 256 691 c 0,74,75
 297 691 297 691 324 677 c 2,76,-1
 424 624 l 2,77,78
 498 585 498 585 528 585 c 0,79,80
 552 585 552 585 608 646 c 2,81,-1
 613 651 l 1,82,-1
 627 629 l 1,83,-1
 625 626 l 2,84,85
 559 536 559 536 526 512 c 0,86,87
 503 495 503 495 485 495 c 0,88,89
 452 495 452 495 411 520 c 1,90,91
 368 506 368 506 341 479 c 128,-1,92
 314 452 314 452 314 415 c 0,93,94
 314 375 314 375 369 301 c 1,0,-1
EndSplineSet
Validated: 19457
EndChar

StartChar: G
Encoding: 71 71 41
Width: 785
VWidth: 1000
Flags: W
HStem: -30 74<321.998 471.338> 397 63<511 537.939>
VStem: 61 90<226.914 470.021> 276 102<435.392 563.688> 306 101<289.062 395.671> 619 97<195.406 324.352>
LayerCount: 2
Fore
SplineSet
511 459 m 1,0,1
 527 460 527 460 541 460 c 0,2,3
 612 460 612 460 658 422 c 0,4,5
 716 374 716 374 716 303 c 0,6,7
 716 185 716 185 622 93 c 0,8,-1
 621 92 l 1,9,-1
 466 -12 l 1,10,11
 417 -30 417 -30 381 -30 c 0,12,13
 315 -30 315 -30 250.5 -6.5 c 128,-1,14
 186 17 186 17 146 56 c 0,15,16
 61 141 61 141 61 319 c 0,17,18
 61 460 61 460 105 504 c 2,19,20
 106 505 l 1,21,-1
 107 506 l 2,22,23
 144 543 144 543 270 606 c 2,24,-1
 272 607 l 1,25,-1
 304 591 l 1,26,-1
 417 667 l 1,27,-1
 433 649 l 1,28,-1
 429 645 l 2,29,30
 378 594 378 594 378 559 c 0,31,32
 378 531 378 531 402 429 c 1,33,-1
 447 453 l 1,34,35
 506 492 506 492 548 533 c 1,36,37
 521 544 521 544 485 571 c 128,-1,38
 449 598 449 598 449 627 c 2,39,-1
 449 630 l 1,40,-1
 524 700 l 1,41,-1
 526 694 l 2,42,43
 535 668 535 668 569 636 c 0,44,45
 595 612 595 612 623 612 c 0,46,47
 639 612 639 612 664 633 c 2,48,-1
 671 639 l 1,49,-1
 677 604 l 1,50,-1
 511 459 l 1,0,1
236 208 m 2,51,-1
 233 208 l 1,52,-1
 209 232 l 1,53,-1
 218 234 l 2,54,55
 255 243 255 243 280.5 274.5 c 128,-1,56
 306 306 306 306 306 348 c 0,57,58
 306 382 306 382 291 443 c 128,-1,59
 276 504 276 504 276 533 c 0,60,61
 276 545 276 545 278 558 c 1,62,63
 236 554 236 554 205.5 524 c 128,-1,64
 175 494 175 494 163 453.5 c 128,-1,65
 151 413 151 413 151 367 c 0,66,67
 151 213 151 213 233 132 c 0,68,69
 321 44 321 44 415 44 c 0,70,71
 500 44 500 44 552 87 c 0,72,73
 619 142 619 142 619 255 c 0,74,75
 619 315 619 315 566.5 356 c 128,-1,76
 514 397 514 397 452 397 c 0,77,78
 430 397 430 397 407 392 c 1,79,80
 406 305 406 305 369 267 c 0,81,82
 323 222 323 222 236 208 c 2,51,-1
EndSplineSet
Validated: 3073
EndChar

StartChar: H
Encoding: 72 72 42
Width: 720
VWidth: 1000
Flags: W
HStem: -138 63<398.239 487.488> -12 10G<-13.1429 8 156 162> 31 90<57.7018 120.83> 399 74<436 493.678> 533 79<370.913 451.177>
VStem: 118 91<398.951 501.741> 219 80<116.399 211.535> 554 96<41.5459 325.672>
LayerCount: 2
Fore
SplineSet
361 -107 m 1,0,-1
 417 -33 l 1,1,-1
 420 -41 l 2,2,3
 437 -75 437 -75 474 -75 c 0,4,5
 492 -75 492 -75 506.5 -64.5 c 128,-1,6
 521 -54 521 -54 529.5 -31 c 128,-1,7
 538 -8 538 -8 543.5 13.5 c 128,-1,8
 549 35 549 35 551 71 c 128,-1,9
 553 107 553 107 553.5 126.5 c 128,-1,10
 554 146 554 146 554 182 c 2,11,-1
 554 191 l 2,12,13
 554 399 554 399 421 399 c 0,14,15
 350 399 350 399 272 306 c 1,16,17
 299 238 299 238 299 185 c 0,18,19
 299 146 299 146 288 131 c 0,20,21
 260 93 260 93 218 42 c 128,-1,22
 176 -9 176 -9 162 -20 c 2,23,24
 159 -23 l 1,25,-1
 156 -20 l 2,26,27
 101 31 101 31 70 31 c 0,28,29
 43 31 43 31 8 -7 c 2,30,-1
 4 -12 l 1,31,-1
 -14 9 l 1,32,-1
 -12 12 l 2,33,34
 12 56 12 56 46 88.5 c 128,-1,35
 80 121 80 121 111 121 c 0,36,37
 155 121 155 121 200 70 c 1,38,39
 217 94 217 94 219 131 c 1,40,41
 219 171 219 171 168.5 274 c 128,-1,42
 118 377 118 377 118 431 c 0,43,44
 118 532 118 532 317 671 c 2,45,-1
 321 674 l 1,46,-1
 324 671 l 2,47,48
 383 612 383 612 448 612 c 0,49,50
 453 612 453 612 457.5 613.5 c 128,-1,51
 462 615 462 615 466 616 c 128,-1,52
 470 617 470 617 477 622.5 c 128,-1,53
 484 628 484 628 487 630 c 2,54,-1
 499 640 l 1,55,-1
 535 668 l 1,56,-1
 554 646 l 1,57,-1
 550 642 l 2,58,59
 438 533 438 533 405 533 c 0,60,61
 355 533 355 533 254 584 c 1,62,63
 209 537 209 537 209 479 c 0,64,65
 209 441 209 441 257 339 c 1,66,67
 329 412 329 412 435 472 c 2,68,-1
 436 473 l 1,69,-1
 437 473 l 2,70,71
 549 473 549 473 621 419 c 2,72,-1
 622 418 l 1,73,-1
 623 416 l 2,74,75
 650 319 650 319 650 239 c 0,76,77
 650 79 650 79 607 -18 c 2,78,-1
 606 -19 l 1,79,-1
 605 -20 l 2,80,81
 477 -138 477 -138 437 -138 c 0,82,83
 392 -138 392 -138 364 -111 c 2,84,-1
 361 -107 l 1,0,-1
EndSplineSet
Validated: 19457
EndChar

StartChar: I
Encoding: 73 73 43
Width: 554
VWidth: 1000
Flags: W
HStem: -32 55<170.5 297.074> 596 95<138.699 280.978>
VStem: 22 28<460.313 469> 355 99<246.071 465> 373 96<125.677 445.335>
LayerCount: 2
Fore
SplineSet
523 679 m 1,0,-1
 540 654 l 1,1,-1
 536 651 l 2,2,3
 462 582 462 582 380 539 c 2,4,-1
 378 538 l 1,5,-1
 354 547 l 1,6,-1
 302 566 l 2,7,8
 273 577 273 577 253 583.5 c 128,-1,9
 233 590 233 590 218.5 593 c 128,-1,10
 204 596 204 596 192 596 c 0,11,12
 101 596 101 596 50 454 c 2,13,-1
 48 448 l 1,14,-1
 22 465 l 1,15,-1
 23 469 l 2,16,17
 66 585 66 585 106 638 c 128,-1,18
 146 691 146 691 214 691 c 0,19,20
 259 691 259 691 370 638 c 0,21,22
 402 622 402 622 421 622 c 0,23,24
 461 622 461 622 519 675 c 2,25,-1
 523 679 l 1,0,-1
40 -24 m 1,26,-1
 32 1 l 1,27,-1
 34 3 l 2,28,29
 48 23 48 23 75.5 54 c 128,-1,30
 103 85 103 85 114 96 c 2,31,-1
 153 137 l 1,32,-1
 157 130 l 2,33,34
 188 64 188 64 201 51 c 0,35,36
 229 23 229 23 266 23 c 0,37,38
 295 23 295 23 317 40 c 128,-1,39
 339 57 339 57 350.5 85 c 128,-1,40
 362 113 362 113 367.5 143.5 c 128,-1,41
 373 174 373 174 373 207 c 0,42,43
 373 255 373 255 364 328 c 128,-1,44
 355 401 355 401 355 429 c 0,45,46
 355 441 355 441 357 463 c 2,47,-1
 357 465 l 1,48,-1
 358 466 l 2,49,50
 430 547 430 547 499 589 c 2,51,-1
 502 591 l 1,52,-1
 522 579 l 1,53,-1
 517 574 l 2,54,55
 454 516 454 516 454 464 c 0,56,57
 454 418 454 418 461.5 348.5 c 128,-1,58
 469 279 469 279 469 245 c 0,59,60
 469 131 469 131 409 70 c 0,61,62
 307 -32 307 -32 192 -32 c 0,63,64
 149 -32 149 -32 96 15 c 1,65,-1
 40 -24 l 1,26,-1
EndSplineSet
Validated: 19457
EndChar

StartChar: J
Encoding: 74 74 44
Width: 552
VWidth: 1000
Flags: W
HStem: -144 46<221.034 329.687> 75 74<50.153 139> 511 74<367 414.805> 597 94<158.42 252.625>
VStem: 48 25<499.325 508> 324 97<222.748 390> 379 84<-8.0332 178.644>
LayerCount: 2
Fore
SplineSet
71 489 m 1,0,-1
 48 504 l 1,1,-1
 49 508 l 2,2,3
 77 580 77 580 123 635.5 c 128,-1,4
 169 691 169 691 224 691 c 0,5,6
 256 691 256 691 274 677 c 2,7,-1
 343 624 l 2,8,9
 394 585 394 585 421 585 c 0,10,11
 457 585 457 585 520 616 c 2,12,-1
 527 620 l 1,13,-1
 527 588 l 1,14,-1
 524 587 l 2,15,16
 405 525 405 525 364 511 c 2,17,-1
 362 511 l 1,18,-1
 361 511 l 2,19,20
 331 517 331 517 278 557 c 128,-1,21
 225 597 225 597 192 597 c 0,22,23
 153 597 153 597 126 569 c 128,-1,24
 99 541 99 541 73 494 c 2,25,-1
 71 489 l 1,0,-1
-15 52 m 1,26,-1
 -24 75 l 1,27,-1
 -21 77 l 2,28,29
 66 149 66 149 118 149 c 0,30,31
 160 149 160 149 173 123.5 c 128,-1,32
 186 98 186 98 186 53 c 0,33,34
 186 -98 186 -98 277 -98 c 0,35,36
 326 -98 326 -98 352.5 -58 c 128,-1,37
 379 -18 379 -18 379 37 c 0,38,39
 379 93 379 93 351.5 200 c 128,-1,40
 324 307 324 307 324 359 c 0,41,42
 324 370 324 370 326 389 c 2,43,-1
 326 390 l 1,44,-1
 327 391 l 2,45,46
 383 470 383 470 466 536 c 2,47,-1
 469 538 l 1,48,-1
 493 523 l 1,49,-1
 489 518 l 2,50,51
 454 483 454 483 437.5 455 c 128,-1,52
 421 427 421 427 421 383 c 0,53,54
 421 336 421 336 442 222.5 c 128,-1,55
 463 109 463 109 463 85 c 0,56,57
 463 -2 463 -2 393.5 -73 c 128,-1,58
 324 -144 324 -144 240 -144 c 0,59,60
 168 -144 168 -144 135 -111 c 0,61,62
 108 -83 108 -83 102 -23 c 0,63,64
 98 12 98 12 94 31 c 128,-1,65
 90 50 90 50 80.5 62.5 c 128,-1,66
 71 75 71 75 54 75 c 0,67,68
 19 75 19 75 -10 56 c 2,69,-1
 -15 52 l 1,26,-1
EndSplineSet
Validated: 19457
EndChar

StartChar: K
Encoding: 75 75 45
Width: 668
VWidth: 1000
Flags: W
HStem: -32 90<532.951 615.246> -30 71<111.096 156.5> 431 74<395.042 481> 629 57<356.466 509.444>
VStem: 155 91<378.797 493.24> 214 74<126 210.797> 581 43<496.031 565.559>
LayerCount: 2
Fore
SplineSet
484 274 m 1,0,1
 503 270 503 270 515 259 c 256,2,3
 527 248 527 248 537 210 c 0,4,5
 547 175 547 175 553 141 c 0,6,7
 559 108 559 108 576 83 c 0,8,9
 591 58 591 58 613 58 c 0,10,11
 653 58 653 58 684 81 c 2,12,-1
 691 86 l 1,13,-1
 695 58 l 1,14,-1
 694 56 l 2,15,16
 606 -32 606 -32 554 -32 c 0,17,18
 488 -32 488 -32 474 84 c 0,19,20
 470 119 470 119 467 132 c 0,21,22
 463 151 463 151 456 171 c 0,23,24
 449 190 449 190 439.5 200.5 c 128,-1,25
 430 211 430 211 414.5 217.5 c 128,-1,26
 399 224 399 224 378 224 c 0,27,28
 337 224 337 224 293 204 c 1,29,30
 293 159 293 159 288 127 c 2,31,-1
 288 126 l 1,32,-1
 287 125 l 2,33,34
 206 2 206 2 109 -30 c 2,35,-1
 108 -30 l 1,36,-1
 107 -30 l 2,37,38
 51 -26 51 -26 12 29 c 2,39,-1
 10 32 l 1,40,-1
 71 103 l 1,41,-1
 86 103 l 1,42,-1
 88 100 l 2,43,44
 116 41 116 41 152 41 c 0,45,46
 173 41 173 41 185.5 49 c 128,-1,47
 198 57 198 57 204 73 c 0,48,49
 210 90 210 90 212 106 c 256,50,51
 214 122 214 122 214 144 c 0,52,53
 214 196 214 196 185 294 c 0,54,55
 155 393 155 393 155 427 c 0,56,57
 155 443 155 443 161 459 c 0,58,59
 202 560 202 560 284 622 c 0,60,61
 367 686 367 686 469 686 c 0,62,63
 501 686 501 686 534 679 c 0,64,65
 568 672 568 672 595 651 c 0,66,67
 624 630 624 630 624 599 c 0,68,69
 624 553 624 553 607 498 c 2,70,-1
 606 496 l 1,71,-1
 581 488 l 1,72,-1
 581 495 l 2,73,74
 581 560 581 560 531 594 c 0,75,76
 480 629 480 629 410 629 c 0,77,78
 341 629 341 629 293 591 c 0,79,80
 246 553 246 553 246 490 c 0,81,82
 246 434 246 434 263 377 c 1,83,84
 387 505 387 505 469 505 c 0,85,86
 493 505 493 505 511 489 c 0,87,88
 529 474 529 474 537 458 c 0,89,90
 544 444 544 444 556 411 c 0,91,92
 574 364 574 364 607 364 c 0,93,94
 617 364 617 364 626 368 c 2,95,-1
 631 371 l 1,96,-1
 640 345 l 1,97,-1
 484 274 l 1,0,1
293 237 m 1,98,99
 356 265 356 265 407 275 c 1,100,101
 459 295 459 295 499 315 c 1,102,103
 479 333 479 333 464 382 c 0,104,105
 457 405 457 405 439 418 c 128,-1,106
 421 431 421 431 403 431 c 0,107,108
 336 431 336 431 273 327 c 1,109,110
 283 300 283 300 293 237 c 1,98,99
EndSplineSet
Validated: 19457
EndChar

StartChar: L
Encoding: 76 76 46
Width: 666
VWidth: 1000
Flags: W
HStem: -32 101<347.334 556.102> 64 84<97.0883 201.479> 430 27<611.328 640> 639 52<331.298 512.5>
VStem: 155 90<437.593 536.024> 248 82<222.821 292.056> 470 103<450 614.799>
LayerCount: 2
Fore
SplineSet
626 205 m 1,0,-1
 651 188 l 1,1,-1
 650 185 l 2,2,3
 633 92 633 92 608 44 c 128,-1,4
 583 -4 583 -4 553.5 -18 c 128,-1,5
 524 -32 524 -32 474 -32 c 0,6,7
 375 -32 375 -32 190 48 c 0,8,9
 154 64 154 64 128 64 c 0,10,11
 96 64 96 64 48 -18 c 2,12,-1
 45 -24 l 1,13,-1
 26 -1 l 1,14,-1
 27 2 l 2,15,16
 28 5 28 5 34 20 c 128,-1,17
 40 35 40 35 42 38 c 2,18,-1
 51 57 l 2,19,20
 59 74 59 74 61 78 c 2,21,-1
 72 96 l 2,22,23
 81 111 81 111 88 117.5 c 128,-1,24
 95 124 95 124 103.5 131 c 128,-1,25
 112 138 112 138 122 142 c 128,-1,26
 132 146 132 146 142 148 c 2,27,-1
 143 148 l 1,28,-1
 173 148 l 1,29,30
 202 158 202 158 225 180.5 c 128,-1,31
 248 203 248 203 248 227 c 0,32,33
 248 256 248 256 201.5 338 c 128,-1,34
 155 420 155 420 155 468 c 0,35,36
 155 498 155 498 175 533 c 0,37,38
 216 607 216 607 289.5 649 c 128,-1,39
 363 691 363 691 448 691 c 0,40,41
 577 691 577 691 577 571 c 0,42,43
 577 557 577 557 575 523.5 c 128,-1,44
 573 490 573 490 573 483 c 0,45,46
 573 457 573 457 635 457 c 2,47,-1
 640 457 l 1,48,-1
 640 430 l 1,49,-1
 516 399 l 1,50,-1
 515 399 l 1,51,52
 501 399 501 399 485.5 415 c 128,-1,53
 470 431 470 431 470 450 c 0,54,55
 470 454 470 454 473.5 486 c 128,-1,56
 477 518 477 518 477 542 c 0,57,58
 477 591 477 591 448.5 615 c 128,-1,59
 420 639 420 639 376 639 c 0,60,61
 323 639 323 639 284 607.5 c 128,-1,62
 245 576 245 576 245 522 c 0,63,64
 245 499 245 499 255 468 c 0,65,66
 260 451 260 451 295 377.5 c 128,-1,67
 330 304 330 304 330 267 c 0,68,69
 330 243 330 243 283.5 196 c 128,-1,70
 237 149 237 149 219 133 c 1,71,72
 373 69 373 69 464 69 c 0,73,74
 542 69 542 69 577 105 c 0,75,76
 605 133 605 133 624 198 c 2,77,-1
 626 205 l 1,0,-1
EndSplineSet
Validated: 19457
EndChar

StartChar: M
Encoding: 77 77 47
Width: 1050
VWidth: 1000
Flags: W
HStem: -22 21G<376.727 398> 16 93<88.8917 162.154 445.717 496.09> 596 69<501.092 621> 623 74<172.124 266.875 796.162 894.5>
VStem: 23 78<498.932 572.921> 108 84<324.948 400> 348 91<246.81 520.491> 613 101<255.318 542.789> 822 89<113.023 400.984>
LayerCount: 2
Fore
SplineSet
494 639 m 128,-1,1
 539 665 539 665 586 665 c 0,2,3
 656 665 656 665 688 587 c 1,4,5
 725 629 725 629 776.5 663 c 128,-1,6
 828 697 828 697 879 697 c 0,7,8
 910 697 910 697 928 675 c 128,-1,9
 946 653 946 653 951.5 628 c 128,-1,10
 957 603 957 603 970 584 c 128,-1,11
 983 565 983 565 1004 565 c 0,12,13
 1023 565 1023 565 1047 574 c 2,14,-1
 1054 576 l 1,15,-1
 1054 551 l 1,16,-1
 1051 550 l 2,17,18
 988 518 988 518 942 471 c 1,19,20
 911 409 911 409 911 277 c 0,21,22
 911 171 911 171 921 139 c 0,23,24
 927 120 927 120 941 102.5 c 128,-1,25
 955 85 955 85 970 85 c 0,26,27
 987 85 987 85 1026 105 c 2,28,-1
 1033 109 l 1,29,-1
 1033 80 l 1,30,-1
 882 -35 l 1,31,-1
 822 98 l 1,32,-1
 821 271 l 2,33,34
 821 325 821 325 837 400 c 2,35,-1
 837 401 l 1,36,-1
 838 402 l 2,37,38
 868 448 868 448 912 488 c 1,39,40
 903 493 903 493 895.5 505.5 c 128,-1,41
 888 518 888 518 874 557 c 0,42,43
 861 596 861 596 851 609.5 c 128,-1,44
 841 623 841 623 820 623 c 0,45,46
 750 623 750 623 700 545 c 1,47,48
 714 474 714 474 714 436 c 0,49,50
 714 278 714 278 650 126 c 2,51,-1
 649 125 l 1,52,-1
 522 -29 l 1,53,-1
 519 -26 l 2,54,55
 474 16 474 16 453 16 c 0,56,57
 435 16 435 16 424 8.5 c 128,-1,58
 413 1 413 1 398 -17 c 2,59,-1
 394 -22 l 1,60,-1
 375 -0 l 1,61,-1
 377 3 l 2,62,63
 451 109 451 109 485 109 c 0,64,65
 508 109 508 109 563 72 c 1,66,67
 580 91 580 91 591.5 121 c 128,-1,68
 603 151 603 151 607 201 c 128,-1,69
 611 251 611 251 612 278.5 c 128,-1,70
 613 306 613 306 613 367 c 2,71,-1
 613 397 l 2,72,73
 613 427 613 427 611 455 c 128,-1,74
 609 483 609 483 605 499.5 c 128,-1,75
 601 516 601 516 594.5 536.5 c 128,-1,76
 588 557 588 557 578 568.5 c 128,-1,77
 568 580 568 580 552.5 588 c 128,-1,78
 537 596 537 596 517 596 c 0,79,80
 465 596 465 596 429 528 c 1,81,82
 439 488 439 488 439 447 c 0,83,84
 439 241 439 241 366 119 c 0,85,-1
 365 118 l 1,86,-1
 192 -34 l 1,87,-1
 188 -30 l 2,88,89
 138 21 138 21 107 21 c 0,90,91
 72 21 72 21 42 -19 c 2,92,-1
 38 -25 l 1,93,-1
 21 -0 l 1,94,-1
 23 3 l 2,95,96
 87 111 87 111 144 111 c 0,97,98
 178 111 178 111 241 55 c 1,99,100
 267 76 267 76 289 98 c 0,101,102
 313 122 313 122 331 199 c 0,103,104
 348 275 348 275 348 367 c 2,105,-1
 348 408 l 2,106,107
 348 494 348 494 304.5 559.5 c 128,-1,108
 261 625 261 625 195 625 c 0,109,110
 150 625 150 625 125.5 606.5 c 128,-1,111
 101 588 101 588 101 564 c 0,112,113
 101 538 101 538 114.5 513.5 c 128,-1,114
 128 489 128 489 145.5 472.5 c 128,-1,115
 163 456 163 456 177.5 433.5 c 128,-1,116
 192 411 192 411 192 389 c 0,117,118
 192 344 192 344 157.5 311.5 c 128,-1,119
 123 279 123 279 66 251 c 2,120,-1
 64 249 l 1,121,-1
 40 267 l 1,122,-1
 47 270 l 2,123,124
 72 284 72 284 90 305.5 c 128,-1,125
 108 327 108 327 108 347 c 0,126,127
 108 355 108 355 96 371 c 2,128,-1
 76 397 l 2,129,130
 56 423 56 423 47.5 435.5 c 128,-1,131
 39 448 39 448 31 467.5 c 128,-1,132
 23 487 23 487 23 507 c 0,133,134
 23 556 23 556 75 609 c 0,135,136
 92 626 92 626 114.5 643 c 128,-1,137
 137 660 137 660 179.5 678 c 128,-1,138
 222 696 222 696 262 696 c 0,139,140
 312 696 312 696 353 657 c 128,-1,141
 394 618 394 618 416 570 c 1,142,-1
 417 572 l 1,143,0
 449 613 449 613 494 639 c 128,-1,1
EndSplineSet
Validated: 19457
EndChar

StartChar: N
Encoding: 78 78 48
Width: 832
VWidth: 1000
Flags: W
HStem: -27 72<197 266.543> 617 73<166.2 290.5 537.488 629.768>
VStem: 24 77<498.427 566.752> 109 84<329.913 398.5> 368 85<174.774 457.583> 617 86<119.367 417.886>
LayerCount: 2
Fore
SplineSet
393 93 m 2,0,-1
 392 92 l 0,1,2
 258 -27 258 -27 210 -27 c 0,3,4
 184 -27 184 -27 160 -9 c 128,-1,5
 136 9 136 9 120 33 c 2,6,-1
 118 36 l 1,7,-1
 178 106 l 1,8,-1
 195 106 l 1,9,-1
 197 103 l 2,10,11
 207 78 207 78 223 62 c 0,12,13
 240 45 240 45 263 45 c 0,14,15
 290 45 290 45 327 83 c 0,16,17
 368 124 368 124 368 266 c 0,18,19
 368 353 368 353 351 434 c 0,20,21
 334 514 334 514 310 547 c 0,22,23
 288 578 288 578 258 597.5 c 128,-1,24
 228 617 228 617 196 617 c 0,25,26
 101 617 101 617 101 551 c 0,27,28
 101 522 101 522 146 469 c 0,29,30
 193 414 193 414 193 383 c 0,31,32
 193 338 193 338 158 305 c 0,33,34
 124 273 124 273 67 245 c 2,35,-1
 65 243 l 1,36,-1
 41 261 l 1,37,-1
 48 264 l 2,38,39
 69 273 69 273 91 300 c 0,40,41
 109 321 109 321 109 341 c 0,42,43
 109 349 109 349 97 365 c 2,44,-1
 74 396 l 2,45,46
 57 417 57 417 48 429 c 128,-1,47
 39 441 39 441 32 461 c 0,48,49
 24 481 24 481 24 501 c 0,50,51
 24 550 24 550 76 603 c 0,52,53
 163 690 163 690 263 690 c 0,54,55
 318 690 318 690 362 644 c 0,56,57
 403 602 403 602 424 543 c 1,58,59
 449 573 449 573 470 607 c 0,60,61
 492 644 492 644 536 667 c 0,62,63
 580 691 580 691 623 691 c 0,64,65
 677 691 677 691 700 672 c 128,-1,66
 723 653 723 653 735 613 c 0,67,68
 746 577 746 577 753.5 568 c 128,-1,69
 761 559 761 559 778 559 c 0,70,71
 803 559 803 559 821 569 c 2,72,-1
 828 573 l 1,73,-1
 828 548 l 1,74,-1
 826 547 l 2,75,76
 807 538 807 538 738 480 c 0,77,78
 703 451 703 451 703 277 c 0,79,80
 703 248 703 248 705.5 218.5 c 128,-1,81
 708 189 708 189 715 154 c 0,82,83
 722 120 722 120 736 100 c 0,84,85
 749 81 749 81 767 81 c 0,86,87
 791 81 791 81 828 102 c 2,88,-1
 835 106 l 1,89,-1
 835 73 l 1,90,-1
 684 -37 l 1,91,-1
 617 103 l 1,92,-1
 618 271 l 2,93,94
 619 368 619 368 624 389 c 0,95,-1
 633 409 l 0,96,97
 639 422 639 422 648 432 c 2,98,-1
 664 450 l 1,99,-1
 684 470 l 1,100,-1
 695 482 l 1,101,102
 680 488 680 488 668 504 c 0,103,104
 663 511 663 511 652 546 c 0,105,106
 642 578 642 578 626 601 c 0,107,108
 610 623 610 623 586 623 c 0,109,110
 507 623 507 623 438 500 c 1,111,112
 453 411 453 411 453 351 c 0,113,114
 453 205 453 205 409 120 c 1,115,-1
 393 93 l 2,0,-1
EndSplineSet
Validated: 3073
EndChar

StartChar: O
Encoding: 79 79 49
Width: 827
VWidth: 1000
Flags: W
HStem: -32 73<331.276 486.422> 32 78<74.3596 99>
VStem: 75 95<405 487.759> 182 84<193.777 269.357> 262 85<626 708.5> 650 101<224.17 480.425>
LayerCount: 2
Fore
SplineSet
140 300 m 16,0,-1
 115 336 l 1,1,-1
 93 366 l 2,2,3
 87 375 87 375 81 387 c 0,4,5
 75 400 75 400 75 410 c 0,6,7
 75 464 75 464 115 513 c 0,8,9
 149 553 149 553 211 595 c 2,10,-1
 214 597 l 1,11,-1
 244 581 l 1,12,-1
 238 576 l 2,13,14
 170 519 170 519 170 484 c 0,15,16
 170 453 170 453 217 376 c 0,17,18
 266 296 266 296 266 261 c 0,19,20
 266 232 266 232 248 201 c 0,21,22
 230 171 230 171 212 152 c 0,23,24
 197 136 197 136 173 116 c 1,25,26
 190 113 190 113 201 109 c 2,27,-1
 264 87 l 2,28,29
 305 72 305 72 329.5 64 c 128,-1,30
 354 56 354 56 391 48 c 0,31,32
 427 41 427 41 460 41 c 0,33,34
 513 41 513 41 551 65 c 128,-1,35
 589 89 589 89 609 132 c 0,36,37
 630 175 630 175 640 223.5 c 128,-1,38
 650 272 650 272 650 330 c 0,39,40
 650 408 650 408 634 462 c 0,41,42
 618 515 618 515 587 541 c 0,43,44
 554 570 554 570 520 580 c 0,45,46
 483 591 483 591 432 591 c 1,47,-1
 346 588 l 1,48,49
 316 588 316 588 290 600 c 0,50,51
 262 613 262 613 262 639 c 0,52,53
 262 659 262 659 275 675 c 0,54,55
 287 690 287 690 306 706 c 0,56,-1
 332 732 l 2,57,-1
 334 734 l 1,58,-1
 362 734 l 1,59,-1
 356 726 l 2,60,61
 347 714 347 714 347 703 c 0,62,63
 347 680 347 680 474 670 c 0,64,65
 502 668 502 668 506 667 c 0,66,67
 577 661 577 661 627 638 c 0,68,69
 677 614 677 614 703 576 c 128,-1,70
 729 538 729 538 740 495 c 128,-1,71
 751 452 751 452 751 399 c 0,72,73
 751 187 751 187 658 108 c 1,74,75
 506 -32 506 -32 389 -32 c 0,76,77
 304 -32 304 -32 227 0 c 2,78,-1
 203 10 l 2,79,80
 182 19 182 19 175 22 c 0,81,82
 166 25 166 25 150 29 c 0,83,84
 135 32 135 32 123 32 c 0,85,86
 62 32 62 32 31 -19 c 2,87,-1
 28 -24 l 1,88,-1
 4 -0 l 1,89,-1
 7 3 l 2,90,91
 88 110 88 110 98 110 c 2,92,-1
 99 110 l 1,93,-1
 100 111 l 2,94,95
 138 124 138 124 159 148 c 0,96,97
 182 174 182 174 182 207 c 0,98,99
 182 215 182 215 181 219 c 2,100,-1
 178 231 l 2,101,102
 176 240 176 240 174 243 c 0,103,104
 171 250 171 250 168 255 c 0,105,106
 162 267 162 267 140 300 c 16,0,-1
EndSplineSet
Validated: 3073
EndChar

StartChar: P
Encoding: 80 80 50
Width: 828
VWidth: 1000
Flags: W
HStem: -16 83<526 636.199> 75 84<208.354 324.786> 518 26<797 804.389> 617 73<142.886 243.203> 628 69<544.13 659.5>
VStem: 1 75<498.476 566.752> 86 84<318.948 399.5> 326 89<-150.953 30 153 512.056> 597 84<337.927 401.748> 629 90<542.635 610.432> 695 61<117.465 233>
LayerCount: 2
Fore
SplineSet
415 126 m 1,0,1
 426 124 426 124 485 103 c 0,2,3
 522 90 522 90 537 85 c 128,-1,4
 552 80 552 80 570 75 c 0,5,6
 587 70 587 70 597 68.5 c 128,-1,7
 607 67 607 67 619 67 c 0,8,9
 651 67 651 67 673 86 c 128,-1,10
 695 105 695 105 695 138 c 0,11,12
 695 169 695 169 647 239 c 0,13,14
 597 311 597 311 597 346 c 0,15,16
 597 369 597 369 614 394 c 0,17,18
 628 416 628 416 646 432 c 2,19,-1
 680 462 l 1,20,21
 632 479 632 479 629 554 c 0,22,23
 627 593 627 593 614 611 c 0,24,25
 602 628 602 628 570 628 c 0,26,27
 536 628 536 628 505 607 c 0,28,29
 473 586 473 586 455 564 c 128,-1,30
 437 542 437 542 415 508 c 1,31,-1
 415 126 l 1,0,1
505 652 m 128,-1,33
 571 697 571 697 639 697 c 0,34,35
 680 697 680 697 699 670 c 128,-1,36
 718 643 718 643 719 612.5 c 128,-1,37
 720 582 720 582 729.5 558.5 c 128,-1,38
 739 535 739 535 762 535 c 0,39,40
 774 535 774 535 797 543 c 2,41,-1
 802 544 l 1,42,-1
 810 520 l 1,43,-1
 806 518 l 2,44,45
 761 494 761 494 721 459.5 c 128,-1,46
 681 425 681 425 681 399 c 0,47,48
 681 371 681 371 718.5 312 c 128,-1,49
 756 253 756 253 756 213 c 0,50,51
 756 130 756 130 694.5 57 c 128,-1,52
 633 -16 633 -16 559 -16 c 0,53,54
 547 -16 547 -16 526 -10 c 1,55,-1
 415 30 l 1,56,57
 415 -67 415 -67 426 -148 c 2,58,-1
 426 -151 l 1,59,-1
 424 -153 l 2,60,61
 415 -160 415 -160 328 -223 c 2,62,-1
 325 -225 l 1,63,-1
 298 -210 l 1,64,-1
 299 -206 l 2,65,66
 325 -142 325 -142 326 59 c 1,67,68
 273 75 273 75 251 75 c 0,69,70
 242 75 242 75 234.5 73.5 c 128,-1,71
 227 72 227 72 223 70 c 2,72,-1
 208 62 l 2,73,74
 198 56 198 56 194 53 c 2,75,-1
 182 42 l 2,76,77
 173 34 173 34 165.5 24 c 128,-1,78
 158 14 158 14 154.5 10 c 128,-1,79
 151 6 151 6 142.5 -5 c 128,-1,80
 134 -16 134 -16 132 -19 c 2,81,-1
 127 -26 l 1,82,-1
 112 5 l 1,83,-1
 114 7 l 2,84,85
 130 39 130 39 143 60.5 c 128,-1,86
 156 82 156 82 177 107.5 c 128,-1,87
 198 133 198 133 224.5 146 c 128,-1,88
 251 159 251 159 283 159 c 0,89,90
 301 159 301 159 326 153 c 1,91,-1
 326 396 l 2,92,93
 326 485 326 485 283.5 551 c 128,-1,94
 241 617 241 617 173 617 c 0,95,96
 76 617 76 617 76 551 c 0,97,98
 76 520 76 520 123 468 c 128,-1,99
 170 416 170 416 170 383 c 0,100,101
 170 338 170 338 135.5 305.5 c 128,-1,102
 101 273 101 273 44 245 c 2,103,-1
 42 243 l 1,104,-1
 18 261 l 1,105,-1
 25 264 l 2,106,107
 50 278 50 278 68 299.5 c 128,-1,108
 86 321 86 321 86 341 c 0,109,110
 86 349 86 349 74 365 c 2,111,-1
 54 391 l 2,112,113
 34 417 34 417 25.5 429.5 c 128,-1,114
 17 442 17 442 9 461.5 c 128,-1,115
 1 481 1 481 1 501 c 0,116,117
 1 550 1 550 53 603 c 0,118,119
 140 690 140 690 240 690 c 0,120,121
 293 690 293 690 336.5 646 c 128,-1,122
 380 602 380 602 399 551 c 1,123,32
 439 607 439 607 505 652 c 128,-1,33
EndSplineSet
Validated: 3073
EndChar

StartChar: Q
Encoding: 81 81 51
Width: 827
VWidth: 1000
Flags: W
HStem: -32 74<330.819 482.827> 32 78<74.3596 99>
VStem: 75 95<405 487.759> 182 84<192.082 268.479> 262 85<626 708.5> 650 101<226.414 480.425>
LayerCount: 2
Fore
SplineSet
346 588 m 1,0,1
 316 588 316 588 290 600 c 0,2,3
 262 613 262 613 262 639 c 0,4,5
 262 663 262 663 274 675 c 2,6,-1
 334 734 l 1,7,-1
 362 734 l 1,8,-1
 356 726 l 2,9,10
 347 714 347 714 347 703 c 0,11,12
 347 688 347 688 376 682 c 0,13,14
 421 673 421 673 477 669 c 0,15,16
 493 668 493 668 506 667 c 0,17,18
 577 661 577 661 627 638 c 0,19,20
 677 614 677 614 703 576 c 128,-1,21
 729 538 729 538 740 495 c 128,-1,22
 751 452 751 452 751 399 c 0,23,24
 751 191 751 191 658 108 c 0,25,26
 632 85 632 85 610 67 c 1,27,28
 627 48 627 48 639 37 c 0,29,30
 651 25 651 25 672 12 c 0,31,32
 692 -1 692 -1 709 -1 c 0,33,34
 738 -1 738 -1 780 25 c 2,35,-1
 788 30 l 1,36,-1
 788 -9 l 1,37,-1
 667 -74 l 1,38,-1
 665 -74 l 2,39,40
 598 -74 598 -74 512 4 c 1,41,42
 444 -32 444 -32 389 -32 c 0,43,44
 304 -32 304 -32 227 0 c 2,45,-1
 203 10 l 2,46,47
 182 19 182 19 175 22 c 0,48,49
 166 25 166 25 150 29 c 0,50,51
 135 32 135 32 123 32 c 0,52,53
 62 32 62 32 31 -19 c 2,54,-1
 28 -24 l 1,55,-1
 4 -0 l 1,56,-1
 7 3 l 2,57,58
 88 110 88 110 98 110 c 2,59,-1
 99 110 l 1,60,-1
 100 111 l 2,61,62
 138 124 138 124 159 148 c 0,63,64
 182 174 182 174 182 207 c 0,65,66
 182 215 182 215 181 219 c 2,67,-1
 178 231 l 2,68,69
 177 235 177 235 174 243 c 0,70,71
 170 251 170 251 168 255 c 0,72,73
 167 258 167 258 161 266 c 0,74,75
 155 278 l 0,76,77
 153 279 153 279 147 289 c 0,78,79
 145 292 145 292 143 295 c 0,80,-1
 140 300 l 1,81,-1
 115 336 l 1,82,-1
 93 366 l 2,83,84
 87 375 87 375 81 387 c 0,85,86
 75 400 75 400 75 410 c 0,87,88
 75 464 75 464 115 513 c 0,89,90
 149 553 149 553 211 595 c 2,91,-1
 214 597 l 1,92,-1
 244 581 l 1,93,-1
 238 576 l 2,94,95
 170 519 170 519 170 484 c 0,96,97
 170 453 170 453 217 376 c 0,98,99
 266 296 266 296 266 261 c 0,100,101
 266 191 266 191 172 117 c 1,102,103
 186 114 186 114 201 109 c 2,104,-1
 278 82 l 2,105,106
 343 59 343 59 375 51 c 0,107,108
 414 42 414 42 456 42 c 0,109,110
 511 42 511 42 554.5 70 c 128,-1,111
 598 98 598 98 620 148 c 0,112,113
 650 213 650 213 650 330 c 0,114,115
 650 408 650 408 634 462 c 0,116,117
 618 515 618 515 587 541 c 0,118,119
 554 570 554 570 520 580 c 0,120,121
 483 591 483 591 432 591 c 1,122,-1
 346 588 l 1,0,1
EndSplineSet
Validated: 3073
EndChar

StartChar: R
Encoding: 82 82 52
Width: 828
VWidth: 1000
Flags: W
HStem: 21 90<89.8336 154.947> 499 23<798 802> 618 73<165.465 289 540.695 665.5>
VStem: 24 80<494.507 567.779> 109 84<330.913 400> 349 91<242.48 327.875 356 510.216> 624 79<136.781 301.313>
LayerCount: 2
Fore
SplineSet
438 356 m 1,0,1
 494 384 494 384 545 393 c 1,2,-1
 662 460 l 1,3,4
 646 464 646 464 635 475 c 0,5,6
 627 483 627 483 623 509.5 c 128,-1,7
 619 536 619 536 616 560.5 c 128,-1,8
 613 585 613 585 600 604 c 128,-1,9
 587 623 587 623 565 623 c 0,10,11
 525 623 525 623 496 594 c 128,-1,12
 467 565 467 565 435 511 c 1,13,14
 440 486 440 486 440 451 c 0,15,16
 440 390 440 390 438 356 c 1,0,1
420 558 m 1,17,18
 470 620 470 620 517 654 c 0,19,20
 568 691 568 691 629 691 c 0,21,22
 702 691 702 691 714 592 c 2,23,-1
 714 591 l 1,24,25
 713 586 713 586 713.5 580 c 128,-1,26
 714 574 714 574 714 568 c 0,27,28
 715 555 715 555 716 543 c 0,29,30
 717 533 717 533 728 526 c 0,31,32
 739 518 739 518 761 518 c 0,33,34
 775 518 775 518 798 522 c 2,35,-1
 802 522 l 1,36,-1
 813 501 l 1,37,-1
 808 499 l 2,38,39
 695 457 695 457 610 392 c 1,40,41
 661 388 661 388 701 355 c 2,42,-1
 703 353 l 1,43,-1
 703 351 l 2,44,45
 711 180 711 180 719 156 c 0,46,47
 745 74 745 74 767 74 c 0,48,49
 775 75 775 75 824 95 c 2,50,-1
 831 97 l 1,51,-1
 831 72 l 1,52,-1
 691 -34 l 1,53,-1
 624 89 l 1,54,-1
 624 90 l 2,55,56
 624 94 624 94 626 128 c 0,57,58
 627 162 627 162 627 179 c 0,59,60
 627 277 627 277 599 304 c 0,61,62
 565 338 565 338 520 338 c 0,63,64
 493 338 493 338 433 320 c 1,65,66
 416 194 416 194 364 116 c 0,67,-1
 363 115 l 1,68,69
 336 93 336 93 275 40 c 2,70,-1
 192 -34 l 1,71,-1
 188 -31 l 2,72,73
 136 21 136 21 111 21 c 0,74,75
 72 21 72 21 42 -19 c 2,76,-1
 38 -25 l 1,77,-1
 21 -0 l 1,78,-1
 23 3 l 2,79,80
 37 25 37 25 45.5 37 c 128,-1,81
 54 49 54 49 71 69 c 0,82,83
 88 90 88 90 106 100 c 0,84,85
 125 111 125 111 144 111 c 0,86,87
 185 111 185 111 239 55 c 1,88,89
 308 103 308 103 328 174 c 0,90,91
 349 248 349 248 349 367 c 0,92,93
 349 490 349 490 310 548 c 0,94,95
 290 578 290 578 259 598 c 0,96,97
 229 618 229 618 196 618 c 0,98,99
 154 618 154 618 129 598 c 256,100,101
 104 578 104 578 104 536 c 0,102,103
 104 519 104 519 147 469 c 0,104,105
 193 416 193 416 193 384 c 0,106,107
 193 339 193 339 158 306 c 0,108,109
 124 274 124 274 67 246 c 2,110,-1
 65 244 l 1,111,-1
 41 262 l 1,112,-1
 48 265 l 2,113,114
 73 279 73 279 91 301 c 0,115,116
 109 322 109 322 109 342 c 0,117,118
 109 350 109 350 97 366 c 2,119,-1
 74 397 l 2,120,121
 57 418 57 418 48 430 c 256,122,123
 39 442 39 442 32 462 c 0,124,125
 24 482 24 482 24 502 c 0,126,127
 24 551 24 551 76 604 c 0,128,129
 163 691 163 691 263 691 c 0,130,131
 315 691 315 691 359 648 c 0,132,133
 400 608 400 608 420 558 c 1,17,18
EndSplineSet
Validated: 19457
EndChar

StartChar: S
Encoding: 83 83 53
Width: 829
VWidth: 1000
Flags: W
HStem: -32 63<339.486 521.148> 304 68<321.757 474.484> 336 79<481.733 624.265> 506 90<573.409 656.385> 623 71<342.25 412.914>
VStem: 51 93<243.152 434.518> 224 85<384.15 453.024> 672 84<163.881 285.517>
LayerCount: 2
Fore
SplineSet
340 514 m 1,0,-1
 361 493 l 1,1,-1
 353 490 l 2,2,3
 309 476 309 476 309 426 c 0,4,5
 309 400 309 400 325 386 c 128,-1,6
 341 372 341 372 368 372 c 256,7,8
 395 372 395 372 485 393.5 c 128,-1,9
 575 415 575 415 613 415 c 0,10,11
 673 415 673 415 714.5 377 c 128,-1,12
 756 339 756 339 756 277 c 0,13,14
 756 201 756 201 722 139.5 c 128,-1,15
 688 78 688 78 631.5 41.5 c 128,-1,16
 575 5 575 5 509 -13.5 c 128,-1,17
 443 -32 443 -32 373 -32 c 0,18,19
 236 -32 236 -32 159 44 c 0,20,21
 107 96 107 96 79 165.5 c 128,-1,22
 51 235 51 235 51 309 c 0,23,24
 51 457 51 457 160 568 c 0,25,26
 250 659 250 659 424 694 c 2,27,-1
 426 694 l 1,28,-1
 445 684 l 1,29,-1
 480 665 l 1,30,-1
 512 648 l 1,31,-1
 548 630 l 2,32,33
 569 620 569 620 585 613.5 c 128,-1,34
 601 607 601 607 611.5 604 c 128,-1,35
 622 601 622 601 634 598.5 c 128,-1,36
 646 596 646 596 655 596 c 0,37,38
 709 596 709 596 732 668 c 2,39,-1
 734 673 l 1,40,-1
 762 657 l 1,41,-1
 761 654 l 2,42,43
 736 554 736 554 609 506 c 2,44,-1
 608 506 l 1,45,-1
 607 506 l 2,46,47
 570 509 570 509 476.5 566 c 128,-1,48
 383 623 383 623 336 623 c 0,49,50
 255 623 255 623 199.5 546 c 128,-1,51
 144 469 144 469 144 378 c 256,52,53
 144 287 144 287 180.5 208.5 c 128,-1,54
 217 130 217 130 289.5 80.5 c 128,-1,55
 362 31 362 31 455 31 c 0,56,57
 577 31 577 31 626 81 c 0,58,59
 672 127 672 127 672 207 c 0,60,61
 672 261 672 261 640.5 298.5 c 128,-1,62
 609 336 609 336 554 336 c 0,63,64
 521 336 521 336 443 320 c 128,-1,65
 365 304 365 304 325 304 c 0,66,67
 283 304 283 304 253.5 326 c 128,-1,68
 224 348 224 348 224 388 c 0,69,70
 224 433 224 433 258 466.5 c 128,-1,71
 292 500 292 500 338 513 c 2,72,-1
 340 514 l 1,0,-1
EndSplineSet
Validated: 19457
EndChar

StartChar: T
Encoding: 84 84 54
Width: 669
VWidth: 1000
Flags: W
HStem: -32 95<390.209 449> -18 21G<98.5 115> 43 79<222 307.31> 570 84<410.881 610.911> 618 73<169.335 369.511>
VStem: 19 60<462.908 545.602> 256 85<413.142 466.185> 379 79<195.851 255.488>
LayerCount: 2
Fore
SplineSet
608 141 m 1,0,-1
 624 117 l 1,1,-1
 622 114 l 2,2,3
 527 6 527 6 450 -31 c 2,4,-1
 449 -32 l 1,5,-1
 447 -32 l 2,6,7
 410 -27 410 -27 341.5 8 c 128,-1,8
 273 43 273 43 235 43 c 0,9,10
 190 43 190 43 115 -15 c 2,11,-1
 111 -18 l 1,12,-1
 96 6 l 1,13,-1
 98 8 l 2,14,15
 151 64 151 64 221 121 c 2,16,-1
 222 122 l 1,17,-1
 224 122 l 2,18,19
 234 123 234 123 254 123 c 0,20,21
 286 123 286 123 308 117 c 1,22,23
 336 133 336 133 357.5 158 c 128,-1,24
 379 183 379 183 379 207 c 0,25,26
 379 234 379 234 320.5 302 c 128,-1,27
 262 370 262 370 256 403 c 2,28,-1
 256 404 l 1,29,-1
 256 405 l 2,30,31
 278 498 278 498 375 594 c 1,32,33
 301 618 301 618 224 618 c 0,34,35
 165 618 165 618 122 594 c 128,-1,36
 79 570 79 570 79 516 c 0,37,38
 79 490 79 490 96.5 468 c 128,-1,39
 114 446 114 446 141 436 c 2,40,-1
 148 433 l 1,41,-1
 75 360 l 1,42,-1
 72 363 l 2,43,44
 19 405 19 405 19 465 c 0,45,46
 19 505 19 505 43 548.5 c 128,-1,47
 67 592 67 592 103 625 c 0,48,49
 174 691 174 691 283 691 c 0,50,51
 333 691 333 691 429.5 672.5 c 128,-1,52
 526 654 526 654 570 654 c 0,53,54
 627 654 627 654 672 706 c 2,55,-1
 681 716 l 1,56,-1
 681 679 l 1,57,-1
 610 587 l 1,58,59
 582 570 582 570 538 570 c 0,60,61
 469 570 469 570 411 584 c 1,62,63
 385 563 385 563 363 530 c 128,-1,64
 341 497 341 497 341 463 c 0,65,66
 341 446 341 446 359 419 c 128,-1,67
 377 392 377 392 398.5 369 c 128,-1,68
 420 346 420 346 439 314 c 128,-1,69
 458 282 458 282 458 255 c 256,70,71
 458 228 458 228 436 196 c 128,-1,72
 414 164 414 164 394.5 146 c 128,-1,73
 375 128 375 128 346 104 c 1,74,75
 436 63 436 63 474 63 c 0,76,77
 530 63 530 63 603 137 c 2,78,-1
 608 141 l 1,0,-1
EndSplineSet
Validated: 19457
EndChar

StartChar: U
Encoding: 85 85 55
Width: 646
VWidth: 1000
Flags: W
HStem: -32 85<237.484 344.396> -15 21G<-27.8519 -12> 32 74<52 93.3887> 672 20G<546.915 599>
VStem: 54 95<476.317 567.375> 155 79<213.13 318.193> 443 95<335.6 598> 453 85<167.451 505.388>
LayerCount: 2
Fore
SplineSet
345 -9 m 1,0,-1
 344 -10 l 1,1,2
 315 -32 315 -32 283 -32 c 0,3,4
 236 -32 236 -32 155.5 0 c 128,-1,5
 75 32 75 32 38 32 c 0,6,7
 18 32 18 32 -12 -9 c 2,8,-1
 -16 -15 l 1,9,-1
 -32 12 l 1,10,-1
 52 106 l 1,11,-1
 54 106 l 2,12,13
 77 108 77 108 119 152 c 0,14,15
 155 189 155 189 155 250 c 0,16,17
 155 283 155 283 104.5 373 c 128,-1,18
 54 463 54 463 54 506 c 0,19,20
 54 548 54 548 106.5 608 c 128,-1,21
 159 668 159 668 216 701 c 2,22,-1
 221 704 l 1,23,-1
 236 680 l 1,24,-1
 232 677 l 2,25,26
 149 616 149 616 149 554 c 0,27,28
 149 519 149 519 191.5 431 c 128,-1,29
 234 343 234 343 234 293 c 0,30,31
 234 248 234 248 219 216 c 2,32,-1
 218 215 l 1,33,-1
 124 110 l 1,34,35
 159 107 159 107 225.5 80 c 128,-1,36
 292 53 292 53 315 53 c 0,37,38
 349 53 349 53 393 93 c 128,-1,39
 437 133 437 133 448 167 c 0,40,41
 453 181 453 181 453 250 c 0,42,43
 453 452 453 452 443 596 c 2,44,-1
 443 598 l 1,45,-1
 575 692 l 1,46,-1
 599 677 l 1,47,-1
 595 672 l 2,48,49
 569 646 569 646 555 606.5 c 128,-1,50
 541 567 541 567 539.5 540.5 c 128,-1,51
 538 514 538 514 538 463 c 2,52,-1
 538 261 l 2,53,54
 538 248 538 248 540.5 225 c 128,-1,55
 543 202 543 202 549 166.5 c 128,-1,56
 555 131 555 131 570.5 107.5 c 128,-1,57
 586 84 586 84 606 84 c 0,58,59
 633 84 633 84 663 105 c 2,60,-1
 671 111 l 1,61,-1
 671 77 l 1,62,-1
 520 -35 l 1,63,-1
 454 111 l 1,64,-1
 345 -9 l 1,0,-1
EndSplineSet
Validated: 19457
EndChar

StartChar: V
Encoding: 86 86 56
Width: 831
VWidth: 1000
Flags: W
HStem: -32 69<482.087 583.969> 85 74<207 279.292> 618 73<166.2 266.158 554.095 645>
VStem: 24 77<498.734 567.752> 109 84<319.948 400> 349 89<313.942 513.705> 645 85<257.617 469.969> 656 100<123.833 383.556>
LayerCount: 2
Fore
SplineSet
382 222 m 2,0,-1
 382 221 l 1,1,-1
 298 155 l 1,2,3
 319 152 319 152 341 140.5 c 128,-1,4
 363 129 363 129 419 94 c 0,5,6
 510 37 510 37 559 37 c 0,7,8
 586 37 586 37 604.5 47.5 c 128,-1,9
 623 58 623 58 632.5 72.5 c 128,-1,10
 642 87 642 87 648 112.5 c 128,-1,11
 654 138 654 138 655 157.5 c 128,-1,12
 656 177 656 177 656 207 c 0,13,14
 656 233 656 233 650.5 296.5 c 128,-1,15
 645 360 645 360 645 394.5 c 128,-1,16
 645 429 645 429 656 464 c 2,17,-1
 657 465 l 1,18,-1
 725 544 l 1,19,20
 695 549 695 549 646 580.5 c 128,-1,21
 597 612 597 612 565 612 c 0,22,23
 553 612 553 612 537.5 603.5 c 128,-1,24
 522 595 522 595 512 586 c 2,25,-1
 502 577 l 1,26,27
 461 538 461 538 438 485 c 1,28,29
 437 330 437 330 382 222 c 2,0,-1
547.5 664.5 m 128,-1,31
 589 691 589 691 623 691 c 0,32,33
 667 691 667 691 722 653 c 1,34,35
 765 622 765 622 800 622 c 0,36,37
 813 622 813 622 824 627 c 2,38,-1
 831 631 l 1,39,-1
 831 604 l 1,40,-1
 829 603 l 2,41,42
 785 573 785 573 757.5 529.5 c 128,-1,43
 730 486 730 486 730 436 c 0,44,45
 730 397 730 397 743 319 c 128,-1,46
 756 241 756 241 756 218 c 0,47,48
 756 176 756 176 738 133 c 128,-1,49
 720 90 720 90 690 67 c 2,50,-1
 573 -18 l 2,51,52
 554 -32 554 -32 525 -32 c 0,53,54
 524 -32 524 -32 521 -32 c 128,-1,55
 518 -32 518 -32 517 -32 c 0,56,57
 455 -32 455 -32 365 22 c 0,58,59
 260 85 260 85 214 85 c 0,60,61
 147 85 147 85 95 23 c 2,62,-1
 91 18 l 1,63,-1
 74 42 l 1,64,-1
 76 45 l 2,65,66
 139 117 139 117 205 158 c 2,67,-1
 207 159 l 1,68,-1
 208 159 l 2,69,70
 349 159 349 159 349 403 c 1,71,72
 347 490 347 490 305.5 554 c 128,-1,73
 264 618 264 618 196 618 c 0,74,75
 101 618 101 618 101 552 c 0,76,77
 101 521 101 521 147 468.5 c 128,-1,78
 193 416 193 416 193 384 c 0,79,80
 193 339 193 339 158.5 306.5 c 128,-1,81
 124 274 124 274 67 246 c 2,82,-1
 65 244 l 1,83,-1
 41 262 l 1,84,-1
 48 265 l 2,85,86
 73 279 73 279 91 300.5 c 128,-1,87
 109 322 109 322 109 342 c 0,88,89
 109 350 109 350 97 366 c 2,90,-1
 77 392 l 2,91,92
 57 418 57 418 48.5 430.5 c 128,-1,93
 40 443 40 443 32 462.5 c 128,-1,94
 24 482 24 482 24 502 c 0,95,96
 24 551 24 551 76 604 c 0,97,98
 163 691 163 691 263 691 c 0,99,100
 320 691 320 691 362.5 644.5 c 128,-1,101
 405 598 405 598 426 538 c 1,102,103
 447 572 447 572 476 604 c 0,104,30
 506 638 506 638 547.5 664.5 c 128,-1,31
EndSplineSet
Validated: 19457
EndChar

StartChar: W
Encoding: 87 87 57
Width: 1046
VWidth: 1000
Flags: W
HStem: -30 67<711.691 813.441> -18 21G<27.7391 49> 43 84<153 208.204> 618 73<158.2 258.057 783.159 850.771>
VStem: 16 77<498.002 567.635> 101 84<319.948 398> 341 89<316.133 511.891> 602 82<224.768 498.138> 869 90<90.3633 183.482 187.102 487.67> 881 93<110.054 411.382>
LayerCount: 2
Fore
SplineSet
891 488 m 1,0,-1
 944 545 l 1,1,2
 923 551 923 551 875.5 581.5 c 128,-1,3
 828 612 828 612 794 612 c 0,4,5
 738 612 738 612 680 529 c 1,6,7
 684 464 684 464 684 427 c 0,8,9
 684 297 684 297 655 199 c 2,10,11
 655 198 l 1,12,-1
 654 197 l 2,13,14
 607 134 607 134 582 105 c 1,15,16
 615 100 615 100 689 68.5 c 128,-1,17
 763 37 763 37 794 37 c 0,18,19
 840 37 840 37 864 77 c 0,20,21
 881 105 881 105 881 186 c 0,22,23
 881 221 881 221 875 289 c 128,-1,24
 869 357 869 357 869 391 c 0,25,26
 869 459 869 459 891 488 c 1,0,-1
356 188 m 0,27,-1
 355 187 l 1,28,29
 307 148 307 148 243 109 c 1,30,31
 325 47 325 47 394 47 c 0,32,33
 476 47 476 47 545 116 c 0,34,35
 602 172 602 172 602 362 c 0,36,37
 602 439 602 439 576.5 506.5 c 128,-1,38
 551 574 551 574 497 599 c 1,39,40
 444 551 444 551 423 524 c 1,41,42
 423 521 423 521 426.5 501.5 c 128,-1,43
 430 482 430 482 430 476 c 0,44,45
 430 448 430 448 425.5 406 c 128,-1,46
 421 364 421 364 403 298 c 128,-1,47
 385 232 385 232 356 188 c 0,27,-1
417 567 m 2,48,49
 469 624 469 624 556 690 c 2,50,-1
 559 692 l 1,51,-1
 561 690 l 2,52,53
 623 655 623 655 667 568 c 1,54,-1
 705 606 l 2,55,56
 743 644 743 644 780.5 667.5 c 128,-1,57
 818 691 818 691 847 691 c 0,58,59
 882 691 882 691 936 658 c 128,-1,60
 990 625 990 625 1018 625 c 0,61,62
 1035 625 1035 625 1053 633 c 2,63,-1
 1063 637 l 1,64,-1
 1053 604 l 1,65,-1
 1052 603 l 2,66,67
 1004 568 1004 568 981.5 531.5 c 128,-1,68
 959 495 959 495 959 434 c 0,69,70
 959 397 959 397 966.5 323.5 c 128,-1,71
 974 250 974 250 974 213 c 0,72,73
 974 167 974 167 965 138 c 0,74,75
 950 90 950 90 872 30 c 128,-1,76
 794 -30 794 -30 734 -30 c 0,77,78
 692 -30 692 -30 613.5 1 c 128,-1,79
 535 32 535 32 497 32 c 1,80,81
 424 -2 424 -2 381 -31 c 2,82,-1
 380 -32 l 1,83,-1
 378 -32 l 2,84,85
 376 -32 376 -32 370 -32.5 c 128,-1,86
 364 -33 364 -33 362 -33 c 0,87,88
 296 -33 296 -33 232 7 c 0,89,90
 174 43 174 43 149 43 c 0,91,92
 112 43 112 43 49 -15 c 2,93,-1
 46 -18 l 1,94,-1
 25 5 l 1,95,-1
 28 8 l 2,96,97
 84 73 84 73 152 126 c 2,98,-1
 153 127 l 1,99,-1
 158 127 l 2,100,101
 210 127 210 127 246.5 150 c 128,-1,102
 283 173 283 173 303 214 c 0,103,104
 322 256 322 256 332 304 c 0,105,106
 341 347 341 347 341 392 c 0,107,108
 341 397 341 397 341 402 c 0,109,110
 340 487 340 487 298 552.5 c 128,-1,111
 256 618 256 618 188 618 c 0,112,113
 93 618 93 618 93 554 c 0,114,115
 93 526 93 526 104 512 c 2,116,-1
 150 455 l 2,117,118
 185 412 185 412 185 384 c 0,119,120
 185 339 185 339 150.5 306.5 c 128,-1,121
 116 274 116 274 59 246 c 2,122,-1
 57 244 l 1,123,-1
 33 262 l 1,124,-1
 40 265 l 2,125,126
 65 279 65 279 83 300.5 c 128,-1,127
 101 322 101 322 101 342 c 0,128,129
 101 350 101 350 89 366 c 2,130,-1
 69 392 l 2,131,132
 49 418 49 418 40.5 430.5 c 128,-1,133
 32 443 32 443 24 462.5 c 128,-1,134
 16 482 16 482 16 502 c 0,135,136
 16 551 16 551 68 604 c 0,137,138
 155 691 155 691 255 691 c 0,139,140
 306 691 306 691 348 650.5 c 128,-1,141
 390 610 390 610 411 560 c 1,142,-1
 417 567 l 2,48,49
EndSplineSet
Validated: 3073
EndChar

StartChar: X
Encoding: 88 88 58
Width: 719
VWidth: 1000
Flags: W
HStem: -27 80<110.229 175.508 504.492 578.057> 320 52<412.77 546> 328 44<195 331 410 545.953> 589 102<224 275.844>
VStem: 331 79<183.683 328 372 499.795>
LayerCount: 2
Fore
SplineSet
71 527 m 1,0,-1
 224 691 l 1,1,-1
 226 691 l 2,2,3
 304 688 304 688 350 643 c 0,4,5
 380 613 380 613 402 531 c 1,6,7
 461 642 461 642 586 694 c 2,8,-1
 590 695 l 1,9,-1
 592 691 l 2,10,11
 596 683 596 683 607 660 c 0,12,13
 617 637 617 637 624 624 c 0,14,15
 630 613 630 613 642 603 c 0,16,17
 653 593 653 593 666 593 c 0,18,19
 676 593 676 593 707 608 c 2,20,-1
 714 612 l 1,21,-1
 714 582 l 1,22,-1
 607 521 l 1,23,-1
 605 522 l 2,24,25
 577 534 577 534 547 563 c 0,26,27
 520 588 520 588 510 608 c 1,28,29
 461 573 461 573 436 510 c 0,30,31
 411 445 411 445 410 372 c 1,32,-1
 592 372 l 1,33,-1
 546 320 l 1,34,-1
 543 320 l 2,35,36
 499 326 499 326 410 328 c 1,37,38
 410 288 410 288 417 248 c 0,39,40
 424 205 424 205 440 159 c 0,41,42
 456 114 456 114 489 86 c 0,43,44
 523 58 523 58 570 58 c 0,45,46
 611 58 611 58 673 100 c 2,47,-1
 681 105 l 1,48,-1
 681 72 l 1,49,-1
 567 -20 l 1,50,-1
 566 -21 l 2,51,52
 530 -32 530 -32 517 -32 c 0,53,54
 449 -32 449 -32 408 24 c 0,55,56
 370 75 370 75 354 144 c 1,57,-1
 319 108 l 2,58,59
 261 50 261 50 211 17 c 0,60,61
 146 -27 146 -27 112 -27 c 0,62,63
 58 -27 58 -27 23 29 c 2,64,-1
 21 32 l 1,65,-1
 87 110 l 1,66,-1
 90 103 l 2,67,68
 115 53 115 53 165 53 c 128,-1,69
 215 53 215 53 260 99 c 0,70,71
 329 168 329 168 331 328 c 1,72,73
 218 328 218 328 161 320 c 2,74,-1
 147 318 l 1,75,-1
 195 372 l 1,76,-1
 331 372 l 1,77,78
 331 442 331 442 326 473 c 0,79,80
 320 515 320 515 290 553 c 0,81,82
 262 589 262 589 224 589 c 0,83,84
 161 589 161 589 99 509 c 2,85,-1
 96 505 l 1,86,-1
 71 527 l 1,0,-1
EndSplineSet
Validated: 19457
EndChar

StartChar: Y
Encoding: 89 89 59
Width: 833
VWidth: 1000
Flags: W
HStem: -224 58<353.478 463.743> -26 89<324.83 419.426> -11 21G<21.4545 40> 49 80<146 214.461> 618 73<165.043 265.562>
VStem: 23 76<498.861 567.369> 108 84<330.913 400> 348 89<312.318 511.497> 656 90<107.196 511.804>
LayerCount: 2
Fore
SplineSet
306 552 m 0,0,1
 264 618 264 618 195 618 c 0,2,3
 99 618 99 618 99 551 c 0,4,5
 99 522 99 522 144 470 c 0,6,7
 192 416 192 416 192 384 c 0,8,9
 192 339 192 339 157 306 c 0,10,11
 123 274 123 274 66 246 c 2,12,-1
 64 244 l 1,13,-1
 40 262 l 1,14,-1
 47 265 l 2,15,16
 72 279 72 279 90 301 c 0,17,18
 108 322 108 322 108 342 c 0,19,20
 108 350 108 350 96 366 c 2,21,-1
 73 397 l 2,22,23
 56 418 56 418 47 430 c 256,24,25
 38 442 38 442 31 462 c 0,26,27
 23 482 23 482 23 502 c 0,28,29
 23 551 23 551 75 604 c 0,30,31
 162 691 162 691 262 691 c 0,32,33
 316 691 316 691 362 644 c 0,34,35
 404 601 404 601 423 546 c 1,36,37
 525 648 525 648 616 691 c 2,38,-1
 619 692 l 1,39,-1
 622 689 l 2,40,41
 654 650 654 650 728 600 c 2,42,-1
 729 599 l 1,43,-1
 730 597 l 2,44,45
 746 517 746 517 746 341 c 0,46,47
 746 108 746 108 680 -18 c 2,48,-1
 680 -19 l 1,49,50
 625 -102 625 -102 535 -163 c 0,51,52
 444 -224 444 -224 362 -224 c 0,53,54
 318 -224 318 -224 279 -206 c 0,55,56
 239 -188 239 -188 224 -151 c 2,57,-1
 223 -148 l 1,58,-1
 294 -73 l 1,59,-1
 310 -73 l 1,60,-1
 311 -77 l 2,61,62
 319 -113 319 -113 348.5 -139.5 c 128,-1,63
 378 -166 378 -166 416 -166 c 0,64,65
 459 -166 459 -166 487 -152 c 256,66,67
 515 -138 515 -138 548 -107 c 0,68,69
 614 -43 614 -43 635 62 c 0,70,71
 656 169 656 169 656 314 c 0,72,73
 656 444 656 444 630 524 c 1,74,75
 580 579 580 579 544 596 c 1,76,77
 536 593 536 593 521 585 c 0,78,79
 504 576 504 576 477 554 c 0,80,81
 451 533 451 533 433 511 c 1,82,83
 437 490 437 490 437 468 c 0,84,85
 434 306 434 306 366 204 c 0,86,-1
 365 203 l 1,87,-1
 256 117 l 1,88,89
 276 110 276 110 319 88 c 0,90,91
 371 63 371 63 400 63 c 0,92,93
 441 63 441 63 481 109 c 2,94,-1
 486 115 l 1,95,-1
 500 90 l 1,96,-1
 498 88 l 2,97,98
 497 86 497 86 487 72 c 0,99,100
 477 59 477 59 474 55.5 c 128,-1,101
 471 52 471 52 461 39 c 256,102,103
 451 26 451 26 446 22 c 2,104,-1
 433 8 l 2,105,106
 423 -2 423 -2 416 -6 c 0,107,108
 410 -10 410 -10 402 -16 c 0,109,110
 393 -22 393 -22 385.5 -24 c 128,-1,111
 378 -26 378 -26 370 -26 c 0,112,113
 333 -26 333 -26 261 16 c 0,114,115
 203 49 203 49 163 49 c 0,116,117
 119 49 119 49 40 -8 c 2,118,-1
 36 -11 l 1,119,-1
 20 11 l 1,120,-1
 22 14 l 2,121,122
 57 51 57 51 145 128 c 2,123,-1
 146 129 l 1,124,-1
 148 129 l 2,125,126
 198 129 198 129 215 127 c 1,127,128
 348 201 348 201 348 397 c 0,129,130
 348 485 348 485 306 552 c 0,0,1
EndSplineSet
Validated: 19457
EndChar

StartChar: Z
Encoding: 90 90 60
Width: 602
VWidth: 1000
Flags: W
HStem: -144 40<181.5 328.23> -21 63<71.0181 166> 314 63<221 372.384> 586 91<173.714 308.149> 596 85<173.727 366.574>
VStem: 107 95<-90.5884 -39.4216> 379 95<511.903 617.5> 437 101<66.0996 253.681>
LayerCount: 2
Fore
SplineSet
175 308 m 1,0,-1
 221 377 l 1,1,-1
 224 377 l 2,2,3
 283 381 283 381 331 432 c 128,-1,4
 379 483 379 483 379 543 c 0,5,6
 379 567 379 567 358 581 c 0,7,8
 336 596 336 596 309 596 c 256,9,10
 282 596 282 596 225 591 c 256,11,12
 168 586 168 586 160 586 c 0,13,14
 86 586 86 586 86 633 c 2,15,-1
 86 635 l 1,16,-1
 157 734 l 1,17,-1
 185 734 l 1,18,-1
 180 727 l 2,19,20
 173 714 173 714 173 705 c 0,21,22
 173 692 173 692 186 685 c 0,23,24
 201 677 201 677 213 677 c 0,25,26
 227 676 227 676 251 676 c 0,27,28
 261 676 261 676 300 678 c 0,29,30
 339 681 339 681 357 681 c 0,31,32
 409 681 409 681 441 660 c 0,33,34
 474 639 474 639 474 596 c 0,35,36
 474 482 474 482 315 379 c 1,37,38
 339 383 339 383 357 383 c 0,39,40
 474 383 474 383 521 312 c 2,41,-1
 522 311 l 1,42,-1
 522 310 l 2,43,44
 538 255 538 255 538 197 c 0,45,46
 538 69 538 69 457 -51 c 0,47,-1
 456 -52 l 1,48,49
 345 -144 345 -144 208 -144 c 0,50,51
 155 -144 155 -144 111 -133 c 2,52,-1
 107 -132 l 1,53,-1
 107 -128 l 2,54,55
 107 -52 107 -52 102 -39 c 0,56,57
 96 -21 96 -21 75 -21 c 0,58,59
 60 -21 60 -21 26 -46 c 2,60,-1
 22 -49 l 1,61,-1
 4 -26 l 1,62,-1
 8 -23 l 2,63,64
 87 42 87 42 149 42 c 0,65,66
 183 42 183 42 193 25 c 0,67,68
 202 9 202 9 202 -43 c 0,69,70
 202 -78 202 -78 215 -91 c 128,-1,71
 228 -104 228 -104 259 -104 c 0,72,73
 306 -104 306 -104 342.5 -79.5 c 128,-1,74
 379 -55 379 -55 398 -14 c 0,75,76
 418 27 418 27 427.5 70.5 c 128,-1,77
 437 114 437 114 437 159 c 0,78,79
 437 241 437 241 395 277 c 0,80,81
 352 314 352 314 283 314 c 0,82,83
 235 314 235 314 194 294 c 2,84,-1
 191 292 l 1,85,-1
 175 308 l 1,0,-1
EndSplineSet
Validated: 19457
EndChar

StartChar: bracketleft
Encoding: 91 91 61
Width: 278
VWidth: 1000
Flags: W
HStem: -125 46<166.734 230.615> -125 33<218.385 284> 695 46<165.891 230.615> 708 33<218.385 284>
VStem: 115 50<-79 695>
LayerCount: 2
Fore
SplineSet
165 695 m 1,0,-1
 165 -79 l 1,1,-1
 284 -92 l 1,2,-1
 284 -125 l 1,3,-1
 279 -125 l 2,4,5
 172 -125 172 -125 120 -130 c 2,6,-1
 115 -131 l 1,7,-1
 115 747 l 1,8,-1
 121 746 l 2,9,10
 160 741 160 741 279 741 c 2,11,-1
 284 741 l 1,12,-1
 284 708 l 1,13,-1
 165 695 l 1,0,-1
EndSplineSet
Validated: 19457
EndChar

StartChar: bracketright
Encoding: 93 93 62
Width: 278
VWidth: 1000
Flags: W
HStem: -125 46<47.3852 111.266> -125 33<-6 59.6148> 695 46<47.3852 112.592> 708 33<-6 59.6148>
VStem: 113 50<-79 695>
LayerCount: 2
Fore
SplineSet
113 695 m 1,0,-1
 -6 708 l 1,1,-1
 -6 741 l 1,2,-1
 -1 741 l 2,3,4
 119 741 119 741 157 746 c 2,5,-1
 163 747 l 1,6,-1
 163 -131 l 1,7,-1
 158 -130 l 2,8,9
 106 -125 106 -125 -1 -125 c 2,10,-1
 -6 -125 l 1,11,-1
 -6 -92 l 1,12,-1
 113 -79 l 1,13,-1
 113 695 l 1,0,-1
EndSplineSet
Validated: 19457
EndChar

StartChar: asciicircum
Encoding: 94 94 63
Width: 500
VWidth: 1000
Flags: W
HStem: 446 296 452 21G<435.654 484.091>
LayerCount: 2
Fore
SplineSet
251 742 m 1,0,-1
 503 485 l 1,1,-1
 455 452 l 1,2,-1
 248 666 l 1,3,-1
 24 446 l 1,4,-1
 -8 463 l 1,5,-1
 251 742 l 1,0,-1
EndSplineSet
Validated: 19457
EndChar

StartChar: a
Encoding: 97 97 64
Width: 500
VWidth: 1000
Flags: W
HStem: 451 20G<375.571 427>
VStem: 60 90<124.25 363.149> 324 89<121 360>
LayerCount: 2
Fore
SplineSet
324 81 m 1,0,-1
 153 -43 l 1,1,-1
 150 -39 l 2,2,3
 108 6 108 6 63 62 c 2,4,-1
 62 63 l 1,5,-1
 62 65 l 2,6,7
 60 95 60 95 60 156 c 0,8,9
 60 275 60 275 80 366 c 2,10,-1
 81 368 l 1,11,-1
 254 477 l 1,12,-1
 257 475 l 2,13,14
 298 447 298 447 346 436 c 1,15,-1
 415 471 l 1,16,-1
 427 461 l 1,17,-1
 427 458 l 2,18,19
 412 357 412 357 412 256 c 0,20,21
 412 167 412 167 413 121 c 1,22,-1
 446 80 l 1,23,24
 468 88 468 88 487 100 c 2,25,-1
 492 103 l 1,26,-1
 503 82 l 1,27,-1
 373 -35 l 1,28,-1
 324 45 l 1,29,-1
 324 81 l 1,0,-1
324 122 m 1,30,-1
 323 360 l 1,31,32
 271 361 271 361 187 386 c 1,33,34
 170 368 170 368 161.5 332 c 128,-1,35
 153 296 153 296 151.5 270.5 c 128,-1,36
 150 245 150 245 150 201 c 0,37,38
 150 163 150 163 153 123 c 1,39,40
 201 65 201 65 214 60 c 0,41,42
 215 60 l 0,43,44
 233 60 233 60 324 122 c 1,30,-1
EndSplineSet
Validated: 19457
EndChar

StartChar: b
Encoding: 98 98 65
Width: 513
VWidth: 1000
Flags: W
HStem: 672 20G<227.36 281.667>
VStem: 88 26<643.952 672> 95 88<105.328 346.113 369 589.594> 358 91<94.0312 336.712>
LayerCount: 2
Fore
SplineSet
132 603 m 1,0,-1
 255 692 l 1,1,-1
 287 668 l 1,2,-1
 274 668 l 2,3,4
 273 667 273 667 270 664.5 c 128,-1,5
 267 662 267 662 259.5 655.5 c 128,-1,6
 252 649 252 649 245 643 c 0,7,8
 226 626 226 626 214 606 c 0,9,10
 201 583 201 583 195 566 c 128,-1,11
 189 549 189 549 185 516 c 0,12,13
 181 472 181 472 181 469 c 0,14,15
 181 462 181 462 181 448 c 0,16,17
 182 435 182 435 182 414 c 0,18,19
 182 408 182 408 182 369 c 1,20,-1
 183 369 l 1,21,22
 271 443 271 443 321 474 c 2,23,-1
 324 476 l 1,24,-1
 326 474 l 2,25,26
 391 437 391 437 443 414 c 2,27,-1
 446 412 l 1,28,-1
 446 409 l 2,29,30
 449 361 449 361 449 313 c 0,31,32
 449 191 449 191 429 96 c 2,33,-1
 428 94 l 1,34,-1
 427 93 l 2,35,36
 296 9 296 9 198 -36 c 2,37,-1
 195 -37 l 1,38,-1
 193 -35 l 2,39,40
 109 40 109 40 82 68 c 2,41,-1
 81 69 l 1,42,-1
 81 72 l 2,43,44
 95 145 95 145 95 307 c 0,45,46
 95 528 95 528 88 668 c 2,47,-1
 88 672 l 1,48,-1
 114 678 l 1,49,-1
 130 602 l 1,50,-1
 132 603 l 1,0,-1
183 330 m 1,51,-1
 183 125 l 1,52,53
 259 47 259 47 285 47 c 0,54,55
 307 47 307 47 322 64 c 128,-1,56
 337 81 337 81 344.5 111.5 c 128,-1,57
 352 142 352 142 355 169.5 c 128,-1,58
 358 197 358 197 358 227 c 0,59,60
 358 297 358 297 354 338 c 1,61,62
 341 353 341 353 273 381 c 1,63,64
 243 377 243 377 183 330 c 1,51,-1
EndSplineSet
Validated: 3073
EndChar

StartChar: c
Encoding: 99 99 66
Width: 389
VWidth: 1000
Flags: W
HStem: 451 20G<216 273>
VStem: 67 93<150.285 365.969>
LayerCount: 2
Fore
SplineSet
365 90 m 1,0,-1
 187 -35 l 1,1,-1
 184 -33 l 2,2,3
 134 10 134 10 73 81 c 2,4,-1
 72 82 l 1,5,-1
 72 84 l 2,6,7
 67 159 67 159 67 218 c 0,8,9
 67 308 67 308 79 364 c 2,10,-1
 80 366 l 1,11,-1
 248 471 l 1,12,-1
 249 471 l 2,13,14
 297 467 297 467 360 426 c 2,15,-1
 364 423 l 1,16,-1
 308 339 l 1,17,-1
 295 334 l 1,18,-1
 293 336 l 2,19,20
 268 359 268 359 236 373.5 c 128,-1,21
 204 388 204 388 179 389 c 1,22,23
 160 354 160 354 160 246 c 0,24,25
 160 190 160 190 167 149 c 1,26,27
 186 120 186 120 247 64 c 1,28,29
 285 76 285 76 348 113 c 2,30,-1
 353 116 l 1,31,-1
 365 90 l 1,0,-1
EndSplineSet
Validated: 19457
EndChar

StartChar: d
Encoding: 100 100 67
Width: 499
VWidth: 1000
Flags: W
HStem: 432 20G<208 240> 541 76<102.506 178.656>
VStem: 68 89<139.582 337> 344 91<124.391 394.969>
LayerCount: 2
Fore
SplineSet
405 106 m 1,0,-1
 214 -40 l 1,1,-1
 211 -38 l 2,2,3
 114 27 114 27 72 78 c 2,4,-1
 71 79 l 1,5,-1
 71 81 l 2,6,7
 68 126 68 126 68 166 c 0,8,9
 68 221 68 221 74 335 c 2,10,-1
 74 337 l 1,11,-1
 76 339 l 2,12,13
 161 420 161 420 208 451 c 2,14,-1
 210 452 l 1,15,-1
 240 446 l 1,16,-1
 234 440 l 2,17,18
 188 390 188 390 170 344 c 0,19,20
 157 312 157 312 157 254 c 0,21,22
 157 220 157 220 164 137 c 1,23,24
 178 119 178 119 207 98 c 0,25,26
 267 54 267 54 284 54 c 0,27,28
 290 54 290 54 295 62 c 0,29,30
 344 140 344 140 344 267 c 0,31,32
 344 332 344 332 332 397 c 1,33,34
 194 541 194 541 96 541 c 0,35,36
 75 541 75 541 74 540 c 2,37,-1
 24 521 l 1,38,-1
 5 544 l 1,39,-1
 11 547 l 2,40,41
 61 575 61 575 149 617 c 2,42,-1
 150 617 l 1,43,-1
 152 617 l 2,44,45
 254 603 254 603 430 459 c 2,46,-1
 432 457 l 1,47,-1
 432 455 l 2,48,49
 435 401 435 401 435 328 c 0,50,51
 435 250 435 250 430 201 c 256,52,53
 425 152 425 152 406 107 c 2,54,-1
 405 106 l 1,0,-1
EndSplineSet
Validated: 19457
EndChar

StartChar: e
Encoding: 101 101 68
Width: 401
VWidth: 1000
Flags: W
LayerCount: 2
Fore
SplineSet
79 369 m 1,0,-1
 247 474 l 1,1,-1
 250 470 l 2,2,3
 296 413 296 413 367 362 c 2,4,-1
 372 359 l 1,5,-1
 367 354 l 2,6,7
 228 221 228 221 156 164 c 1,8,9
 156 153 156 153 161 142 c 2,10,-1
 161 141 l 1,11,12
 163 131 163 131 196 105 c 128,-1,13
 229 79 229 79 257 66 c 0,14,15
 258 66 258 66 266 67 c 128,-1,16
 274 68 274 68 277 69 c 2,17,-1
 356 110 l 1,18,-1
 364 85 l 1,19,-1
 361 83 l 2,20,21
 272 14 272 14 192 -35 c 2,22,-1
 188 -37 l 1,23,-1
 186 -35 l 2,24,25
 106 39 106 39 71 82 c 2,26,-1
 70 83 l 1,27,-1
 70 84 l 2,28,29
 65 127 65 127 65 188 c 0,30,31
 65 274 65 274 79 367 c 2,32,-1
 79 369 l 1,0,-1
153 203 m 1,33,34
 226 258 226 258 276 311 c 1,35,36
 218 349 218 349 173 392 c 0,37,38
 172 392 172 392 172 391 c 0,39,40
 154 371 154 371 153 203 c 1,33,34
EndSplineSet
Validated: 3073
EndChar

StartChar: f
Encoding: 102 102 69
Width: 326
VWidth: 1000
Flags: W
HStem: 346 47<42 112 211 316> 610 74<190 225.446>
VStem: 86 49<506.59 602.014> 115 92<-72.4463 346 393 453.848>
LayerCount: 2
Fore
SplineSet
207 145 m 1,0,1
 207 39 207 39 196 -26.5 c 128,-1,2
 185 -92 185 -92 150 -152 c 2,3,-1
 98 -244 l 1,4,-1
 71 -234 l 1,5,-1
 98 -140 l 2,6,7
 115 -84 115 -84 115 128 c 0,8,9
 115 270 115 270 114 346 c 1,10,-1
 22 346 l 1,11,-1
 42 391 l 1,12,-1
 112 391 l 1,13,14
 110 406 110 406 98 457 c 128,-1,15
 86 508 86 508 86 528 c 0,16,17
 86 611 86 611 189 683 c 2,18,-1
 190 684 l 1,19,-1
 192 684 l 2,20,21
 279 684 279 684 320 642 c 2,22,-1
 322 640 l 1,23,-1
 272 542 l 1,24,-1
 256 541 l 1,25,-1
 254 544 l 2,26,27
 223 610 223 610 181 610 c 0,28,29
 135 610 135 610 135 568 c 0,30,31
 135 550 135 550 155 511 c 2,32,-1
 205 416 l 2,33,34
 210 408 210 408 214 393 c 1,35,-1
 331 393 l 1,36,-1
 316 346 l 1,37,-1
 211 346 l 1,38,-1
 207 145 l 1,0,1
EndSplineSet
Validated: 19457
EndChar

StartChar: g
Encoding: 103 103 70
Width: 504
VWidth: 1000
Flags: W
HStem: -214 84<220.865 301.677> -150 21G<9 61> 451 20G<401.902 449>
VStem: 69 91<126.756 370.969> 335 90<126 344.054> 344 81<129.961 349.9>
LayerCount: 2
Fore
SplineSet
143 -23 m 1,0,-1
 73 63 l 1,1,-1
 73 65 l 2,2,3
 69 133 69 133 69 168 c 0,4,5
 69 269 69 269 84 369 c 2,6,-1
 84 371 l 1,7,-1
 86 372 l 2,8,9
 153 418 153 418 248 474 c 2,10,-1
 251 476 l 1,11,-1
 254 474 l 2,12,13
 296 446 296 446 364 430 c 1,14,-1
 438 471 l 1,15,-1
 449 460 l 1,16,-1
 447 457 l 2,17,18
 438 440 438 440 433.5 416 c 128,-1,19
 429 392 429 392 427 356.5 c 128,-1,20
 425 321 425 321 425 297 c 128,-1,21
 425 273 425 273 425.5 222 c 128,-1,22
 426 171 426 171 426 150 c 0,23,24
 426 132 426 132 431 110 c 2,25,-1
 460 -18 l 1,26,-1
 459 -20 l 2,27,28
 367 -135 367 -135 295 -205 c 0,29,-1
 294 -206 l 1,30,31
 269 -214 269 -214 256 -214 c 0,32,33
 164 -214 164 -214 61 -131 c 1,34,-1
 26 -150 l 1,35,-1
 9 -130 l 1,36,-1
 13 -127 l 2,37,38
 63 -92 63 -92 143 -23 c 1,0,-1
339 89 m 1,39,40
 248 25 248 25 154 -55 c 1,41,42
 230 -130 230 -130 295 -130 c 0,43,44
 327 -130 327 -130 345.5 -105 c 128,-1,45
 364 -80 364 -80 364 -45 c 0,46,47
 364 -18 364 -18 339 89 c 1,39,40
228 47 m 1,48,-1
 335 126 l 1,49,50
 335 253 335 253 344 347 c 1,51,52
 234 362 234 362 176 387 c 1,53,54
 160 343 160 343 160 260 c 0,55,56
 160 181 160 181 165 125 c 1,57,58
 184 88 184 88 228 47 c 1,48,-1
EndSplineSet
Validated: 19457
EndChar

StartChar: h
Encoding: 104 104 71
Width: 521
VWidth: 1000
Flags: W
VStem: 76 21<659.938 679> 83 86<128 355.79 381 590.1> 350 63<-33 197.168> 351 92<48.9492 346.901>
LayerCount: 2
Fore
SplineSet
289 -125 m 1,0,1
 311 -110 311 -110 324.5 -77.5 c 128,-1,2
 338 -45 338 -45 343.5 5.5 c 128,-1,3
 349 56 349 56 350 89 c 128,-1,4
 351 122 351 122 351 177 c 0,5,6
 351 181 351 181 351 186.5 c 128,-1,7
 351 192 351 192 351 193 c 0,8,9
 351 219 351 219 341 351 c 1,10,11
 294 385 294 385 258 385 c 0,12,13
 227 385 227 385 169 339 c 1,14,-1
 164 128 l 1,15,-1
 220 48 l 1,16,-1
 130 -34 l 1,17,-1
 71 64 l 1,18,-1
 71 65 l 2,19,20
 83 217 83 217 83 350 c 0,21,22
 83 391 83 391 82 431 c 0,23,24
 76 643 76 643 76 675 c 2,25,-1
 76 679 l 1,26,-1
 97 683 l 1,27,-1
 120 609 l 1,28,29
 225 688 225 688 235 693 c 0,30,31
 237 694 237 694 238 694 c 2,32,-1
 239 694 l 1,33,-1
 263 679 l 1,34,-1
 258 674 l 2,35,36
 199 615 199 615 186 578 c 0,37,38
 171 535 171 535 170 481 c 2,39,-1
 169 381 l 1,40,-1
 309 482 l 1,41,-1
 312 484 l 1,42,-1
 315 482 l 2,43,44
 391 432 391 432 429 422 c 2,45,-1
 433 421 l 1,46,-1
 433 417 l 2,47,48
 443 361 443 361 443 305 c 0,49,50
 443 275 443 275 440 246 c 0,51,52
 413 -27 413 -27 413 -32 c 2,53,-1
 413 -33 l 1,54,-1
 412 -34 l 2,55,56
 341 -140 341 -140 247 -202 c 2,57,-1
 244 -204 l 1,58,-1
 220 -184 l 1,59,-1
 289 -125 l 1,0,1
EndSplineSet
Validated: 3073
EndChar

StartChar: i
Encoding: 105 105 72
Width: 279
VWidth: 1000
Flags: W
VStem: 85 99<149.455 365> 89 87<93.0675 365>
LayerCount: 2
Fore
SplineSet
27 362 m 1,0,-1
 7 382 l 1,1,-1
 11 386 l 2,2,3
 61 427 61 427 116 479 c 2,4,-1
 119 482 l 1,5,-1
 123 478 l 2,6,7
 158 441 158 441 182 424 c 2,8,-1
 184 422 l 1,9,-1
 184 419 l 2,10,11
 176 350 176 350 176 239 c 2,12,-1
 176 195 l 2,13,14
 176 178 176 178 177 161.5 c 128,-1,15
 178 145 178 145 179 141 c 2,16,-1
 185 121 l 2,17,18
 190 105 190 105 196 96.5 c 128,-1,19
 202 88 202 88 210 80 c 1,20,21
 226 82 226 82 258 106 c 2,22,-1
 263 110 l 1,23,-1
 274 82 l 1,24,-1
 271 79 l 2,25,26
 216 27 216 27 148 -25 c 2,27,-1
 144 -28 l 1,28,-1
 86 54 l 1,29,-1
 86 55 l 2,30,31
 89 108 89 108 89 194 c 0,32,33
 89 287 89 287 85 365 c 1,34,-1
 68 385 l 1,35,36
 46 377 46 377 30 365 c 2,37,-1
 27 362 l 1,0,-1
194 617 m 1,38,-1
 130 549 l 1,39,-1
 127 552 l 2,40,41
 102 575 102 575 68 614 c 2,42,-1
 65 617 l 1,43,-1
 68 621 l 2,44,45
 74 627 74 627 96 646.5 c 128,-1,46
 118 666 118 666 128 678 c 2,47,-1
 132 683 l 1,48,-1
 136 678 l 2,49,50
 177 630 177 630 190 620 c 2,51,-1
 194 617 l 1,38,-1
EndSplineSet
Validated: 19457
EndChar

StartChar: j
Encoding: 106 106 73
Width: 281
VWidth: 1000
Flags: W
VStem: 113 82<-45.8174 370.843>
LayerCount: 2
Fore
SplineSet
10 -206 m 2,0,-1
 6 -209 l 1,1,-1
 -16 -183 l 1,2,-1
 -12 -180 l 2,3,4
 40 -140 40 -140 70 -109 c 0,5,6
 89 -90 89 -90 99 -36 c 128,-1,7
 109 18 109 18 111 68.5 c 128,-1,8
 113 119 113 119 113 203 c 0,9,10
 113 321 113 321 103 350 c 0,11,12
 99 361 99 361 90 371.5 c 128,-1,13
 81 382 81 382 77 384 c 0,14,15
 76 384 l 0,16,17
 74 384 74 384 73 383.5 c 128,-1,18
 72 383 72 383 72 382 c 2,19,-1
 71 382 l 1,20,-1
 38 361 l 1,21,-1
 18 380 l 1,22,-1
 131 481 l 1,23,-1
 134 479 l 2,24,25
 157 462 157 462 199 426 c 2,26,-1
 201 424 l 1,27,-1
 201 422 l 2,28,29
 201 177 201 177 195 26 c 0,30,31
 193 -21 193 -21 172 -47 c 0,32,33
 101 -133 101 -133 10 -206 c 2,0,-1
190 615 m 1,34,-1
 125 548 l 1,35,-1
 122 551 l 2,36,37
 108 563 108 563 67 613 c 2,38,-1
 64 616 l 1,39,-1
 133 680 l 1,40,-1
 136 676 l 2,41,42
 163 641 163 641 186 619 c 2,43,-1
 190 615 l 1,34,-1
EndSplineSet
Validated: 19457
EndChar

StartChar: k
Encoding: 107 107 74
Width: 389
VWidth: 1000
Flags: W
HStem: 303 45<29 89 263 335> 672 20G<251 277>
VStem: 83 27<620.38 673> 89 89<109.441 303 348 478.049> 283 82<432.704 491.869>
LayerCount: 2
Fore
SplineSet
351 117 m 1,0,-1
 370 95 l 1,1,-1
 366 91 l 2,2,3
 332 61 332 61 198 -30 c 2,4,-1
 195 -32 l 1,5,-1
 83 67 l 1,6,-1
 83 70 l 2,7,8
 89 98 89 98 89 127 c 2,9,-1
 89 303 l 1,10,-1
 18 303 l 1,11,-1
 29 348 l 1,12,-1
 90 348 l 1,13,14
 90 595 90 595 83 669 c 2,15,-1
 83 673 l 1,16,-1
 108 679 l 1,17,-1
 110 675 l 2,18,19
 114 664 114 664 118.5 644 c 128,-1,20
 123 624 123 624 124 617 c 2,21,-1
 127 602 l 1,22,23
 212 668 212 668 251 690 c 2,24,-1
 253 692 l 1,25,-1
 277 677 l 1,26,-1
 272 672 l 2,27,28
 218 622 218 622 201.5 588.5 c 128,-1,29
 185 555 185 555 179 508 c 1,30,-1
 297 589 l 1,31,-1
 301 591 l 1,32,-1
 303 589 l 2,33,34
 365 530 365 530 365 483 c 0,35,36
 365 455 365 455 341 431 c 2,37,-1
 263 348 l 1,38,-1
 353 348 l 1,39,-1
 335 303 l 1,40,-1
 178 303 l 1,41,-1
 178 130 l 1,42,43
 209 99 209 99 255 66 c 1,44,-1
 280 77 l 2,45,46
 305 88 305 88 319.5 96.5 c 128,-1,47
 334 105 334 105 347 114 c 2,48,-1
 351 117 l 1,0,-1
178 348 m 1,49,50
 216 350 216 350 249.5 378.5 c 128,-1,51
 283 407 283 407 283 446 c 0,52,53
 283 475 283 475 240 512 c 1,54,55
 230 507 230 507 221.5 501 c 128,-1,56
 213 495 213 495 206 485.5 c 128,-1,57
 199 476 199 476 194.5 471 c 128,-1,58
 190 466 190 466 187 452.5 c 128,-1,59
 184 439 184 439 182 434 c 128,-1,60
 180 429 180 429 179 412 c 128,-1,61
 178 395 178 395 178 393 c 2,62,-1
 178 348 l 1,49,50
EndSplineSet
Validated: 19457
EndChar

StartChar: l
Encoding: 108 108 75
Width: 280
VWidth: 1000
Flags: W
HStem: 672 20G<232.91 285>
VStem: 92 97<100.243 320.56> 94 26<644.4 672> 100 87<129.541 585.148>
LayerCount: 2
Fore
SplineSet
261 692 m 1,0,-1
 285 673 l 1,1,-1
 280 669 l 2,2,3
 215 613 215 613 201 565.5 c 128,-1,4
 187 518 187 518 187 391 c 0,5,6
 187 302 187 302 189 124 c 1,7,8
 200 108 200 108 227 87 c 1,9,10
 243 92 243 92 263 108 c 2,11,-1
 267 112 l 1,12,-1
 282 86 l 1,13,-1
 147 -27 l 1,14,-1
 92 55 l 1,15,-1
 92 56 l 2,16,17
 100 200 100 200 100 382 c 0,18,19
 100 554 100 554 94 668 c 2,20,-1
 94 672 l 1,21,-1
 120 678 l 1,22,-1
 136 603 l 1,23,-1
 261 692 l 1,0,-1
EndSplineSet
Validated: 19457
EndChar

StartChar: m
Encoding: 109 109 76
Width: 767
VWidth: 1000
Flags: W
VStem: 87 86<109.287 346> 334 86<87.1572 342.746> 567 99<98.0781 269.764> 578 88<100.335 361.238>
LayerCount: 2
Fore
SplineSet
173 386 m 1,0,-1
 295 481 l 1,1,-1
 298 479 l 2,2,3
 361 441 361 441 417 423 c 2,4,-1
 420 422 l 1,5,-1
 420 388 l 1,6,7
 495 439 495 439 541 478 c 2,8,-1
 543 480 l 1,9,-1
 546 478 l 2,10,11
 632 432 632 432 666 423 c 2,12,-1
 670 422 l 1,13,-1
 670 418 l 2,14,15
 666 361 666 361 666 247 c 2,16,-1
 666 128 l 1,17,18
 686 100 686 100 699 85 c 1,19,20
 724 94 724 94 742 109 c 2,21,-1
 746 112 l 1,22,-1
 764 87 l 1,23,-1
 630 -27 l 1,24,-1
 627 -21 l 2,25,26
 619 -6 619 -6 568 57 c 2,27,-1
 567 59 l 1,28,-1
 567 61 l 2,29,30
 578 138 578 138 578 274 c 0,31,32
 578 317 578 317 575 341 c 0,33,34
 574 345 574 345 571 349.5 c 128,-1,35
 568 354 568 354 560.5 358.5 c 128,-1,36
 553 363 553 363 546.5 365.5 c 128,-1,37
 540 368 540 368 528.5 372 c 128,-1,38
 517 376 517 376 514 377 c 2,39,-1
 497 381 l 2,40,41
 483 385 483 385 481 386 c 1,42,43
 447 368 447 368 420 350 c 1,44,-1
 420 135 l 2,45,46
 420 122 420 122 428.5 106.5 c 128,-1,47
 437 91 437 91 469 50 c 2,48,-1
 472 46 l 1,49,-1
 377 -34 l 1,50,-1
 374 -28 l 2,51,52
 361 -2 361 -2 321 43 c 2,53,-1
 320 45 l 1,54,-1
 320 47 l 2,55,56
 334 107 334 107 334 248 c 0,57,58
 334 304 334 304 329 344 c 1,59,60
 303 365 303 365 230 386 c 1,61,-1
 173 346 l 1,62,-1
 173 152 l 2,63,64
 173 118 173 118 177.5 109 c 128,-1,65
 182 100 182 100 221 51 c 2,66,-1
 224 47 l 1,67,-1
 133 -30 l 1,68,-1
 80 57 l 1,69,-1
 80 59 l 2,70,71
 87 115 87 115 87 177 c 0,72,73
 87 280 87 280 83 363 c 1,74,-1
 61 385 l 1,75,-1
 18 361 l 1,76,-1
 -0 379 l 1,77,-1
 118 479 l 1,78,-1
 122 476 l 2,79,80
 168 430 168 430 172 424 c 0,81,82
 173 422 173 422 173 420 c 2,83,-1
 173 386 l 1,0,-1
EndSplineSet
Validated: 19457
EndChar

StartChar: n
Encoding: 110 110 77
Width: 527
VWidth: 1000
Flags: W
VStem: 85 96<83.1499 338> 337 101<128 192.446 197.346 364.567>
LayerCount: 2
Fore
SplineSet
181 377 m 1,0,-1
 320 481 l 1,1,-1
 323 479 l 2,2,3
 373 445 373 445 435 422 c 2,4,-1
 438 420 l 1,5,-1
 438 417 l 2,6,7
 430 331 430 331 430 253 c 1,8,-1
 434 128 l 1,9,-1
 439 119 l 2,10,11
 443 111 443 111 446 107 c 0,12,13
 450 103 450 103 454 97 c 0,14,15
 458 92 458 92 461 89 c 0,16,17
 464 87 464 87 467 87 c 0,18,19
 469 87 469 87 475 91 c 2,20,-1
 510 116 l 1,21,-1
 528 92 l 1,22,-1
 393 -27 l 1,23,-1
 334 64 l 1,24,-1
 334 66 l 2,25,26
 342 113 342 113 342 195 c 0,27,28
 342 270 342 270 337 355 c 1,29,30
 297 375 297 375 242 380 c 1,31,-1
 181 338 l 1,32,-1
 177 134 l 2,33,34
 177 117 177 117 183 109 c 2,35,-1
 226 51 l 1,36,-1
 131 -31 l 1,37,-1
 128 -25 l 2,38,39
 106 14 106 14 79 43 c 2,40,-1
 78 44 l 1,41,-1
 78 47 l 2,42,43
 89 110 89 110 89 211 c 0,44,45
 89 266 89 266 85 363 c 1,46,-1
 65 382 l 1,47,-1
 30 362 l 1,48,-1
 11 380 l 1,49,-1
 15 384 l 2,50,51
 111 468 111 468 119 474 c 0,52,53
 121 475 121 475 122 475 c 2,54,-1
 124 475 l 1,55,-1
 126 473 l 2,56,57
 141 457 141 457 179 429 c 2,58,-1
 181 428 l 1,59,-1
 181 377 l 1,0,-1
EndSplineSet
Validated: 3073
EndChar

StartChar: o
Encoding: 111 111 78
Width: 489
VWidth: 1000
Flags: W
VStem: 61 91<126.098 326.014> 329 89<99.9524 354.07>
LayerCount: 2
Fore
SplineSet
62 65 m 2,0,-1
 61 66 l 1,1,-1
 61 68 l 2,2,3
 61 228 61 228 79 365 c 2,4,5
 79 367 l 1,6,-1
 82 368 l 2,7,8
 160 413 160 413 257 485 c 2,9,-1
 260 487 l 1,10,-1
 263 485 l 2,11,12
 339 434 339 434 409 420 c 2,13,-1
 413 419 l 1,14,-1
 413 415 l 2,15,16
 418 352 418 352 418 302 c 0,17,18
 418 186 418 186 396 91 c 2,19,-1
 395 89 l 1,20,-1
 394 88 l 2,21,22
 272 10 272 10 167 -33 c 2,23,-1
 164 -34 l 1,24,-1
 162 -32 l 2,25,26
 93 27 93 27 62 65 c 2,0,-1
268 49 m 0,27,28
 271 49 271 49 286 66 c 0,29,30
 292 73 292 73 298.5 84 c 128,-1,31
 305 95 305 95 309 104 c 128,-1,32
 313 113 313 113 316 127.5 c 128,-1,33
 319 142 319 142 321.5 151 c 128,-1,34
 324 160 324 160 325.5 179 c 128,-1,35
 327 198 327 198 327.5 207.5 c 128,-1,36
 328 217 328 217 328.5 241 c 128,-1,37
 329 265 329 265 329 270 c 2,38,-1
 329 351 l 1,39,40
 274 356 274 356 187 395 c 1,41,42
 152 331 152 331 152 211 c 0,43,44
 152 160 152 160 158 125 c 1,45,46
 215 56 215 56 268 49 c 0,27,28
EndSplineSet
Validated: 19457
EndChar

StartChar: p
Encoding: 112 112 79
Width: 500
VWidth: 1000
Flags: W
VStem: 37 89<420.5 496> 73 101<-173 30.5413> 83 88<-173 31 111 350> 344 91<90.1819 347.51>
LayerCount: 2
Fore
SplineSet
174 -173 m 1,0,-1
 89 -220 l 1,1,-1
 73 -210 l 1,2,-1
 73 -207 l 2,3,4
 82 -27 82 -27 82 42 c 1,5,6
 49 41 49 41 26 20 c 2,7,-1
 22 17 l 1,8,-1
 5 39 l 1,9,-1
 9 42 l 2,10,11
 67 96 67 96 83 108 c 1,12,-1
 83 350 l 1,13,-1
 73 364 l 2,14,15
 63 377 63 377 62 379 c 2,16,-1
 53 391 l 2,17,18
 46 400 46 400 46 401 c 2,19,-1
 41 409 l 2,20,21
 38 415 38 415 37.5 417 c 128,-1,22
 37 419 37 419 37 422 c 0,23,24
 37 460 37 460 122 542 c 2,25,-1
 124 544 l 1,26,-1
 146 530 l 1,27,-1
 143 526 l 2,28,29
 126 505 126 505 126 487 c 0,30,31
 126 454 126 454 171 410 c 2,32,-1
 172 408 l 1,33,-1
 172 406 l 2,34,35
 172 398 172 398 171 382 c 1,36,37
 221 416 221 416 304 482 c 2,38,-1
 307 484 l 1,39,-1
 310 482 l 2,40,41
 354 446 354 446 427 419 c 2,42,-1
 430 418 l 1,43,-1
 430 414 l 2,44,45
 435 341 435 341 435 282 c 0,46,47
 435 151 435 151 412 87 c 2,48,-1
 411 86 l 1,49,-1
 273 -24 l 1,50,-1
 270 -22 l 2,51,52
 217 21 217 21 170 31 c 1,53,54
 170 -80 170 -80 174 -170 c 2,55,-1
 174 -173 l 1,0,-1
171 344 m 1,56,-1
 171 111 l 1,57,58
 219 109 219 109 321 59 c 1,59,60
 344 108 344 108 344 230 c 0,61,62
 344 270 344 270 338 350 c 1,63,64
 307 366 307 366 247 386 c 1,65,66
 220 375 220 375 171 344 c 1,56,-1
EndSplineSet
Validated: 19457
EndChar

StartChar: q
Encoding: 113 113 80
Width: 489
VWidth: 1000
Flags: W
VStem: 57 87<107.274 370.701> 315 89<-174.015 83 109.362 358.958> 319 104<201.445 364.31>
LayerCount: 2
Fore
SplineSet
411 -182 m 1,0,-1
 322 -230 l 1,1,-1
 307 -216 l 1,2,-1
 307 -214 l 2,3,4
 315 -27 315 -27 315 83 c 1,5,6
 248 30 248 30 149 -33 c 2,7,-1
 145 -35 l 1,8,-1
 57 63 l 1,9,-1
 57 65 l 2,10,11
 54 108 54 108 54 151 c 0,12,13
 54 274 54 274 77 370 c 2,14,-1
 78 372 l 1,15,-1
 80 373 l 2,16,17
 193 435 193 435 244 477 c 2,18,-1
 247 479 l 1,19,-1
 250 477 l 2,20,21
 300 446 300 446 339 437 c 1,22,-1
 410 486 l 1,23,-1
 423 475 l 1,24,-1
 423 472 l 2,25,26
 404 364 404 364 404 141 c 0,27,28
 404 -74 404 -74 411 -179 c 2,29,-1
 411 -182 l 1,0,-1
219 56 m 1,30,31
 241 69 241 69 314 124 c 1,32,33
 314 265 314 265 319 362 c 1,34,35
 261 367 261 367 176 392 c 1,36,37
 143 329 143 329 143 200 c 0,38,39
 143 182 143 182 143 169 c 128,-1,40
 143 156 143 156 144 150 c 0,41,-1
 144 145 l 1,42,-1
 144 144 l 1,43,44
 144 123 144 123 219 56 c 1,30,31
EndSplineSet
Validated: 3073
EndChar

StartChar: r
Encoding: 114 114 81
Width: 389
VWidth: 1000
Flags: W
HStem: 330 73<285.5 362>
VStem: 98 89<107.562 358.357>
LayerCount: 2
Fore
SplineSet
187 392 m 1,0,-1
 293 477 l 1,1,-1
 295 471 l 2,2,3
 333 403 333 403 357 403 c 0,4,5
 367 403 367 403 393 417 c 2,6,-1
 401 422 l 1,7,-1
 399 398 l 1,8,-1
 338 341 l 2,9,10
 326 330 326 330 302 330 c 0,11,12
 269 330 269 330 219 377 c 1,13,14
 195 359 195 359 187 348 c 1,15,-1
 187 152 l 2,16,17
 187 117 187 117 256 66 c 1,18,-1
 348 110 l 1,19,-1
 351 81 l 1,20,-1
 200 -27 l 1,21,-1
 197 -25 l 2,22,23
 156 7 156 7 93 72 c 2,24,-1
 92 73 l 1,25,-1
 92 76 l 2,26,27
 98 136 98 136 98 245 c 0,28,29
 98 339 98 339 93 359 c 1,30,-1
 91 361 l 2,31,32
 83 368 83 368 64 381 c 1,33,-1
 26 365 l 1,34,-1
 7 381 l 1,35,-1
 116 481 l 1,36,-1
 120 478 l 2,37,38
 151 447 151 447 185 418 c 2,39,-1
 187 416 l 1,40,-1
 187 392 l 1,0,-1
EndSplineSet
Validated: 19457
EndChar

StartChar: s
Encoding: 115 115 82
Width: 443
VWidth: 1000
Flags: W
HStem: -4 21G<-35 -16> 42 74<46.9737 130.22> 231 16<175 244> 358 74<275.256 317> 445 20G<398 410.692>
VStem: 65 83<247.949 378.867> 291 88<46.0469 222.113>
LayerCount: 2
Fore
SplineSet
269 39 m 0,0,1
 291 39 291 39 291 132 c 0,2,3
 291 136 291 136 291 140 c 0,4,5
 291 231 291 231 244 231 c 0,6,7
 228 231 228 231 212 222 c 2,8,-1
 106 162 l 1,9,-1
 103 165 l 2,10,11
 88 181 88 181 60 233 c 2,12,-1
 59 234 l 1,13,-1
 59 235 l 2,14,15
 65 323 65 323 65 378 c 2,16,-1
 65 380 l 1,17,-1
 222 485 l 1,18,-1
 305 437 l 2,19,20
 314 432 314 432 329 432 c 0,21,22
 362 432 362 432 398 461 c 2,23,-1
 403 465 l 1,24,-1
 413 439 l 1,25,-1
 317 358 l 1,26,-1
 315 358 l 2,27,28
 220 358 220 358 163 408 c 1,29,30
 148 388 148 388 148 336 c 0,31,32
 148 304 148 304 155 274 c 0,33,34
 162 247 162 247 175 247 c 0,35,36
 186 247 186 247 190 249 c 2,37,-1
 315 305 l 1,38,-1
 317 305 l 2,39,40
 335 305 335 305 374 266 c 2,41,-1
 376 264 l 1,42,-1
 376 262 l 2,43,44
 379 224 379 224 379 185 c 0,45,46
 379 97 379 97 363 49 c 2,47,-1
 362 46 l 1,48,-1
 360 45 l 2,49,50
 351 41 351 41 201 -34 c 2,51,-1
 197 -36 l 1,52,-1
 195 -34 l 2,53,54
 119 42 119 42 70 42 c 0,55,56
 27 42 27 42 -16 -1 c 2,57,-1
 -19 -4 l 1,58,-1
 -35 12 l 1,59,-1
 -32 16 l 2,60,61
 -28 20 -28 20 -11 39 c 0,62,63
 6 59 6 59 16 68 c 128,-1,64
 26 77 26 77 42 90 c 0,65,66
 59 103 59 103 76.5 109.5 c 128,-1,67
 94 116 94 116 113 116 c 0,68,69
 151 116 151 116 188 93 c 1,70,-1
 269 39 l 0,0,1
EndSplineSet
Validated: 3073
EndChar

StartChar: t
Encoding: 116 116 83
Width: 333
VWidth: 1000
Flags: W
HStem: 346 45<39 110 200 288>
VStem: 110 89<108.661 346 391 561>
LayerCount: 2
Fore
SplineSet
228 648 m 1,0,-1
 249 627 l 1,1,-1
 219 597 l 2,2,3
 213 591 213 591 211 581 c 0,4,5
 199 513 199 513 199 391 c 1,6,-1
 310 391 l 1,7,-1
 288 346 l 1,8,-1
 200 346 l 1,9,-1
 201 125 l 1,10,11
 260 73 260 73 276 73 c 0,12,13
 297 73 297 73 343 104 c 2,14,-1
 350 109 l 1,15,-1
 354 76 l 1,16,-1
 212 -27 l 1,17,-1
 110 60 l 1,18,-1
 110 62 l 2,19,20
 110 249 110 249 111 346 c 1,21,-1
 18 346 l 1,22,-1
 39 391 l 1,23,-1
 110 391 l 1,24,-1
 110 561 l 1,25,-1
 228 648 l 1,0,-1
EndSplineSet
Validated: 19457
EndChar

StartChar: u
Encoding: 117 117 84
Width: 517
VWidth: 1000
Flags: W
VStem: 92 85<118.871 378.773> 331 102<229.149 427> 334 86<118 427>
LayerCount: 2
Fore
SplineSet
422 474 m 1,0,-1
 433 464 l 1,1,-1
 433 461 l 2,2,3
 420 358 420 358 420 225 c 0,4,5
 420 196 420 196 420.5 180 c 128,-1,6
 421 164 421 164 424.5 138 c 128,-1,7
 428 112 428 112 436 100 c 128,-1,8
 444 88 444 88 455 88 c 0,9,10
 467 88 467 88 506 107 c 2,11,-1
 511 110 l 1,12,-1
 520 86 l 1,13,-1
 517 84 l 2,14,15
 447 27 447 27 395 -22 c 2,16,-1
 393 -24 l 1,17,-1
 381 -20 l 1,18,-1
 380 -19 l 2,19,20
 345 40 345 40 330 79 c 1,21,-1
 280 43 l 2,22,23
 229 7 229 7 206 -11 c 2,24,-1
 180 -32 l 1,25,-1
 165 -22 l 1,26,-1
 129 2 l 2,27,28
 105 18 105 18 85.5 28.5 c 128,-1,29
 66 39 66 39 54 43 c 2,30,-1
 48 45 l 1,31,-1
 51 50 l 2,32,33
 92 122 92 122 92 264 c 0,34,35
 92 295 92 295 91 312.5 c 128,-1,36
 90 330 90 330 82 353.5 c 128,-1,37
 74 377 74 377 60 390 c 1,38,-1
 23 370 l 1,39,-1
 -0 386 l 1,40,-1
 120 481 l 1,41,-1
 123 477 l 2,42,43
 155 439 155 439 174 425 c 2,44,-1
 176 424 l 1,45,-1
 176 421 l 2,46,47
 176 410 176 410 176.5 388.5 c 128,-1,48
 177 367 177 367 177 356 c 0,49,50
 177 200 177 200 152 107 c 1,51,-1
 247 62 l 1,52,-1
 330 118 l 1,53,54
 334 184 334 184 334 264 c 0,55,56
 334 342 334 342 331 424 c 2,57,-1
 331 427 l 1,58,-1
 422 474 l 1,0,-1
EndSplineSet
Validated: 19457
EndChar

StartChar: v
Encoding: 118 118 85
Width: 512
VWidth: 1000
Flags: W
VStem: 46 88<408.5 492.5> 87 93<101.74 360.447> 354 90<113.05 353.158>
LayerCount: 2
Fore
SplineSet
87 345 m 0,0,1
 87 354 87 354 66.5 376.5 c 128,-1,2
 46 399 46 399 46 418 c 0,3,4
 46 455 46 455 127 537 c 2,5,-1
 130 539 l 1,6,-1
 153 532 l 1,7,-1
 149 526 l 2,8,9
 134 502 134 502 134 483 c 0,10,11
 134 462 134 462 179 411 c 2,12,-1
 180 410 l 1,13,-1
 180 384 l 1,14,-1
 318 483 l 1,15,-1
 321 481 l 2,16,17
 379 442 379 442 435 421 c 2,18,-1
 438 420 l 1,19,-1
 438 416 l 2,20,21
 444 350 444 350 444 245 c 0,22,23
 444 216 444 216 434 165 c 128,-1,24
 424 114 424 114 412 84 c 2,25,-1
 411 82 l 1,26,-1
 191 -34 l 1,27,-1
 188 -31 l 2,28,29
 145 14 145 14 86 62 c 2,30,-1
 84 64 l 1,31,-1
 84 66 l 2,32,33
 91 143 91 143 91 231 c 0,34,35
 91 250 91 250 87 345 c 0,0,1
180 345 m 1,36,-1
 177 155 l 2,37,38
 177 154 177 154 177 153 c 0,39,40
 177 122 177 122 208 97 c 0,41,42
 209 97 l 0,43,44
 214 94 214 94 239.5 74 c 128,-1,45
 265 54 265 54 285 54 c 0,46,47
 310 54 310 54 326.5 88 c 128,-1,48
 343 122 343 122 348.5 162 c 128,-1,49
 354 202 354 202 354 243 c 0,50,51
 354 296 354 296 346 355 c 1,52,53
 317 380 317 380 266 391 c 1,54,55
 238 388 238 388 180 345 c 1,36,-1
EndSplineSet
Validated: 19457
EndChar

StartChar: w
Encoding: 119 119 86
Width: 774
VWidth: 1000
Flags: W
VStem: 39 88<408.5 492.5> 83 87<86.625 345> 334 87<109.207 349.484> 605 93<124.054 346.728>
LayerCount: 2
Fore
SplineSet
423 378 m 1,0,-1
 560 477 l 1,1,-1
 563 475 l 2,2,3
 624 439 624 439 688 410 c 2,4,-1
 690 408 l 1,5,-1
 691 406 l 2,6,7
 698 367 698 367 698 268 c 0,8,9
 698 245 698 245 696 224 c 128,-1,10
 694 203 694 203 692.5 190 c 128,-1,11
 691 177 691 177 685.5 156 c 128,-1,12
 680 135 680 135 679 133 c 2,13,-1
 668 102 l 2,14,15
 658 74 658 74 657 71 c 2,16,-1
 656 69 l 1,17,-1
 465 -34 l 1,18,-1
 462 -32 l 2,19,20
 394 10 394 10 329 42 c 2,21,-1
 326 43 l 1,22,-1
 326 46 l 2,23,24
 334 140 334 140 334 222 c 0,25,26
 334 290 334 290 329 338 c 1,27,28
 258 387 258 387 240 387 c 0,29,30
 232 387 232 387 220.5 380.5 c 128,-1,31
 209 374 209 374 200 367 c 2,32,-1
 171 345 l 1,33,34
 171 329 171 329 170.5 261.5 c 128,-1,35
 170 194 170 194 170 158 c 0,36,37
 170 108 170 108 216 51 c 2,38,-1
 219 48 l 1,39,-1
 136 -35 l 1,40,-1
 133 -30 l 2,41,42
 101 23 101 23 75 48 c 2,43,-1
 73 50 l 1,44,-1
 73 53 l 2,45,46
 83 117 83 117 83 207 c 0,47,48
 83 309 83 309 80 345 c 0,49,50
 79 356 79 356 59 377.5 c 128,-1,51
 39 399 39 399 39 418 c 0,52,53
 39 455 39 455 120 537 c 2,54,-1
 123 539 l 1,55,-1
 146 532 l 1,56,-1
 142 526 l 2,57,58
 127 502 127 502 127 483 c 0,59,60
 127 462 127 462 172 411 c 2,61,-1
 173 410 l 1,62,-1
 173 386 l 1,63,64
 249 439 249 439 288 477 c 2,65,-1
 290 479 l 1,66,-1
 294 477 l 2,67,68
 349 442 349 442 421 410 c 2,69,-1
 424 408 l 1,70,-1
 423 378 l 1,0,-1
498 381 m 0,71,72
 495 381 495 381 486 378 c 128,-1,73
 477 375 477 375 472 372 c 2,74,-1
 456 362 l 2,75,76
 444 354 444 354 435 347 c 128,-1,77
 426 340 426 340 423 338 c 1,78,79
 421 266 421 266 421 235 c 0,80,81
 421 201 421 201 424 154 c 0,82,83
 426 119 426 119 465.5 84 c 128,-1,84
 505 49 505 49 548 49 c 0,85,86
 605 49 605 49 605 264 c 0,87,88
 605 301 605 301 594 345 c 1,89,90
 547 374 547 374 498 381 c 0,71,72
EndSplineSet
Validated: 19457
EndChar

StartChar: x
Encoding: 120 120 87
Width: 389
VWidth: 1000
Flags: W
HStem: -193 59<107.832 124> 452 20G<277.529 305>
VStem: 5 65<-102.196 -32.2188> 106 89<121.403 344.333>
LayerCount: 2
Fore
SplineSet
198 387 m 1,0,-1
 302 472 l 1,1,-1
 305 468 l 2,2,3
 324 437 324 437 373 402 c 2,4,-1
 378 398 l 1,5,-1
 304 333 l 1,6,-1
 301 334 l 2,7,8
 283 342 283 342 262 365 c 2,9,-1
 243 384 l 1,10,11
 214 366 214 366 200 345 c 1,12,13
 195 324 195 324 195 260 c 128,-1,14
 195 196 195 196 200 119 c 1,15,16
 252 65 252 65 271 64 c 1,17,18
 289 68 289 68 291 69 c 2,19,-1
 360 106 l 1,20,-1
 364 78 l 1,21,-1
 209 -32 l 1,22,-1
 206 -28 l 2,23,24
 175 6 175 6 126 42 c 1,25,26
 70 -12 70 -12 70 -54 c 0,27,28
 70 -91 70 -91 104 -110 c 0,29,30
 140 -130 140 -130 188 -134 c 2,31,-1
 192 -134 l 1,32,-1
 192 -151 l 1,33,-1
 124 -193 l 1,34,-1
 122 -193 l 2,35,36
 5 -165 5 -165 5 -98 c 0,37,38
 5 -73 5 -73 23 -40 c 0,39,40
 41 -8 41 -8 57 12 c 0,41,42
 72 31 72 31 99 61 c 1,43,44
 106 109 106 109 106 192 c 0,45,46
 106 310 106 310 103 351 c 1,47,48
 77 378 77 378 69 381 c 0,49,50
 68 381 l 0,51,52
 64 380 64 380 49 373 c 0,53,54
 32 364 32 364 29 363 c 0,55,56
 28 363 28 363 27 363 c 2,57,-1
 25 363 l 1,58,-1
 6 376 l 1,59,-1
 10 380 l 2,60,61
 48 419 48 419 115 477 c 2,62,-1
 118 480 l 1,63,-1
 121 477 l 2,64,65
 190 416 190 416 197 411 c 0,66,-1
 199 410 l 1,67,-1
 198 387 l 1,0,-1
EndSplineSet
Validated: 19457
EndChar

StartChar: y
Encoding: 121 121 88
Width: 499
VWidth: 1000
Flags: W
VStem: 40 88<399.5 483.5> 84 88<83.2805 351.828> 345 97<6.60352 349.915>
LayerCount: 2
Fore
SplineSet
81 335 m 0,0,1
 80 347 80 347 60 368 c 128,-1,2
 40 389 40 389 40 410 c 0,3,4
 40 446 40 446 121 528 c 2,5,-1
 124 530 l 1,6,-1
 147 523 l 1,7,-1
 143 517 l 2,8,9
 128 493 128 493 128 474 c 0,10,11
 128 453 128 453 173 402 c 2,12,-1
 174 401 l 1,13,-1
 174 377 l 1,14,-1
 311 479 l 1,15,-1
 314 477 l 2,16,17
 388 433 388 433 428 419 c 2,18,-1
 431 418 l 1,19,-1
 431 415 l 2,20,21
 442 321 442 321 442 228 c 0,22,23
 442 82 442 82 412 -24 c 0,24,25
 402 -57 402 -57 342.5 -118.5 c 128,-1,26
 283 -180 283 -180 225 -223 c 2,27,-1
 223 -225 l 1,28,-1
 172 -202 l 1,29,-1
 182 -198 l 2,30,31
 244 -167 244 -167 274 -136 c 0,32,33
 299 -111 299 -111 315 -75 c 128,-1,34
 331 -39 331 -39 337 13 c 128,-1,35
 343 65 343 65 344 97 c 128,-1,36
 345 129 345 129 345 189 c 0,37,38
 345 254 345 254 334 353 c 1,39,40
 290 380 290 380 259 386 c 1,41,42
 239 386 239 386 175 338 c 1,43,44
 175 317 175 317 174 289.5 c 128,-1,45
 173 262 173 262 172.5 231 c 128,-1,46
 172 200 172 200 172 152 c 0,47,48
 172 107 172 107 216 51 c 2,49,-1
 219 48 l 1,50,-1
 136 -35 l 1,51,-1
 133 -30 l 2,52,53
 101 24 101 24 75 48 c 2,54,-1
 73 50 l 1,55,-1
 73 53 l 2,56,57
 84 120 84 120 84 255 c 1,58,59
 82 324 82 324 81 335 c 0,0,1
EndSplineSet
Validated: 19457
EndChar

StartChar: z
Encoding: 122 122 89
Width: 391
VWidth: 1000
Flags: W
HStem: -220 71<115.66 155>
VStem: -12 89<-114.444 -69.2539> 199 90<304 396> 235 84<-93.7688 119.803>
LayerCount: 2
Fore
SplineSet
294 -102 m 1,0,-1
 155 -220 l 1,1,-1
 153 -220 l 2,2,3
 98 -220 98 -220 47 -192.5 c 128,-1,4
 -4 -165 -4 -165 -12 -117 c 2,5,-1
 -12 -116 l 1,6,-1
 -12 -115 l 2,7,8
 -1 -73 -1 -73 76 16 c 0,9,10
 118 65 118 65 198 145 c 1,11,12
 139 171 139 171 96 176 c 2,13,-1
 92 177 l 1,14,-1
 92 194 l 1,15,-1
 167 263 l 2,16,17
 199 293 199 293 199 315 c 0,18,19
 199 341 199 341 175.5 362 c 128,-1,20
 152 383 152 383 131 383 c 0,21,22
 114 383 114 383 50 331 c 2,23,-1
 47 328 l 1,24,-1
 29 347 l 1,25,-1
 32 351 l 2,26,27
 105 424 105 424 179 475 c 2,28,-1
 182 477 l 1,29,-1
 184 475 l 2,30,31
 289 422 289 422 289 370 c 0,32,33
 289 347 289 347 273 331 c 2,34,-1
 197 249 l 1,35,36
 266 224 266 224 303 202 c 2,37,-1
 304 201 l 1,38,-1
 305 199 l 2,39,40
 319 143 319 143 319 64 c 0,41,42
 319 -9 319 -9 295 -100 c 2,43,-1
 294 -102 l 1,0,-1
222 121 m 1,44,-1
 189 91 l 2,45,46
 156 61 156 61 129.5 32 c 128,-1,47
 103 3 103 3 90 -23 c 128,-1,48
 77 -49 77 -49 77 -73 c 0,49,50
 77 -100 77 -100 112 -124.5 c 128,-1,51
 147 -149 147 -149 183 -149 c 0,52,53
 207 -149 207 -149 221 -96.5 c 128,-1,54
 235 -44 235 -44 235 20 c 0,55,56
 235 76 235 76 222 121 c 1,44,-1
EndSplineSet
Validated: 19457
EndChar

StartChar: onealt
Encoding: 127 -1 90
Width: 378
VWidth: 1000
Flags: W
HStem: -16 21G<154 230.759>
VStem: 154 105<13 289.062 424.866 584.684> 159 92<164.759 584.684>
LayerCount: 2
Fore
SplineSet
49 627 m 1,0,-1
 249 710 l 1,1,-1
 254 705 l 2,2,3
 256 703 256 703 257 701 c 2,4,-1
 259 698 l 1,5,-1
 259 697 l 2,6,7
 251 513 251 513 251 422 c 0,8,9
 251 135 251 135 259 17 c 2,10,-1
 259 13 l 1,11,-1
 168 -16 l 1,12,-1
 154 -4 l 1,13,-1
 154 -2 l 2,14,15
 159 231 159 231 159 417 c 0,16,17
 159 421 159 421 159.5 448.5 c 128,-1,18
 160 476 160 476 160 489 c 128,-1,19
 160 502 160 502 159.5 513.5 c 128,-1,20
 159 525 159 525 155.5 550 c 128,-1,21
 152 575 152 575 144.5 585 c 128,-1,22
 137 595 137 595 125 595 c 2,23,-1
 49 595 l 1,24,-1
 49 627 l 1,0,-1
EndSplineSet
Validated: 19457
EndChar

StartChar: quotedbl
Encoding: 34 34 92
Width: 215
VWidth: 1000
Flags: W
HStem: 427 273
VStem: 4 77<558.465 697.312> 123 78<554.678 694.444>
LayerCount: 2
Fore
SplineSet
9 583 m 2,0,1
 4 623 4 623 4 657 c 0,2,3
 4 700 4 700 43 700 c 0,4,5
 56 700 56 700 68.5 694 c 128,-1,6
 81 688 81 688 81 675 c 2,7,-1
 81 623 l 1,8,-1
 81 622 l 1,9,-1
 59 427 l 1,10,-1
 30 427 l 1,11,-1
 9 583 l 2,0,1
128 624 m 1,12,13
 123 659 123 659 123 668 c 0,14,15
 123 697 123 697 167 697 c 0,16,17
 178 697 178 697 189.5 691 c 128,-1,18
 201 685 201 685 201 673 c 0,19,20
 201 641 201 641 200 626 c 2,21,-1
 181 427 l 1,22,-1
 151 427 l 1,23,-1
 128 624 l 1,12,13
EndSplineSet
EndChar
